G04 #@! TF.FileFunction,Copper,L2,Bot,Signal*
%FSLAX46Y46*%
G04 Gerber Fmt 4.6, Leading zero omitted, Abs format (unit mm)*
G04 Created by KiCad (PCBNEW 4.0.2+dfsg1-stable) date 2016年12月08日 20時15分25秒*
%MOMM*%
G01*
G04 APERTURE LIST*
%ADD10C,0.100000*%
%ADD11R,4.700000X5.100000*%
%ADD12R,5.000000X5.000000*%
%ADD13R,4.000000X6.000000*%
%ADD14C,1.700000*%
%ADD15C,0.500000*%
%ADD16C,0.600000*%
%ADD17C,0.200000*%
%ADD18C,0.250000*%
%ADD19C,1.000000*%
%ADD20C,0.254000*%
G04 APERTURE END LIST*
D10*
D11*
X151130000Y-102870000D03*
X177030000Y-102870000D03*
D12*
X164090000Y-102870000D03*
D13*
X176680000Y-102870000D03*
X151480000Y-102870000D03*
D14*
X153949400Y-109651800D03*
X151409400Y-109651800D03*
X148869400Y-109651800D03*
X148869400Y-112191800D03*
X151409400Y-112191800D03*
X153949400Y-112191800D03*
X179349400Y-109651800D03*
X176809400Y-109651800D03*
X174269400Y-109651800D03*
X174269400Y-112191800D03*
X176809400Y-112191800D03*
X179349400Y-112191800D03*
D15*
X150393400Y-99872800D03*
X150327360Y-96332040D03*
X160172400Y-94792800D03*
D16*
X150190200Y-105384600D03*
X162839400Y-107619800D03*
D15*
X157746700Y-98264980D03*
X149758400Y-99110800D03*
D16*
X164063680Y-106563160D03*
D15*
X149250400Y-107619800D03*
X151155400Y-107492800D03*
X158306000Y-94343220D03*
X149928580Y-95018860D03*
X161234120Y-93980000D03*
X159318960Y-94030800D03*
X159054800Y-97358200D03*
X157962600Y-96520000D03*
X157378400Y-96951800D03*
X162331400Y-93370400D03*
X161188400Y-94919800D03*
X160807400Y-97586800D03*
D17*
X150393400Y-99872800D02*
X151130000Y-100319840D01*
X151130000Y-100319840D02*
X151130000Y-102870000D01*
X151130000Y-102057200D02*
X151130000Y-102870000D01*
X150388320Y-96271080D02*
X150327360Y-96332040D01*
X157215840Y-96271080D02*
X150388320Y-96271080D01*
X157535880Y-95951040D02*
X157215840Y-96271080D01*
X159014160Y-95951040D02*
X157535880Y-95951040D01*
X160172400Y-94792800D02*
X159014160Y-95951040D01*
D10*
X150393400Y-102133400D02*
X151130000Y-102870000D01*
D17*
X151130000Y-101203760D02*
X151130000Y-102870000D01*
X175920400Y-102870000D02*
X171170600Y-107619800D01*
X171170600Y-107619800D02*
X162839400Y-107619800D01*
D18*
X178079400Y-104571800D02*
X179349400Y-105333800D01*
X179349400Y-105333800D02*
X179349400Y-109651800D01*
D17*
X177030000Y-102870000D02*
X175920400Y-102870000D01*
D18*
X150190200Y-105384600D02*
X151130000Y-104495600D01*
X177030000Y-102870000D02*
X177030000Y-104335200D01*
X177030000Y-104335200D02*
X178079400Y-104571800D01*
D10*
X150543161Y-97328580D02*
X150520400Y-98729800D01*
X150888700Y-96972120D02*
X150543161Y-97328580D01*
X156453840Y-96972120D02*
X150888700Y-96972120D01*
X157746700Y-98264980D02*
X156453840Y-96972120D01*
X150520400Y-98729800D02*
X149758400Y-99110800D01*
D17*
X151028400Y-107619800D02*
X149250400Y-107619800D01*
X151155400Y-107492800D02*
X151028400Y-107619800D01*
D10*
X164063680Y-106563160D02*
X164063680Y-106776520D01*
D19*
X164090000Y-106536840D02*
X164063680Y-106563160D01*
X164090000Y-102870000D02*
X164090000Y-106536840D01*
D10*
X164090000Y-106750200D02*
X164090000Y-106536840D01*
X164063680Y-106776520D02*
X164090000Y-106750200D01*
D17*
X149928580Y-95120460D02*
X149928580Y-95018860D01*
X150591520Y-95783400D02*
X149928580Y-95120460D01*
X156865820Y-95783400D02*
X150591520Y-95783400D01*
X156865820Y-95783400D02*
X158306000Y-94343220D01*
D18*
X166141400Y-102870000D02*
X164090000Y-102870000D01*
D17*
X161234120Y-93980000D02*
X161183320Y-94030800D01*
X161183320Y-94030800D02*
X159318960Y-94030800D01*
D10*
X156408120Y-109649260D02*
X153949400Y-109651800D01*
X159029400Y-106984800D02*
X156408120Y-109649260D01*
X159054800Y-97358200D02*
X159029400Y-106984800D01*
X157251400Y-108381800D02*
X153212800Y-108381800D01*
X151434800Y-109728000D02*
X153187400Y-108407200D01*
X157962600Y-96994980D02*
X158775400Y-97840800D01*
X158775400Y-97840800D02*
X158775400Y-106857800D01*
X158775400Y-106857800D02*
X157251400Y-108381800D01*
X157962600Y-96994980D02*
X157962600Y-96520000D01*
X153212800Y-108381800D02*
X153187400Y-108407200D01*
D18*
X157962600Y-96520000D02*
X157962600Y-96520000D01*
D10*
X150169880Y-108031280D02*
X148869400Y-109331760D01*
X157124400Y-108000800D02*
X150169880Y-108031280D01*
X158521400Y-106730800D02*
X157124400Y-108000800D01*
X158521400Y-98094800D02*
X158521400Y-106730800D01*
X157378400Y-96951800D02*
X158521400Y-98094800D01*
X148869400Y-109331760D02*
X148869400Y-109651800D01*
X174269400Y-112191800D02*
X173888400Y-112191800D01*
X173888400Y-112191800D02*
X172999400Y-111302800D01*
X172999400Y-111302800D02*
X162839400Y-111302800D01*
X162331400Y-93370400D02*
X162331400Y-93715840D01*
X162331400Y-93715840D02*
X161569400Y-94411800D01*
X162057080Y-94000320D02*
X162046920Y-94000320D01*
X159407771Y-97691029D02*
X159791400Y-97307400D01*
X159791400Y-97307400D02*
X159787448Y-95935797D01*
X159407771Y-97691029D02*
X159407771Y-97713524D01*
X159787506Y-95935855D02*
X159787448Y-95935797D01*
X159787506Y-95955829D02*
X159787506Y-95935855D01*
X161061400Y-94411800D02*
X159787506Y-95955829D01*
X161061400Y-94411944D02*
X161061400Y-94411800D01*
X161060154Y-94413190D02*
X161061400Y-94411944D01*
X161569400Y-94411800D02*
X161060154Y-94413190D01*
X162046920Y-94000320D02*
X161569400Y-94411800D01*
X162057080Y-94000320D02*
X162041840Y-94000320D01*
X162839400Y-111302800D02*
X159410400Y-107746800D01*
X159410400Y-107746800D02*
X159407771Y-97713524D01*
X159407771Y-97713524D02*
X159407771Y-97713524D01*
X175539400Y-110921800D02*
X176809400Y-112191800D01*
X162966400Y-110921800D02*
X175539400Y-110921800D01*
X159664400Y-107543600D02*
X162966400Y-110921800D01*
X159664400Y-97840800D02*
X159664400Y-107543600D01*
X160172400Y-97332800D02*
X159664400Y-97840800D01*
X160172400Y-95935800D02*
X160172400Y-97332800D01*
X161188400Y-94919800D02*
X160172400Y-95935800D01*
X179349400Y-112191800D02*
X179247800Y-112191800D01*
X179247800Y-112191800D02*
X178130200Y-111074200D01*
X178130200Y-111074200D02*
X178130200Y-108712000D01*
X178130200Y-108712000D02*
X177546000Y-108127800D01*
X177546000Y-108127800D02*
X173456600Y-108127800D01*
X173456600Y-108127800D02*
X171094400Y-110540800D01*
X171094400Y-110540800D02*
X163093400Y-110540800D01*
X163093400Y-110540800D02*
X159918400Y-107365800D01*
X160807400Y-97586800D02*
X160690013Y-97678787D01*
X160690013Y-97678787D02*
X159900263Y-98536447D01*
X159900263Y-98536447D02*
X159918400Y-107365800D01*
X160807400Y-97586800D02*
X160807400Y-97667924D01*
X160807400Y-97667924D02*
X160851190Y-97711714D01*
D18*
X160807400Y-97586800D02*
X160832800Y-97612200D01*
D20*
G36*
X158917307Y-108222283D02*
X162346307Y-111778283D01*
X162351511Y-111781899D01*
X162355032Y-111787168D01*
X162461072Y-111858022D01*
X162565801Y-111930787D01*
X162571992Y-111932136D01*
X162577262Y-111935657D01*
X162702362Y-111960541D01*
X162826947Y-111987686D01*
X162833182Y-111986563D01*
X162839400Y-111987800D01*
X172715664Y-111987800D01*
X172784517Y-112056653D01*
X172784143Y-112485889D01*
X172894015Y-112751800D01*
X155325945Y-112751800D01*
X155446118Y-112420521D01*
X155419715Y-111830342D01*
X155244659Y-111407720D01*
X154993358Y-111327447D01*
X154129005Y-112191800D01*
X154143148Y-112205943D01*
X153963543Y-112385548D01*
X153949400Y-112371405D01*
X153935258Y-112385548D01*
X153755653Y-112205943D01*
X153769795Y-112191800D01*
X152905442Y-111327447D01*
X152679400Y-111399652D01*
X152453358Y-111327447D01*
X151589005Y-112191800D01*
X151603148Y-112205943D01*
X151423543Y-112385548D01*
X151409400Y-112371405D01*
X151395258Y-112385548D01*
X151215653Y-112205943D01*
X151229795Y-112191800D01*
X150365442Y-111327447D01*
X150147760Y-111396981D01*
X150129056Y-111351714D01*
X149711683Y-110933612D01*
X149683843Y-110922052D01*
X149709486Y-110911456D01*
X150127588Y-110494083D01*
X150139148Y-110466243D01*
X150149744Y-110491886D01*
X150567117Y-110909988D01*
X150614712Y-110929751D01*
X150545047Y-111147842D01*
X151409400Y-112012195D01*
X152273753Y-111147842D01*
X152204219Y-110930160D01*
X152249486Y-110911456D01*
X152667588Y-110494083D01*
X152679148Y-110466243D01*
X152689744Y-110491886D01*
X153107117Y-110909988D01*
X153154712Y-110929751D01*
X153085047Y-111147842D01*
X153949400Y-112012195D01*
X154813753Y-111147842D01*
X154744219Y-110930160D01*
X154789486Y-110911456D01*
X155207588Y-110494083D01*
X155273465Y-110335433D01*
X156408827Y-110334260D01*
X156411271Y-110333771D01*
X156413716Y-110334237D01*
X156542232Y-110307580D01*
X156670911Y-110281846D01*
X156672979Y-110280461D01*
X156675419Y-110279955D01*
X156784010Y-110206107D01*
X156892988Y-110133127D01*
X156894369Y-110131056D01*
X156896429Y-110129655D01*
X158860269Y-108133465D01*
X158917307Y-108222283D01*
X158917307Y-108222283D01*
G37*
X158917307Y-108222283D02*
X162346307Y-111778283D01*
X162351511Y-111781899D01*
X162355032Y-111787168D01*
X162461072Y-111858022D01*
X162565801Y-111930787D01*
X162571992Y-111932136D01*
X162577262Y-111935657D01*
X162702362Y-111960541D01*
X162826947Y-111987686D01*
X162833182Y-111986563D01*
X162839400Y-111987800D01*
X172715664Y-111987800D01*
X172784517Y-112056653D01*
X172784143Y-112485889D01*
X172894015Y-112751800D01*
X155325945Y-112751800D01*
X155446118Y-112420521D01*
X155419715Y-111830342D01*
X155244659Y-111407720D01*
X154993358Y-111327447D01*
X154129005Y-112191800D01*
X154143148Y-112205943D01*
X153963543Y-112385548D01*
X153949400Y-112371405D01*
X153935258Y-112385548D01*
X153755653Y-112205943D01*
X153769795Y-112191800D01*
X152905442Y-111327447D01*
X152679400Y-111399652D01*
X152453358Y-111327447D01*
X151589005Y-112191800D01*
X151603148Y-112205943D01*
X151423543Y-112385548D01*
X151409400Y-112371405D01*
X151395258Y-112385548D01*
X151215653Y-112205943D01*
X151229795Y-112191800D01*
X150365442Y-111327447D01*
X150147760Y-111396981D01*
X150129056Y-111351714D01*
X149711683Y-110933612D01*
X149683843Y-110922052D01*
X149709486Y-110911456D01*
X150127588Y-110494083D01*
X150139148Y-110466243D01*
X150149744Y-110491886D01*
X150567117Y-110909988D01*
X150614712Y-110929751D01*
X150545047Y-111147842D01*
X151409400Y-112012195D01*
X152273753Y-111147842D01*
X152204219Y-110930160D01*
X152249486Y-110911456D01*
X152667588Y-110494083D01*
X152679148Y-110466243D01*
X152689744Y-110491886D01*
X153107117Y-110909988D01*
X153154712Y-110929751D01*
X153085047Y-111147842D01*
X153949400Y-112012195D01*
X154813753Y-111147842D01*
X154744219Y-110930160D01*
X154789486Y-110911456D01*
X155207588Y-110494083D01*
X155273465Y-110335433D01*
X156408827Y-110334260D01*
X156411271Y-110333771D01*
X156413716Y-110334237D01*
X156542232Y-110307580D01*
X156670911Y-110281846D01*
X156672979Y-110280461D01*
X156675419Y-110279955D01*
X156784010Y-110206107D01*
X156892988Y-110133127D01*
X156894369Y-110131056D01*
X156896429Y-110129655D01*
X158860269Y-108133465D01*
X158917307Y-108222283D01*
G36*
X179715177Y-93633944D02*
X179809939Y-93697261D01*
X179873256Y-93792023D01*
X179909400Y-93973730D01*
X179909400Y-99970054D01*
X179844090Y-99868559D01*
X179631890Y-99723569D01*
X179380000Y-99672560D01*
X179290289Y-99672560D01*
X179283162Y-99634683D01*
X179144090Y-99418559D01*
X178931890Y-99273569D01*
X178680000Y-99222560D01*
X174680000Y-99222560D01*
X174444683Y-99266838D01*
X174228559Y-99405910D01*
X174083569Y-99618110D01*
X174032560Y-99870000D01*
X174032560Y-103718393D01*
X170866154Y-106884800D01*
X163426819Y-106884800D01*
X163369727Y-106827608D01*
X163026199Y-106684962D01*
X162654233Y-106684638D01*
X162310457Y-106826683D01*
X162047208Y-107089473D01*
X161904562Y-107433001D01*
X161904238Y-107804967D01*
X162046283Y-108148743D01*
X162309073Y-108411992D01*
X162652601Y-108554638D01*
X163024567Y-108554962D01*
X163368343Y-108412917D01*
X163426562Y-108354800D01*
X171170600Y-108354800D01*
X171451872Y-108298851D01*
X171690323Y-108139523D01*
X174032560Y-105797286D01*
X174032560Y-105870000D01*
X174076838Y-106105317D01*
X174215910Y-106321441D01*
X174428110Y-106466431D01*
X174680000Y-106517440D01*
X178589400Y-106517440D01*
X178589400Y-108202464D01*
X178030368Y-107643432D01*
X177808138Y-107494943D01*
X177546000Y-107442800D01*
X173456600Y-107442800D01*
X173452960Y-107443524D01*
X173449313Y-107442839D01*
X173322066Y-107469561D01*
X173194462Y-107494943D01*
X173191375Y-107497006D01*
X173187745Y-107497768D01*
X173080388Y-107571165D01*
X172972232Y-107643432D01*
X172970171Y-107646517D01*
X172967106Y-107648612D01*
X170806386Y-109855800D01*
X163377136Y-109855800D01*
X160602818Y-107081482D01*
X160600532Y-105968800D01*
X161376297Y-105968800D01*
X161463691Y-106005000D01*
X163804250Y-106005000D01*
X163840450Y-105968800D01*
X164339550Y-105968800D01*
X164375750Y-106005000D01*
X166716309Y-106005000D01*
X166803703Y-105968800D01*
X169951400Y-105968800D01*
X169997559Y-105960115D01*
X170039953Y-105932835D01*
X170068394Y-105891210D01*
X170078400Y-105841800D01*
X170078400Y-93597800D01*
X179533469Y-93597800D01*
X179715177Y-93633944D01*
X179715177Y-93633944D01*
G37*
X179715177Y-93633944D02*
X179809939Y-93697261D01*
X179873256Y-93792023D01*
X179909400Y-93973730D01*
X179909400Y-99970054D01*
X179844090Y-99868559D01*
X179631890Y-99723569D01*
X179380000Y-99672560D01*
X179290289Y-99672560D01*
X179283162Y-99634683D01*
X179144090Y-99418559D01*
X178931890Y-99273569D01*
X178680000Y-99222560D01*
X174680000Y-99222560D01*
X174444683Y-99266838D01*
X174228559Y-99405910D01*
X174083569Y-99618110D01*
X174032560Y-99870000D01*
X174032560Y-103718393D01*
X170866154Y-106884800D01*
X163426819Y-106884800D01*
X163369727Y-106827608D01*
X163026199Y-106684962D01*
X162654233Y-106684638D01*
X162310457Y-106826683D01*
X162047208Y-107089473D01*
X161904562Y-107433001D01*
X161904238Y-107804967D01*
X162046283Y-108148743D01*
X162309073Y-108411992D01*
X162652601Y-108554638D01*
X163024567Y-108554962D01*
X163368343Y-108412917D01*
X163426562Y-108354800D01*
X171170600Y-108354800D01*
X171451872Y-108298851D01*
X171690323Y-108139523D01*
X174032560Y-105797286D01*
X174032560Y-105870000D01*
X174076838Y-106105317D01*
X174215910Y-106321441D01*
X174428110Y-106466431D01*
X174680000Y-106517440D01*
X178589400Y-106517440D01*
X178589400Y-108202464D01*
X178030368Y-107643432D01*
X177808138Y-107494943D01*
X177546000Y-107442800D01*
X173456600Y-107442800D01*
X173452960Y-107443524D01*
X173449313Y-107442839D01*
X173322066Y-107469561D01*
X173194462Y-107494943D01*
X173191375Y-107497006D01*
X173187745Y-107497768D01*
X173080388Y-107571165D01*
X172972232Y-107643432D01*
X172970171Y-107646517D01*
X172967106Y-107648612D01*
X170806386Y-109855800D01*
X163377136Y-109855800D01*
X160602818Y-107081482D01*
X160600532Y-105968800D01*
X161376297Y-105968800D01*
X161463691Y-106005000D01*
X163804250Y-106005000D01*
X163840450Y-105968800D01*
X164339550Y-105968800D01*
X164375750Y-106005000D01*
X166716309Y-106005000D01*
X166803703Y-105968800D01*
X169951400Y-105968800D01*
X169997559Y-105960115D01*
X170039953Y-105932835D01*
X170068394Y-105891210D01*
X170078400Y-105841800D01*
X170078400Y-93597800D01*
X179533469Y-93597800D01*
X179715177Y-93633944D01*
G36*
X177003148Y-109637658D02*
X176989005Y-109651800D01*
X177003148Y-109665943D01*
X176823543Y-109845548D01*
X176809400Y-109831405D01*
X176795258Y-109845548D01*
X176615653Y-109665943D01*
X176629795Y-109651800D01*
X176615653Y-109637658D01*
X176795258Y-109458053D01*
X176809400Y-109472195D01*
X176823543Y-109458053D01*
X177003148Y-109637658D01*
X177003148Y-109637658D01*
G37*
X177003148Y-109637658D02*
X176989005Y-109651800D01*
X177003148Y-109665943D01*
X176823543Y-109845548D01*
X176809400Y-109831405D01*
X176795258Y-109845548D01*
X176615653Y-109665943D01*
X176629795Y-109651800D01*
X176615653Y-109637658D01*
X176795258Y-109458053D01*
X176809400Y-109472195D01*
X176823543Y-109458053D01*
X177003148Y-109637658D01*
G36*
X174463148Y-109637658D02*
X174449005Y-109651800D01*
X174463148Y-109665943D01*
X174283543Y-109845548D01*
X174269400Y-109831405D01*
X174255258Y-109845548D01*
X174075653Y-109665943D01*
X174089795Y-109651800D01*
X174075653Y-109637658D01*
X174255258Y-109458053D01*
X174269400Y-109472195D01*
X174283543Y-109458053D01*
X174463148Y-109637658D01*
X174463148Y-109637658D01*
G37*
X174463148Y-109637658D02*
X174449005Y-109651800D01*
X174463148Y-109665943D01*
X174283543Y-109845548D01*
X174269400Y-109831405D01*
X174255258Y-109845548D01*
X174075653Y-109665943D01*
X174089795Y-109651800D01*
X174075653Y-109637658D01*
X174255258Y-109458053D01*
X174269400Y-109472195D01*
X174283543Y-109458053D01*
X174463148Y-109637658D01*
G36*
X148315910Y-105871441D02*
X148528110Y-106016431D01*
X148780000Y-106067440D01*
X148869711Y-106067440D01*
X148876838Y-106105317D01*
X149015910Y-106321441D01*
X149228110Y-106466431D01*
X149480000Y-106517440D01*
X153480000Y-106517440D01*
X153715317Y-106473162D01*
X153931441Y-106334090D01*
X154076431Y-106121890D01*
X154107432Y-105968800D01*
X157836400Y-105968800D01*
X157836400Y-106427776D01*
X156858298Y-107316960D01*
X150166878Y-107346287D01*
X150037315Y-107372650D01*
X149907742Y-107398423D01*
X149906470Y-107399273D01*
X149904971Y-107399578D01*
X149795462Y-107473446D01*
X149685512Y-107546912D01*
X149065454Y-108166970D01*
X148575311Y-108166543D01*
X148309400Y-108276415D01*
X148309400Y-105861324D01*
X148315910Y-105871441D01*
X148315910Y-105871441D01*
G37*
X148315910Y-105871441D02*
X148528110Y-106016431D01*
X148780000Y-106067440D01*
X148869711Y-106067440D01*
X148876838Y-106105317D01*
X149015910Y-106321441D01*
X149228110Y-106466431D01*
X149480000Y-106517440D01*
X153480000Y-106517440D01*
X153715317Y-106473162D01*
X153931441Y-106334090D01*
X154076431Y-106121890D01*
X154107432Y-105968800D01*
X157836400Y-105968800D01*
X157836400Y-106427776D01*
X156858298Y-107316960D01*
X150166878Y-107346287D01*
X150037315Y-107372650D01*
X149907742Y-107398423D01*
X149906470Y-107399273D01*
X149904971Y-107399578D01*
X149795462Y-107473446D01*
X149685512Y-107546912D01*
X149065454Y-108166970D01*
X148575311Y-108166543D01*
X148309400Y-108276415D01*
X148309400Y-105861324D01*
X148315910Y-105871441D01*
G36*
X150520400Y-95453933D02*
X150504170Y-95447194D01*
X150152095Y-95446887D01*
X149826703Y-95581336D01*
X149577531Y-95830073D01*
X149442514Y-96155230D01*
X149442207Y-96507305D01*
X149576656Y-96832697D01*
X149825393Y-97081869D01*
X149899652Y-97112704D01*
X149884196Y-97197258D01*
X149858251Y-97317454D01*
X149843495Y-98225874D01*
X149583135Y-98225647D01*
X149257743Y-98360096D01*
X149008571Y-98608833D01*
X148873554Y-98933990D01*
X148873247Y-99286065D01*
X148962633Y-99502396D01*
X148883569Y-99618110D01*
X148872543Y-99672560D01*
X148780000Y-99672560D01*
X148544683Y-99716838D01*
X148328559Y-99855910D01*
X148309400Y-99883950D01*
X148309400Y-93973731D01*
X148345544Y-93792023D01*
X148408861Y-93697261D01*
X148503623Y-93633944D01*
X148685330Y-93597800D01*
X150520400Y-93597800D01*
X150520400Y-95453933D01*
X150520400Y-95453933D01*
G37*
X150520400Y-95453933D02*
X150504170Y-95447194D01*
X150152095Y-95446887D01*
X149826703Y-95581336D01*
X149577531Y-95830073D01*
X149442514Y-96155230D01*
X149442207Y-96507305D01*
X149576656Y-96832697D01*
X149825393Y-97081869D01*
X149899652Y-97112704D01*
X149884196Y-97197258D01*
X149858251Y-97317454D01*
X149843495Y-98225874D01*
X149583135Y-98225647D01*
X149257743Y-98360096D01*
X149008571Y-98608833D01*
X148873554Y-98933990D01*
X148873247Y-99286065D01*
X148962633Y-99502396D01*
X148883569Y-99618110D01*
X148872543Y-99672560D01*
X148780000Y-99672560D01*
X148544683Y-99716838D01*
X148328559Y-99855910D01*
X148309400Y-99883950D01*
X148309400Y-93973731D01*
X148345544Y-93792023D01*
X148408861Y-93697261D01*
X148503623Y-93633944D01*
X148685330Y-93597800D01*
X150520400Y-93597800D01*
X150520400Y-95453933D01*
M02*
