M48
;DRILL file {KiCad 4.0.2+dfsg1-stable} date 2016年12月02日 11時36分30秒
;FORMAT={-:-/ absolute / metric / decimal}
FMAT,2
METRIC,TZ
T1C0.400
T2C1.016
%
G90
G05
M71
T1
X149.921Y-99.995
X150.043Y-96.012
X150.15Y-97.561
X150.19Y-105.385
X155.092Y-96.977
X156.439Y-99.847
X157.582Y-96.774
X158.293Y-98.095
X159.283Y-94.361
X160.35Y-98.095
X161.011Y-94.31
X162.687Y-93.396
X162.789Y-94.92
X162.839Y-107.62
X164.064Y-106.563
T2
X148.869Y-108.382
X148.869Y-110.922
X151.409Y-108.382
X151.409Y-110.922
X153.949Y-108.382
X153.949Y-110.922
X174.269Y-108.382
X174.269Y-110.922
X176.809Y-108.382
X176.809Y-110.922
X179.349Y-108.382
X179.349Y-110.922
T0
M30
