G04 #@! TF.FileFunction,Legend,Top*
%FSLAX46Y46*%
G04 Gerber Fmt 4.6, Leading zero omitted, Abs format (unit mm)*
G04 Created by KiCad (PCBNEW 4.0.2+dfsg1-stable) date 2016年12月02日 11時36分25秒*
%MOMM*%
G01*
G04 APERTURE LIST*
%ADD10C,0.100000*%
%ADD11C,0.500000*%
%ADD12C,0.250000*%
%ADD13C,0.125000*%
%ADD14C,0.150000*%
%ADD15C,0.010000*%
%ADD16R,0.830000X0.680000*%
%ADD17R,0.750000X0.700000*%
%ADD18C,2.100000*%
%ADD19R,0.700000X0.900000*%
%ADD20R,0.650000X0.950000*%
%ADD21R,0.950000X0.650000*%
%ADD22R,0.700000X0.700000*%
G04 APERTURE END LIST*
D10*
D11*
X149042735Y-103552467D02*
X149042735Y-100752467D01*
X149042735Y-102085800D02*
X150642735Y-102085800D01*
X150642735Y-103552467D02*
X150642735Y-100752467D01*
X153176068Y-103552467D02*
X153176068Y-102085800D01*
X153042734Y-101819133D01*
X152776068Y-101685800D01*
X152242734Y-101685800D01*
X151976068Y-101819133D01*
X153176068Y-103419133D02*
X152909401Y-103552467D01*
X152242734Y-103552467D01*
X151976068Y-103419133D01*
X151842734Y-103152467D01*
X151842734Y-102885800D01*
X151976068Y-102619133D01*
X152242734Y-102485800D01*
X152909401Y-102485800D01*
X153176068Y-102352467D01*
X155842734Y-103552467D02*
X154509401Y-103552467D01*
X154509401Y-100752467D01*
X157976068Y-103552467D02*
X157976068Y-102085800D01*
X157842734Y-101819133D01*
X157576068Y-101685800D01*
X157042734Y-101685800D01*
X156776068Y-101819133D01*
X157976068Y-103419133D02*
X157709401Y-103552467D01*
X157042734Y-103552467D01*
X156776068Y-103419133D01*
X156642734Y-103152467D01*
X156642734Y-102885800D01*
X156776068Y-102619133D01*
X157042734Y-102485800D01*
X157709401Y-102485800D01*
X157976068Y-102352467D01*
X159309401Y-103552467D02*
X159309401Y-100752467D01*
X159576067Y-102485800D02*
X160376067Y-103552467D01*
X160376067Y-101685800D02*
X159309401Y-102752467D01*
X162642734Y-103419133D02*
X162376068Y-103552467D01*
X161842734Y-103552467D01*
X161576068Y-103419133D01*
X161442734Y-103152467D01*
X161442734Y-102085800D01*
X161576068Y-101819133D01*
X161842734Y-101685800D01*
X162376068Y-101685800D01*
X162642734Y-101819133D01*
X162776068Y-102085800D01*
X162776068Y-102352467D01*
X161442734Y-102619133D01*
X163976068Y-103552467D02*
X163976068Y-100752467D01*
X165576068Y-103552467D02*
X164376068Y-101952467D01*
X165576068Y-100752467D02*
X163976068Y-102352467D01*
X166776068Y-103552467D02*
X166776068Y-101685800D01*
X166776068Y-100752467D02*
X166642734Y-100885800D01*
X166776068Y-101019133D01*
X166909401Y-100885800D01*
X166776068Y-100752467D01*
X166776068Y-101019133D01*
X167709401Y-101685800D02*
X168776067Y-101685800D01*
X168109401Y-100752467D02*
X168109401Y-103152467D01*
X168242734Y-103419133D01*
X168509401Y-103552467D01*
X168776067Y-103552467D01*
X173176067Y-103552467D02*
X171842734Y-103552467D01*
X171842734Y-100752467D01*
X174109401Y-103552467D02*
X174109401Y-101685800D01*
X174109401Y-100752467D02*
X173976067Y-100885800D01*
X174109401Y-101019133D01*
X174242734Y-100885800D01*
X174109401Y-100752467D01*
X174109401Y-101019133D01*
X175442734Y-101685800D02*
X175442734Y-103552467D01*
X175442734Y-101952467D02*
X175576067Y-101819133D01*
X175842734Y-101685800D01*
X176242734Y-101685800D01*
X176509400Y-101819133D01*
X176642734Y-102085800D01*
X176642734Y-103552467D01*
X178376067Y-103552467D02*
X178109400Y-103419133D01*
X177976067Y-103285800D01*
X177842733Y-103019133D01*
X177842733Y-102219133D01*
X177976067Y-101952467D01*
X178109400Y-101819133D01*
X178376067Y-101685800D01*
X178776067Y-101685800D01*
X179042733Y-101819133D01*
X179176067Y-101952467D01*
X179309400Y-102219133D01*
X179309400Y-103019133D01*
X179176067Y-103285800D01*
X179042733Y-103419133D01*
X178776067Y-103552467D01*
X178376067Y-103552467D01*
D12*
X174658638Y-104865514D02*
X174896733Y-105532181D01*
X175134829Y-104865514D01*
X175896734Y-105484562D02*
X175801496Y-105532181D01*
X175611019Y-105532181D01*
X175515781Y-105484562D01*
X175468162Y-105389324D01*
X175468162Y-105008371D01*
X175515781Y-104913133D01*
X175611019Y-104865514D01*
X175801496Y-104865514D01*
X175896734Y-104913133D01*
X175944353Y-105008371D01*
X175944353Y-105103610D01*
X175468162Y-105198848D01*
X176372924Y-105532181D02*
X176372924Y-104865514D01*
X176372924Y-105055990D02*
X176420543Y-104960752D01*
X176468162Y-104913133D01*
X176563400Y-104865514D01*
X176658639Y-104865514D01*
X176991972Y-105436943D02*
X177039591Y-105484562D01*
X176991972Y-105532181D01*
X176944353Y-105484562D01*
X176991972Y-105436943D01*
X176991972Y-105532181D01*
X177991972Y-105532181D02*
X177420543Y-105532181D01*
X177706257Y-105532181D02*
X177706257Y-104532181D01*
X177611019Y-104675038D01*
X177515781Y-104770276D01*
X177420543Y-104817895D01*
X178420543Y-105436943D02*
X178468162Y-105484562D01*
X178420543Y-105532181D01*
X178372924Y-105484562D01*
X178420543Y-105436943D01*
X178420543Y-105532181D01*
X179087209Y-104532181D02*
X179182448Y-104532181D01*
X179277686Y-104579800D01*
X179325305Y-104627419D01*
X179372924Y-104722657D01*
X179420543Y-104913133D01*
X179420543Y-105151229D01*
X179372924Y-105341705D01*
X179325305Y-105436943D01*
X179277686Y-105484562D01*
X179182448Y-105532181D01*
X179087209Y-105532181D01*
X178991971Y-105484562D01*
X178944352Y-105436943D01*
X178896733Y-105341705D01*
X178849114Y-105151229D01*
X178849114Y-104913133D01*
X178896733Y-104722657D01*
X178944352Y-104627419D01*
X178991971Y-104579800D01*
X179087209Y-104532181D01*
D13*
X178611305Y-109735133D02*
X178849400Y-109735133D01*
X178563686Y-109877990D02*
X178730353Y-109377990D01*
X178897019Y-109877990D01*
X179063686Y-109877990D02*
X179063686Y-109377990D01*
X179397019Y-109377990D02*
X179492257Y-109377990D01*
X179539876Y-109401800D01*
X179587495Y-109449419D01*
X179611304Y-109544657D01*
X179611304Y-109711324D01*
X179587495Y-109806562D01*
X179539876Y-109854181D01*
X179492257Y-109877990D01*
X179397019Y-109877990D01*
X179349400Y-109854181D01*
X179301781Y-109806562D01*
X179277971Y-109711324D01*
X179277971Y-109544657D01*
X179301781Y-109449419D01*
X179349400Y-109401800D01*
X179397019Y-109377990D01*
X179920829Y-109377990D02*
X179968448Y-109377990D01*
X180016067Y-109401800D01*
X180039876Y-109425610D01*
X180063686Y-109473229D01*
X180087495Y-109568467D01*
X180087495Y-109687514D01*
X180063686Y-109782752D01*
X180039876Y-109830371D01*
X180016067Y-109854181D01*
X179968448Y-109877990D01*
X179920829Y-109877990D01*
X179873210Y-109854181D01*
X179849400Y-109830371D01*
X179825591Y-109782752D01*
X179801781Y-109687514D01*
X179801781Y-109568467D01*
X179825591Y-109473229D01*
X179849400Y-109425610D01*
X179873210Y-109401800D01*
X179920829Y-109377990D01*
X176059401Y-109877990D02*
X176059401Y-109377990D01*
X176249877Y-109377990D01*
X176297496Y-109401800D01*
X176321305Y-109425610D01*
X176345115Y-109473229D01*
X176345115Y-109544657D01*
X176321305Y-109592276D01*
X176297496Y-109616086D01*
X176249877Y-109639895D01*
X176059401Y-109639895D01*
X176559401Y-109877990D02*
X176559401Y-109377990D01*
X176892734Y-109377990D02*
X176987972Y-109377990D01*
X177035591Y-109401800D01*
X177083210Y-109449419D01*
X177107019Y-109544657D01*
X177107019Y-109711324D01*
X177083210Y-109806562D01*
X177035591Y-109854181D01*
X176987972Y-109877990D01*
X176892734Y-109877990D01*
X176845115Y-109854181D01*
X176797496Y-109806562D01*
X176773686Y-109711324D01*
X176773686Y-109544657D01*
X176797496Y-109449419D01*
X176845115Y-109401800D01*
X176892734Y-109377990D01*
X177416544Y-109377990D02*
X177464163Y-109377990D01*
X177511782Y-109401800D01*
X177535591Y-109425610D01*
X177559401Y-109473229D01*
X177583210Y-109568467D01*
X177583210Y-109687514D01*
X177559401Y-109782752D01*
X177535591Y-109830371D01*
X177511782Y-109854181D01*
X177464163Y-109877990D01*
X177416544Y-109877990D01*
X177368925Y-109854181D01*
X177345115Y-109830371D01*
X177321306Y-109782752D01*
X177297496Y-109687514D01*
X177297496Y-109568467D01*
X177321306Y-109473229D01*
X177345115Y-109425610D01*
X177368925Y-109401800D01*
X177416544Y-109377990D01*
X173519401Y-109877990D02*
X173519401Y-109377990D01*
X173709877Y-109377990D01*
X173757496Y-109401800D01*
X173781305Y-109425610D01*
X173805115Y-109473229D01*
X173805115Y-109544657D01*
X173781305Y-109592276D01*
X173757496Y-109616086D01*
X173709877Y-109639895D01*
X173519401Y-109639895D01*
X174019401Y-109877990D02*
X174019401Y-109377990D01*
X174352734Y-109377990D02*
X174447972Y-109377990D01*
X174495591Y-109401800D01*
X174543210Y-109449419D01*
X174567019Y-109544657D01*
X174567019Y-109711324D01*
X174543210Y-109806562D01*
X174495591Y-109854181D01*
X174447972Y-109877990D01*
X174352734Y-109877990D01*
X174305115Y-109854181D01*
X174257496Y-109806562D01*
X174233686Y-109711324D01*
X174233686Y-109544657D01*
X174257496Y-109449419D01*
X174305115Y-109401800D01*
X174352734Y-109377990D01*
X175043210Y-109877990D02*
X174757496Y-109877990D01*
X174900353Y-109877990D02*
X174900353Y-109377990D01*
X174852734Y-109449419D01*
X174805115Y-109497038D01*
X174757496Y-109520848D01*
X173888447Y-106861800D02*
X173840828Y-106837990D01*
X173769400Y-106837990D01*
X173697971Y-106861800D01*
X173650352Y-106909419D01*
X173626543Y-106957038D01*
X173602733Y-107052276D01*
X173602733Y-107123705D01*
X173626543Y-107218943D01*
X173650352Y-107266562D01*
X173697971Y-107314181D01*
X173769400Y-107337990D01*
X173817019Y-107337990D01*
X173888447Y-107314181D01*
X173912257Y-107290371D01*
X173912257Y-107123705D01*
X173817019Y-107123705D01*
X174126543Y-107337990D02*
X174126543Y-106837990D01*
X174412257Y-107337990D01*
X174412257Y-106837990D01*
X174650353Y-107337990D02*
X174650353Y-106837990D01*
X174769400Y-106837990D01*
X174840829Y-106861800D01*
X174888448Y-106909419D01*
X174912257Y-106957038D01*
X174936067Y-107052276D01*
X174936067Y-107123705D01*
X174912257Y-107218943D01*
X174888448Y-107266562D01*
X174840829Y-107314181D01*
X174769400Y-107337990D01*
X174650353Y-107337990D01*
X178682734Y-106837990D02*
X178849401Y-107337990D01*
X179016067Y-106837990D01*
X179468448Y-107290371D02*
X179444638Y-107314181D01*
X179373210Y-107337990D01*
X179325591Y-107337990D01*
X179254162Y-107314181D01*
X179206543Y-107266562D01*
X179182734Y-107218943D01*
X179158924Y-107123705D01*
X179158924Y-107052276D01*
X179182734Y-106957038D01*
X179206543Y-106909419D01*
X179254162Y-106861800D01*
X179325591Y-106837990D01*
X179373210Y-106837990D01*
X179444638Y-106861800D01*
X179468448Y-106885610D01*
X179968448Y-107290371D02*
X179944638Y-107314181D01*
X179873210Y-107337990D01*
X179825591Y-107337990D01*
X179754162Y-107314181D01*
X179706543Y-107266562D01*
X179682734Y-107218943D01*
X179658924Y-107123705D01*
X179658924Y-107052276D01*
X179682734Y-106957038D01*
X179706543Y-106909419D01*
X179754162Y-106861800D01*
X179825591Y-106837990D01*
X179873210Y-106837990D01*
X179944638Y-106861800D01*
X179968448Y-106885610D01*
X176428447Y-106861800D02*
X176380828Y-106837990D01*
X176309400Y-106837990D01*
X176237971Y-106861800D01*
X176190352Y-106909419D01*
X176166543Y-106957038D01*
X176142733Y-107052276D01*
X176142733Y-107123705D01*
X176166543Y-107218943D01*
X176190352Y-107266562D01*
X176237971Y-107314181D01*
X176309400Y-107337990D01*
X176357019Y-107337990D01*
X176428447Y-107314181D01*
X176452257Y-107290371D01*
X176452257Y-107123705D01*
X176357019Y-107123705D01*
X176666543Y-107337990D02*
X176666543Y-106837990D01*
X176952257Y-107337990D01*
X176952257Y-106837990D01*
X177190353Y-107337990D02*
X177190353Y-106837990D01*
X177309400Y-106837990D01*
X177380829Y-106861800D01*
X177428448Y-106909419D01*
X177452257Y-106957038D01*
X177476067Y-107052276D01*
X177476067Y-107123705D01*
X177452257Y-107218943D01*
X177428448Y-107266562D01*
X177380829Y-107314181D01*
X177309400Y-107337990D01*
X177190353Y-107337990D01*
X148202734Y-109377990D02*
X148369401Y-109877990D01*
X148536067Y-109377990D01*
X148988448Y-109830371D02*
X148964638Y-109854181D01*
X148893210Y-109877990D01*
X148845591Y-109877990D01*
X148774162Y-109854181D01*
X148726543Y-109806562D01*
X148702734Y-109758943D01*
X148678924Y-109663705D01*
X148678924Y-109592276D01*
X148702734Y-109497038D01*
X148726543Y-109449419D01*
X148774162Y-109401800D01*
X148845591Y-109377990D01*
X148893210Y-109377990D01*
X148964638Y-109401800D01*
X148988448Y-109425610D01*
X149488448Y-109830371D02*
X149464638Y-109854181D01*
X149393210Y-109877990D01*
X149345591Y-109877990D01*
X149274162Y-109854181D01*
X149226543Y-109806562D01*
X149202734Y-109758943D01*
X149178924Y-109663705D01*
X149178924Y-109592276D01*
X149202734Y-109497038D01*
X149226543Y-109449419D01*
X149274162Y-109401800D01*
X149345591Y-109377990D01*
X149393210Y-109377990D01*
X149464638Y-109401800D01*
X149488448Y-109425610D01*
X151028447Y-109401800D02*
X150980828Y-109377990D01*
X150909400Y-109377990D01*
X150837971Y-109401800D01*
X150790352Y-109449419D01*
X150766543Y-109497038D01*
X150742733Y-109592276D01*
X150742733Y-109663705D01*
X150766543Y-109758943D01*
X150790352Y-109806562D01*
X150837971Y-109854181D01*
X150909400Y-109877990D01*
X150957019Y-109877990D01*
X151028447Y-109854181D01*
X151052257Y-109830371D01*
X151052257Y-109663705D01*
X150957019Y-109663705D01*
X151266543Y-109877990D02*
X151266543Y-109377990D01*
X151552257Y-109877990D01*
X151552257Y-109377990D01*
X151790353Y-109877990D02*
X151790353Y-109377990D01*
X151909400Y-109377990D01*
X151980829Y-109401800D01*
X152028448Y-109449419D01*
X152052257Y-109497038D01*
X152076067Y-109592276D01*
X152076067Y-109663705D01*
X152052257Y-109758943D01*
X152028448Y-109806562D01*
X151980829Y-109854181D01*
X151909400Y-109877990D01*
X151790353Y-109877990D01*
X153568447Y-109401800D02*
X153520828Y-109377990D01*
X153449400Y-109377990D01*
X153377971Y-109401800D01*
X153330352Y-109449419D01*
X153306543Y-109497038D01*
X153282733Y-109592276D01*
X153282733Y-109663705D01*
X153306543Y-109758943D01*
X153330352Y-109806562D01*
X153377971Y-109854181D01*
X153449400Y-109877990D01*
X153497019Y-109877990D01*
X153568447Y-109854181D01*
X153592257Y-109830371D01*
X153592257Y-109663705D01*
X153497019Y-109663705D01*
X153806543Y-109877990D02*
X153806543Y-109377990D01*
X154092257Y-109877990D01*
X154092257Y-109377990D01*
X154330353Y-109877990D02*
X154330353Y-109377990D01*
X154449400Y-109377990D01*
X154520829Y-109401800D01*
X154568448Y-109449419D01*
X154592257Y-109497038D01*
X154616067Y-109592276D01*
X154616067Y-109663705D01*
X154592257Y-109758943D01*
X154568448Y-109806562D01*
X154520829Y-109854181D01*
X154449400Y-109877990D01*
X154330353Y-109877990D01*
X153675591Y-107337990D02*
X153508924Y-107099895D01*
X153389877Y-107337990D02*
X153389877Y-106837990D01*
X153580353Y-106837990D01*
X153627972Y-106861800D01*
X153651781Y-106885610D01*
X153675591Y-106933229D01*
X153675591Y-107004657D01*
X153651781Y-107052276D01*
X153627972Y-107076086D01*
X153580353Y-107099895D01*
X153389877Y-107099895D01*
X153866067Y-107314181D02*
X153937496Y-107337990D01*
X154056543Y-107337990D01*
X154104162Y-107314181D01*
X154127972Y-107290371D01*
X154151781Y-107242752D01*
X154151781Y-107195133D01*
X154127972Y-107147514D01*
X154104162Y-107123705D01*
X154056543Y-107099895D01*
X153961305Y-107076086D01*
X153913686Y-107052276D01*
X153889877Y-107028467D01*
X153866067Y-106980848D01*
X153866067Y-106933229D01*
X153889877Y-106885610D01*
X153913686Y-106861800D01*
X153961305Y-106837990D01*
X154080353Y-106837990D01*
X154151781Y-106861800D01*
X154294638Y-106837990D02*
X154580352Y-106837990D01*
X154437495Y-107337990D02*
X154437495Y-106837990D01*
X151326067Y-107337990D02*
X151159400Y-107099895D01*
X151040353Y-107337990D02*
X151040353Y-106837990D01*
X151230829Y-106837990D01*
X151278448Y-106861800D01*
X151302257Y-106885610D01*
X151326067Y-106933229D01*
X151326067Y-107004657D01*
X151302257Y-107052276D01*
X151278448Y-107076086D01*
X151230829Y-107099895D01*
X151040353Y-107099895D01*
X151492734Y-106837990D02*
X151826067Y-107337990D01*
X151826067Y-106837990D02*
X151492734Y-107337990D01*
X148488448Y-106837990D02*
X148774162Y-106837990D01*
X148631305Y-107337990D02*
X148631305Y-106837990D01*
X148893210Y-106837990D02*
X149226543Y-107337990D01*
X149226543Y-106837990D02*
X148893210Y-107337990D01*
D14*
X149563400Y-97320800D02*
X149563400Y-97090800D01*
X148683400Y-97090800D02*
X148683400Y-97320800D01*
X149523400Y-94540800D02*
X149523400Y-94790800D01*
X148723400Y-94790800D02*
X148723400Y-94540800D01*
D15*
G36*
X164975570Y-107745173D02*
X165016390Y-107761860D01*
X165149957Y-107784018D01*
X165363517Y-107795909D01*
X165604948Y-107795070D01*
X165963253Y-107813646D01*
X166242350Y-107905889D01*
X166475734Y-108086933D01*
X166611811Y-108249931D01*
X166710571Y-108469968D01*
X166750569Y-108749902D01*
X166731715Y-109038176D01*
X166653920Y-109283230D01*
X166613726Y-109347944D01*
X166348505Y-109608572D01*
X166031169Y-109766868D01*
X165686233Y-109815619D01*
X165338213Y-109747612D01*
X165302995Y-109733616D01*
X165185278Y-109686251D01*
X165105780Y-109674436D01*
X165051815Y-109716783D01*
X165010694Y-109831903D01*
X164969731Y-110038405D01*
X164928332Y-110283189D01*
X164846634Y-110769400D01*
X164195143Y-110769400D01*
X164495145Y-109402127D01*
X164515547Y-109308900D01*
X166068240Y-109308900D01*
X166228072Y-109308900D01*
X166358560Y-109292128D01*
X166413399Y-109261275D01*
X166418450Y-109167875D01*
X166401272Y-109081098D01*
X166370868Y-109001041D01*
X166327459Y-109004081D01*
X166241361Y-109097847D01*
X166215945Y-109128723D01*
X166068240Y-109308900D01*
X164515547Y-109308900D01*
X164605418Y-108898256D01*
X164691704Y-108505053D01*
X164712358Y-108413187D01*
X165059160Y-108413187D01*
X165083851Y-108647445D01*
X165105397Y-108734809D01*
X165134490Y-108821523D01*
X165166188Y-108821391D01*
X165218227Y-108722070D01*
X165255709Y-108635259D01*
X165390190Y-108635259D01*
X165418295Y-108804036D01*
X165521889Y-108908672D01*
X165663126Y-108931517D01*
X165804156Y-108854924D01*
X165820999Y-108836145D01*
X165873807Y-108702589D01*
X165876399Y-108598020D01*
X165839053Y-108497025D01*
X165740162Y-108456662D01*
X165633400Y-108451650D01*
X165481438Y-108464349D01*
X165413475Y-108523656D01*
X165390190Y-108635259D01*
X165255709Y-108635259D01*
X165258823Y-108628047D01*
X165377187Y-108428243D01*
X165524210Y-108283474D01*
X165549568Y-108268055D01*
X165728650Y-108170984D01*
X165538150Y-108169309D01*
X165274599Y-108189422D01*
X165118839Y-108265614D01*
X165059160Y-108413187D01*
X164712358Y-108413187D01*
X164758187Y-108209349D01*
X164809052Y-107997975D01*
X164848484Y-107857764D01*
X164880666Y-107775547D01*
X164909785Y-107738155D01*
X164940025Y-107732419D01*
X164975570Y-107745173D01*
X164975570Y-107745173D01*
G37*
X164975570Y-107745173D02*
X165016390Y-107761860D01*
X165149957Y-107784018D01*
X165363517Y-107795909D01*
X165604948Y-107795070D01*
X165963253Y-107813646D01*
X166242350Y-107905889D01*
X166475734Y-108086933D01*
X166611811Y-108249931D01*
X166710571Y-108469968D01*
X166750569Y-108749902D01*
X166731715Y-109038176D01*
X166653920Y-109283230D01*
X166613726Y-109347944D01*
X166348505Y-109608572D01*
X166031169Y-109766868D01*
X165686233Y-109815619D01*
X165338213Y-109747612D01*
X165302995Y-109733616D01*
X165185278Y-109686251D01*
X165105780Y-109674436D01*
X165051815Y-109716783D01*
X165010694Y-109831903D01*
X164969731Y-110038405D01*
X164928332Y-110283189D01*
X164846634Y-110769400D01*
X164195143Y-110769400D01*
X164495145Y-109402127D01*
X164515547Y-109308900D01*
X166068240Y-109308900D01*
X166228072Y-109308900D01*
X166358560Y-109292128D01*
X166413399Y-109261275D01*
X166418450Y-109167875D01*
X166401272Y-109081098D01*
X166370868Y-109001041D01*
X166327459Y-109004081D01*
X166241361Y-109097847D01*
X166215945Y-109128723D01*
X166068240Y-109308900D01*
X164515547Y-109308900D01*
X164605418Y-108898256D01*
X164691704Y-108505053D01*
X164712358Y-108413187D01*
X165059160Y-108413187D01*
X165083851Y-108647445D01*
X165105397Y-108734809D01*
X165134490Y-108821523D01*
X165166188Y-108821391D01*
X165218227Y-108722070D01*
X165255709Y-108635259D01*
X165390190Y-108635259D01*
X165418295Y-108804036D01*
X165521889Y-108908672D01*
X165663126Y-108931517D01*
X165804156Y-108854924D01*
X165820999Y-108836145D01*
X165873807Y-108702589D01*
X165876399Y-108598020D01*
X165839053Y-108497025D01*
X165740162Y-108456662D01*
X165633400Y-108451650D01*
X165481438Y-108464349D01*
X165413475Y-108523656D01*
X165390190Y-108635259D01*
X165255709Y-108635259D01*
X165258823Y-108628047D01*
X165377187Y-108428243D01*
X165524210Y-108283474D01*
X165549568Y-108268055D01*
X165728650Y-108170984D01*
X165538150Y-108169309D01*
X165274599Y-108189422D01*
X165118839Y-108265614D01*
X165059160Y-108413187D01*
X164712358Y-108413187D01*
X164758187Y-108209349D01*
X164809052Y-107997975D01*
X164848484Y-107857764D01*
X164880666Y-107775547D01*
X164909785Y-107738155D01*
X164940025Y-107732419D01*
X164975570Y-107745173D01*
G36*
X159908152Y-107978022D02*
X159983367Y-107995099D01*
X160018509Y-108040443D01*
X160009775Y-108127867D01*
X159953364Y-108271185D01*
X159845472Y-108484211D01*
X159682298Y-108780757D01*
X159472781Y-109152125D01*
X158952807Y-110070900D01*
X158673603Y-110070900D01*
X158505407Y-110064254D01*
X158405946Y-110047481D01*
X158394400Y-110038188D01*
X158423279Y-109970085D01*
X158498613Y-109824781D01*
X158593101Y-109653396D01*
X158791802Y-109301317D01*
X158664891Y-108664934D01*
X158606374Y-108358649D01*
X158581301Y-108156645D01*
X158596967Y-108038928D01*
X158660665Y-107985500D01*
X158779687Y-107976366D01*
X158912230Y-107986800D01*
X159065340Y-108020809D01*
X159132686Y-108103166D01*
X159145901Y-108165900D01*
X159187215Y-108330232D01*
X159252420Y-108370408D01*
X159344395Y-108286835D01*
X159399601Y-108201692D01*
X159502586Y-108054090D01*
X159614009Y-107989713D01*
X159792051Y-107975403D01*
X159796664Y-107975400D01*
X159908152Y-107978022D01*
X159908152Y-107978022D01*
G37*
X159908152Y-107978022D02*
X159983367Y-107995099D01*
X160018509Y-108040443D01*
X160009775Y-108127867D01*
X159953364Y-108271185D01*
X159845472Y-108484211D01*
X159682298Y-108780757D01*
X159472781Y-109152125D01*
X158952807Y-110070900D01*
X158673603Y-110070900D01*
X158505407Y-110064254D01*
X158405946Y-110047481D01*
X158394400Y-110038188D01*
X158423279Y-109970085D01*
X158498613Y-109824781D01*
X158593101Y-109653396D01*
X158791802Y-109301317D01*
X158664891Y-108664934D01*
X158606374Y-108358649D01*
X158581301Y-108156645D01*
X158596967Y-108038928D01*
X158660665Y-107985500D01*
X158779687Y-107976366D01*
X158912230Y-107986800D01*
X159065340Y-108020809D01*
X159132686Y-108103166D01*
X159145901Y-108165900D01*
X159187215Y-108330232D01*
X159252420Y-108370408D01*
X159344395Y-108286835D01*
X159399601Y-108201692D01*
X159502586Y-108054090D01*
X159614009Y-107989713D01*
X159792051Y-107975403D01*
X159796664Y-107975400D01*
X159908152Y-107978022D01*
G36*
X169936576Y-107979875D02*
X170038086Y-108043508D01*
X170179660Y-108192080D01*
X170196496Y-108317326D01*
X170088474Y-108419711D01*
X169923353Y-108482363D01*
X169641306Y-108561331D01*
X169828103Y-108718510D01*
X169977494Y-108897708D01*
X170014900Y-109063698D01*
X169966457Y-109330016D01*
X169837404Y-109550505D01*
X169652156Y-109711285D01*
X169435126Y-109798476D01*
X169210727Y-109798198D01*
X169003373Y-109696569D01*
X168964263Y-109661036D01*
X168832754Y-109485822D01*
X168823539Y-109343683D01*
X168936956Y-109232243D01*
X169031721Y-109190158D01*
X169142361Y-109150150D01*
X169316400Y-109150150D01*
X169348150Y-109181900D01*
X169379900Y-109150150D01*
X169348150Y-109118400D01*
X169316400Y-109150150D01*
X169142361Y-109150150D01*
X169255042Y-109109404D01*
X169126971Y-108946588D01*
X169024660Y-108771012D01*
X169009058Y-108588196D01*
X169077538Y-108355124D01*
X169089147Y-108326827D01*
X169239455Y-108106522D01*
X169452662Y-107968733D01*
X169695970Y-107923253D01*
X169936576Y-107979875D01*
X169936576Y-107979875D01*
G37*
X169936576Y-107979875D02*
X170038086Y-108043508D01*
X170179660Y-108192080D01*
X170196496Y-108317326D01*
X170088474Y-108419711D01*
X169923353Y-108482363D01*
X169641306Y-108561331D01*
X169828103Y-108718510D01*
X169977494Y-108897708D01*
X170014900Y-109063698D01*
X169966457Y-109330016D01*
X169837404Y-109550505D01*
X169652156Y-109711285D01*
X169435126Y-109798476D01*
X169210727Y-109798198D01*
X169003373Y-109696569D01*
X168964263Y-109661036D01*
X168832754Y-109485822D01*
X168823539Y-109343683D01*
X168936956Y-109232243D01*
X169031721Y-109190158D01*
X169142361Y-109150150D01*
X169316400Y-109150150D01*
X169348150Y-109181900D01*
X169379900Y-109150150D01*
X169348150Y-109118400D01*
X169316400Y-109150150D01*
X169142361Y-109150150D01*
X169255042Y-109109404D01*
X169126971Y-108946588D01*
X169024660Y-108771012D01*
X169009058Y-108588196D01*
X169077538Y-108355124D01*
X169089147Y-108326827D01*
X169239455Y-108106522D01*
X169452662Y-107968733D01*
X169695970Y-107923253D01*
X169936576Y-107979875D01*
G36*
X168765859Y-107938339D02*
X168902144Y-107955108D01*
X168935400Y-107972042D01*
X168922683Y-108052530D01*
X168888695Y-108227575D01*
X168839678Y-108467748D01*
X168781873Y-108743622D01*
X168721522Y-109025769D01*
X168664868Y-109284762D01*
X168618151Y-109491173D01*
X168587614Y-109615575D01*
X168584496Y-109626400D01*
X168542668Y-109673263D01*
X168437088Y-109704721D01*
X168246841Y-109724345D01*
X167951016Y-109735708D01*
X167943749Y-109735879D01*
X167331908Y-109750108D01*
X167117654Y-109535854D01*
X166974104Y-109365253D01*
X166912966Y-109202477D01*
X166904794Y-109077125D01*
X166930637Y-108928544D01*
X167633854Y-108928544D01*
X167704417Y-109028573D01*
X167845475Y-109042716D01*
X167967466Y-109006467D01*
X168011233Y-108908947D01*
X168014650Y-108832650D01*
X167990763Y-108686994D01*
X167904585Y-108627297D01*
X167882093Y-108623210D01*
X167728456Y-108653787D01*
X167635377Y-108769149D01*
X167633854Y-108928544D01*
X166930637Y-108928544D01*
X166964620Y-108733172D01*
X167124654Y-108406629D01*
X167361505Y-108144083D01*
X167380981Y-108128829D01*
X167497758Y-108046435D01*
X167609709Y-107992668D01*
X167748888Y-107960469D01*
X167947350Y-107942781D01*
X168237150Y-107932545D01*
X168276893Y-107931548D01*
X168548655Y-107929945D01*
X168765859Y-107938339D01*
X168765859Y-107938339D01*
G37*
X168765859Y-107938339D02*
X168902144Y-107955108D01*
X168935400Y-107972042D01*
X168922683Y-108052530D01*
X168888695Y-108227575D01*
X168839678Y-108467748D01*
X168781873Y-108743622D01*
X168721522Y-109025769D01*
X168664868Y-109284762D01*
X168618151Y-109491173D01*
X168587614Y-109615575D01*
X168584496Y-109626400D01*
X168542668Y-109673263D01*
X168437088Y-109704721D01*
X168246841Y-109724345D01*
X167951016Y-109735708D01*
X167943749Y-109735879D01*
X167331908Y-109750108D01*
X167117654Y-109535854D01*
X166974104Y-109365253D01*
X166912966Y-109202477D01*
X166904794Y-109077125D01*
X166930637Y-108928544D01*
X167633854Y-108928544D01*
X167704417Y-109028573D01*
X167845475Y-109042716D01*
X167967466Y-109006467D01*
X168011233Y-108908947D01*
X168014650Y-108832650D01*
X167990763Y-108686994D01*
X167904585Y-108627297D01*
X167882093Y-108623210D01*
X167728456Y-108653787D01*
X167635377Y-108769149D01*
X167633854Y-108928544D01*
X166930637Y-108928544D01*
X166964620Y-108733172D01*
X167124654Y-108406629D01*
X167361505Y-108144083D01*
X167380981Y-108128829D01*
X167497758Y-108046435D01*
X167609709Y-107992668D01*
X167748888Y-107960469D01*
X167947350Y-107942781D01*
X168237150Y-107932545D01*
X168276893Y-107931548D01*
X168548655Y-107929945D01*
X168765859Y-107938339D01*
G36*
X171085340Y-107945385D02*
X171265939Y-108022440D01*
X171379507Y-108162087D01*
X171399895Y-108242140D01*
X171398155Y-108356443D01*
X171336076Y-108418397D01*
X171180892Y-108460255D01*
X171177645Y-108460903D01*
X171005483Y-108488852D01*
X170886007Y-108496948D01*
X170872150Y-108495332D01*
X170873590Y-108518660D01*
X170956693Y-108593776D01*
X170988233Y-108618383D01*
X171179179Y-108817364D01*
X171246492Y-109034026D01*
X171196928Y-109269525D01*
X171040907Y-109520431D01*
X170833967Y-109680876D01*
X170600339Y-109741887D01*
X170364256Y-109694491D01*
X170245713Y-109621791D01*
X170147080Y-109506825D01*
X170086633Y-109368767D01*
X170074240Y-109247826D01*
X170119768Y-109184212D01*
X170137766Y-109181900D01*
X170236937Y-109161014D01*
X170269473Y-109150150D01*
X170586400Y-109150150D01*
X170618150Y-109181900D01*
X170649900Y-109150150D01*
X170618150Y-109118400D01*
X170586400Y-109150150D01*
X170269473Y-109150150D01*
X170361154Y-109119538D01*
X170525177Y-109057177D01*
X170389666Y-108921666D01*
X170296746Y-108746893D01*
X170286266Y-108522419D01*
X170354152Y-108291516D01*
X170464350Y-108128880D01*
X170652246Y-107994695D01*
X170870010Y-107934834D01*
X171085340Y-107945385D01*
X171085340Y-107945385D01*
G37*
X171085340Y-107945385D02*
X171265939Y-108022440D01*
X171379507Y-108162087D01*
X171399895Y-108242140D01*
X171398155Y-108356443D01*
X171336076Y-108418397D01*
X171180892Y-108460255D01*
X171177645Y-108460903D01*
X171005483Y-108488852D01*
X170886007Y-108496948D01*
X170872150Y-108495332D01*
X170873590Y-108518660D01*
X170956693Y-108593776D01*
X170988233Y-108618383D01*
X171179179Y-108817364D01*
X171246492Y-109034026D01*
X171196928Y-109269525D01*
X171040907Y-109520431D01*
X170833967Y-109680876D01*
X170600339Y-109741887D01*
X170364256Y-109694491D01*
X170245713Y-109621791D01*
X170147080Y-109506825D01*
X170086633Y-109368767D01*
X170074240Y-109247826D01*
X170119768Y-109184212D01*
X170137766Y-109181900D01*
X170236937Y-109161014D01*
X170269473Y-109150150D01*
X170586400Y-109150150D01*
X170618150Y-109181900D01*
X170649900Y-109150150D01*
X170618150Y-109118400D01*
X170586400Y-109150150D01*
X170269473Y-109150150D01*
X170361154Y-109119538D01*
X170525177Y-109057177D01*
X170389666Y-108921666D01*
X170296746Y-108746893D01*
X170286266Y-108522419D01*
X170354152Y-108291516D01*
X170464350Y-108128880D01*
X170652246Y-107994695D01*
X170870010Y-107934834D01*
X171085340Y-107945385D01*
G36*
X161579336Y-107913784D02*
X161647443Y-107932800D01*
X161680862Y-107988986D01*
X161681985Y-108102385D01*
X161653201Y-108293036D01*
X161596903Y-108580980D01*
X161569912Y-108714534D01*
X161497855Y-109073190D01*
X161445045Y-109325528D01*
X161403367Y-109489248D01*
X161364706Y-109582049D01*
X161320945Y-109621631D01*
X161263969Y-109625694D01*
X161185662Y-109611937D01*
X161160432Y-109607564D01*
X160939445Y-109597437D01*
X160734974Y-109620472D01*
X160518801Y-109638163D01*
X160319269Y-109614572D01*
X160073817Y-109493474D01*
X159920973Y-109289068D01*
X159866894Y-109011083D01*
X159871537Y-108907294D01*
X159900877Y-108785309D01*
X160492157Y-108785309D01*
X160525691Y-108908706D01*
X160587016Y-108968867D01*
X160730189Y-109013217D01*
X160856721Y-108962610D01*
X160922625Y-108841722D01*
X160922378Y-108780728D01*
X160875844Y-108677860D01*
X160753004Y-108643082D01*
X160713019Y-108642150D01*
X160559361Y-108684112D01*
X160492157Y-108785309D01*
X159900877Y-108785309D01*
X159949021Y-108585153D01*
X160123751Y-108319106D01*
X160368738Y-108112618D01*
X160534120Y-108020218D01*
X160705558Y-107984870D01*
X160918525Y-107990843D01*
X161104320Y-107996724D01*
X161225343Y-107983231D01*
X161251900Y-107964749D01*
X161307753Y-107929808D01*
X161445083Y-107912353D01*
X161474150Y-107911900D01*
X161579336Y-107913784D01*
X161579336Y-107913784D01*
G37*
X161579336Y-107913784D02*
X161647443Y-107932800D01*
X161680862Y-107988986D01*
X161681985Y-108102385D01*
X161653201Y-108293036D01*
X161596903Y-108580980D01*
X161569912Y-108714534D01*
X161497855Y-109073190D01*
X161445045Y-109325528D01*
X161403367Y-109489248D01*
X161364706Y-109582049D01*
X161320945Y-109621631D01*
X161263969Y-109625694D01*
X161185662Y-109611937D01*
X161160432Y-109607564D01*
X160939445Y-109597437D01*
X160734974Y-109620472D01*
X160518801Y-109638163D01*
X160319269Y-109614572D01*
X160073817Y-109493474D01*
X159920973Y-109289068D01*
X159866894Y-109011083D01*
X159871537Y-108907294D01*
X159900877Y-108785309D01*
X160492157Y-108785309D01*
X160525691Y-108908706D01*
X160587016Y-108968867D01*
X160730189Y-109013217D01*
X160856721Y-108962610D01*
X160922625Y-108841722D01*
X160922378Y-108780728D01*
X160875844Y-108677860D01*
X160753004Y-108643082D01*
X160713019Y-108642150D01*
X160559361Y-108684112D01*
X160492157Y-108785309D01*
X159900877Y-108785309D01*
X159949021Y-108585153D01*
X160123751Y-108319106D01*
X160368738Y-108112618D01*
X160534120Y-108020218D01*
X160705558Y-107984870D01*
X160918525Y-107990843D01*
X161104320Y-107996724D01*
X161225343Y-107983231D01*
X161251900Y-107964749D01*
X161307753Y-107929808D01*
X161445083Y-107912353D01*
X161474150Y-107911900D01*
X161579336Y-107913784D01*
G36*
X164125587Y-107926559D02*
X164344148Y-108070462D01*
X164385498Y-108119182D01*
X164450790Y-108217672D01*
X164482016Y-108314800D01*
X164482151Y-108447839D01*
X164454170Y-108654063D01*
X164436662Y-108760092D01*
X164388210Y-109027946D01*
X164336922Y-109279444D01*
X164294292Y-109458610D01*
X164249344Y-109596214D01*
X164187566Y-109664382D01*
X164069089Y-109687485D01*
X163915915Y-109689900D01*
X163735554Y-109681248D01*
X163621387Y-109659150D01*
X163600586Y-109642275D01*
X163613741Y-109561076D01*
X163649177Y-109391347D01*
X163699551Y-109168057D01*
X163705613Y-109142050D01*
X163765537Y-108838428D01*
X163775546Y-108641059D01*
X163733905Y-108538688D01*
X163638878Y-108520062D01*
X163610653Y-108526081D01*
X163533479Y-108576869D01*
X163467625Y-108699529D01*
X163401983Y-108917390D01*
X163378680Y-109013276D01*
X163322045Y-109252665D01*
X163273521Y-109453625D01*
X163243101Y-109574804D01*
X163242032Y-109578775D01*
X163192777Y-109648845D01*
X163074319Y-109682503D01*
X162898620Y-109689900D01*
X162718908Y-109678659D01*
X162605615Y-109649955D01*
X162585400Y-109628204D01*
X162598270Y-109540201D01*
X162632326Y-109363413D01*
X162680736Y-109132926D01*
X162690968Y-109086072D01*
X162744081Y-108809666D01*
X162757701Y-108634876D01*
X162733051Y-108543023D01*
X162726986Y-108536086D01*
X162622559Y-108485682D01*
X162526559Y-108554841D01*
X162436957Y-108746174D01*
X162365400Y-109002177D01*
X162308124Y-109244106D01*
X162258992Y-109447615D01*
X162227812Y-109572128D01*
X162226032Y-109578775D01*
X162176777Y-109648845D01*
X162058319Y-109682503D01*
X161882620Y-109689900D01*
X161666952Y-109674357D01*
X161574398Y-109627726D01*
X161570497Y-109610525D01*
X161584950Y-109513358D01*
X161622607Y-109327892D01*
X161676723Y-109082616D01*
X161740551Y-108806020D01*
X161807344Y-108526596D01*
X161870356Y-108272833D01*
X161922841Y-108073222D01*
X161958051Y-107956253D01*
X161966519Y-107938114D01*
X162052044Y-107912665D01*
X162227109Y-107893548D01*
X162454367Y-107881685D01*
X162696472Y-107877996D01*
X162916080Y-107883405D01*
X163075843Y-107898831D01*
X163119280Y-107909668D01*
X163305554Y-107932641D01*
X163526841Y-107900230D01*
X163842886Y-107867198D01*
X164125587Y-107926559D01*
X164125587Y-107926559D01*
G37*
X164125587Y-107926559D02*
X164344148Y-108070462D01*
X164385498Y-108119182D01*
X164450790Y-108217672D01*
X164482016Y-108314800D01*
X164482151Y-108447839D01*
X164454170Y-108654063D01*
X164436662Y-108760092D01*
X164388210Y-109027946D01*
X164336922Y-109279444D01*
X164294292Y-109458610D01*
X164249344Y-109596214D01*
X164187566Y-109664382D01*
X164069089Y-109687485D01*
X163915915Y-109689900D01*
X163735554Y-109681248D01*
X163621387Y-109659150D01*
X163600586Y-109642275D01*
X163613741Y-109561076D01*
X163649177Y-109391347D01*
X163699551Y-109168057D01*
X163705613Y-109142050D01*
X163765537Y-108838428D01*
X163775546Y-108641059D01*
X163733905Y-108538688D01*
X163638878Y-108520062D01*
X163610653Y-108526081D01*
X163533479Y-108576869D01*
X163467625Y-108699529D01*
X163401983Y-108917390D01*
X163378680Y-109013276D01*
X163322045Y-109252665D01*
X163273521Y-109453625D01*
X163243101Y-109574804D01*
X163242032Y-109578775D01*
X163192777Y-109648845D01*
X163074319Y-109682503D01*
X162898620Y-109689900D01*
X162718908Y-109678659D01*
X162605615Y-109649955D01*
X162585400Y-109628204D01*
X162598270Y-109540201D01*
X162632326Y-109363413D01*
X162680736Y-109132926D01*
X162690968Y-109086072D01*
X162744081Y-108809666D01*
X162757701Y-108634876D01*
X162733051Y-108543023D01*
X162726986Y-108536086D01*
X162622559Y-108485682D01*
X162526559Y-108554841D01*
X162436957Y-108746174D01*
X162365400Y-109002177D01*
X162308124Y-109244106D01*
X162258992Y-109447615D01*
X162227812Y-109572128D01*
X162226032Y-109578775D01*
X162176777Y-109648845D01*
X162058319Y-109682503D01*
X161882620Y-109689900D01*
X161666952Y-109674357D01*
X161574398Y-109627726D01*
X161570497Y-109610525D01*
X161584950Y-109513358D01*
X161622607Y-109327892D01*
X161676723Y-109082616D01*
X161740551Y-108806020D01*
X161807344Y-108526596D01*
X161870356Y-108272833D01*
X161922841Y-108073222D01*
X161958051Y-107956253D01*
X161966519Y-107938114D01*
X162052044Y-107912665D01*
X162227109Y-107893548D01*
X162454367Y-107881685D01*
X162696472Y-107877996D01*
X162916080Y-107883405D01*
X163075843Y-107898831D01*
X163119280Y-107909668D01*
X163305554Y-107932641D01*
X163526841Y-107900230D01*
X163842886Y-107867198D01*
X164125587Y-107926559D01*
G36*
X158101524Y-108047559D02*
X158255241Y-108127406D01*
X158359693Y-108247726D01*
X158409919Y-108377698D01*
X158418034Y-108564006D01*
X158382401Y-108825109D01*
X158301382Y-109179463D01*
X158264681Y-109318995D01*
X158212208Y-109476475D01*
X158138580Y-109545655D01*
X157996892Y-109562599D01*
X157947452Y-109562900D01*
X157814754Y-109559727D01*
X157737539Y-109534217D01*
X157708837Y-109462384D01*
X157721677Y-109320242D01*
X157769091Y-109083804D01*
X157785715Y-109006285D01*
X157822463Y-108796977D01*
X157834474Y-108641733D01*
X157820965Y-108577454D01*
X157708626Y-108568018D01*
X157610024Y-108663737D01*
X157546818Y-108843012D01*
X157545195Y-108852444D01*
X157499206Y-109083222D01*
X157441454Y-109317691D01*
X157439472Y-109324775D01*
X157385328Y-109479062D01*
X157309203Y-109546493D01*
X157163532Y-109562678D01*
X157121415Y-109562900D01*
X156943826Y-109544186D01*
X156870820Y-109491691D01*
X156869911Y-109483525D01*
X156881921Y-109391652D01*
X156914797Y-109204840D01*
X156963165Y-108952406D01*
X157008317Y-108728196D01*
X157147212Y-108052242D01*
X157564431Y-108023691D01*
X157880511Y-108015595D01*
X158101524Y-108047559D01*
X158101524Y-108047559D01*
G37*
X158101524Y-108047559D02*
X158255241Y-108127406D01*
X158359693Y-108247726D01*
X158409919Y-108377698D01*
X158418034Y-108564006D01*
X158382401Y-108825109D01*
X158301382Y-109179463D01*
X158264681Y-109318995D01*
X158212208Y-109476475D01*
X158138580Y-109545655D01*
X157996892Y-109562599D01*
X157947452Y-109562900D01*
X157814754Y-109559727D01*
X157737539Y-109534217D01*
X157708837Y-109462384D01*
X157721677Y-109320242D01*
X157769091Y-109083804D01*
X157785715Y-109006285D01*
X157822463Y-108796977D01*
X157834474Y-108641733D01*
X157820965Y-108577454D01*
X157708626Y-108568018D01*
X157610024Y-108663737D01*
X157546818Y-108843012D01*
X157545195Y-108852444D01*
X157499206Y-109083222D01*
X157441454Y-109317691D01*
X157439472Y-109324775D01*
X157385328Y-109479062D01*
X157309203Y-109546493D01*
X157163532Y-109562678D01*
X157121415Y-109562900D01*
X156943826Y-109544186D01*
X156870820Y-109491691D01*
X156869911Y-109483525D01*
X156881921Y-109391652D01*
X156914797Y-109204840D01*
X156963165Y-108952406D01*
X157008317Y-108728196D01*
X157147212Y-108052242D01*
X157564431Y-108023691D01*
X157880511Y-108015595D01*
X158101524Y-108047559D01*
D14*
X161163000Y-94234000D02*
X160401000Y-94234000D01*
X160401000Y-94234000D02*
X161163000Y-94996000D01*
X161163000Y-94996000D02*
X161163000Y-94234000D01*
%LPC*%
D16*
X149123400Y-96950800D03*
X149123400Y-97460800D03*
D17*
X149123400Y-94940800D03*
X149123400Y-94390800D03*
D18*
X153949400Y-108381800D03*
X151409400Y-108381800D03*
X148869400Y-108381800D03*
X179349400Y-108381800D03*
X176809400Y-108381800D03*
X174269400Y-108381800D03*
X174269400Y-110921800D03*
X176809400Y-110921800D03*
X179349400Y-110921800D03*
X148869400Y-110921800D03*
X151409400Y-110921800D03*
X153949400Y-110921800D03*
D19*
X161831000Y-93344000D03*
D20*
X161306000Y-93369000D03*
X160806000Y-93369000D03*
X160306000Y-93369000D03*
X159806000Y-93369000D03*
X159306000Y-93369000D03*
X158806000Y-93369000D03*
X158306000Y-93369000D03*
X157806000Y-93369000D03*
X157306000Y-93369000D03*
X156806000Y-93369000D03*
D19*
X156281000Y-93344000D03*
D21*
X156211000Y-93964000D03*
X156211000Y-94464000D03*
X156211000Y-96964000D03*
X156211000Y-94964000D03*
X156211000Y-95464000D03*
X156211000Y-95964000D03*
X156211000Y-96464000D03*
X156211000Y-97464000D03*
X156211000Y-97964000D03*
X156211000Y-98464000D03*
D19*
X156281000Y-99084000D03*
D20*
X156806000Y-99059000D03*
X157306000Y-99059000D03*
X157806000Y-99059000D03*
X158306000Y-99059000D03*
X158806000Y-99059000D03*
X159306000Y-99059000D03*
X159806000Y-99059000D03*
X160306000Y-99059000D03*
X160806000Y-99059000D03*
X161306000Y-99059000D03*
D19*
X161831000Y-99084000D03*
D21*
X161901000Y-98464000D03*
X161901000Y-97964000D03*
X161901000Y-97464000D03*
X161901000Y-96964000D03*
X161901000Y-96464000D03*
X161901000Y-95964000D03*
X161901000Y-95464000D03*
X161901000Y-94964000D03*
X161901000Y-94464000D03*
X161901000Y-93964000D03*
D22*
X159606000Y-95664000D03*
X158506000Y-95664000D03*
X158506000Y-96764000D03*
X159606000Y-96764000D03*
M02*
