G04 #@! TF.FileFunction,Legend,Top*
%FSLAX46Y46*%
G04 Gerber Fmt 4.6, Leading zero omitted, Abs format (unit mm)*
G04 Created by KiCad (PCBNEW 4.0.2+dfsg1-stable) date 2016年12月08日 20時15分25秒*
%MOMM*%
G01*
G04 APERTURE LIST*
%ADD10C,0.100000*%
%ADD11C,0.500000*%
%ADD12C,0.250000*%
%ADD13C,0.125000*%
%ADD14C,0.010000*%
%ADD15C,0.110000*%
%ADD16C,2.100000*%
%ADD17R,1.300000X0.900000*%
%ADD18R,1.150000X1.200000*%
%ADD19R,0.700000X0.900000*%
%ADD20R,0.650000X0.950000*%
%ADD21R,0.950000X0.650000*%
%ADD22R,0.700000X0.700000*%
G04 APERTURE END LIST*
D10*
X160150171Y-94697744D02*
X160131124Y-94754887D01*
X160112076Y-94773935D01*
X160073981Y-94792983D01*
X160016838Y-94792983D01*
X159978743Y-94773935D01*
X159959695Y-94754887D01*
X159940648Y-94716792D01*
X159940648Y-94564411D01*
X160340648Y-94564411D01*
X160340648Y-94697744D01*
X160321600Y-94735840D01*
X160302552Y-94754887D01*
X160264457Y-94773935D01*
X160226362Y-94773935D01*
X160188267Y-94754887D01*
X160169219Y-94735840D01*
X160150171Y-94697744D01*
X160150171Y-94564411D01*
X159978743Y-95192983D02*
X159959695Y-95173935D01*
X159940648Y-95116792D01*
X159940648Y-95078697D01*
X159959695Y-95021554D01*
X159997790Y-94983459D01*
X160035886Y-94964411D01*
X160112076Y-94945363D01*
X160169219Y-94945363D01*
X160245410Y-94964411D01*
X160283505Y-94983459D01*
X160321600Y-95021554D01*
X160340648Y-95078697D01*
X160340648Y-95116792D01*
X160321600Y-95173935D01*
X160302552Y-95192983D01*
X159940648Y-95364411D02*
X160340648Y-95364411D01*
X160054933Y-95497744D01*
X160340648Y-95631078D01*
X159940648Y-95631078D01*
X160302552Y-95802506D02*
X160321600Y-95821554D01*
X160340648Y-95859649D01*
X160340648Y-95954887D01*
X160321600Y-95992983D01*
X160302552Y-96012030D01*
X160264457Y-96031078D01*
X160226362Y-96031078D01*
X160169219Y-96012030D01*
X159940648Y-95783459D01*
X159940648Y-96031078D01*
X160340648Y-96278697D02*
X160340648Y-96316792D01*
X160321600Y-96354887D01*
X160302552Y-96373935D01*
X160264457Y-96392982D01*
X160188267Y-96412030D01*
X160093029Y-96412030D01*
X160016838Y-96392982D01*
X159978743Y-96373935D01*
X159959695Y-96354887D01*
X159940648Y-96316792D01*
X159940648Y-96278697D01*
X159959695Y-96240601D01*
X159978743Y-96221554D01*
X160016838Y-96202506D01*
X160093029Y-96183458D01*
X160188267Y-96183458D01*
X160264457Y-96202506D01*
X160302552Y-96221554D01*
X160321600Y-96240601D01*
X160340648Y-96278697D01*
X160340648Y-96545363D02*
X160340648Y-96812030D01*
X159940648Y-96640601D01*
X160340648Y-96926315D02*
X160340648Y-97173934D01*
X160188267Y-97040601D01*
X160188267Y-97097743D01*
X160169219Y-97135839D01*
X160150171Y-97154886D01*
X160112076Y-97173934D01*
X160016838Y-97173934D01*
X159978743Y-97154886D01*
X159959695Y-97135839D01*
X159940648Y-97097743D01*
X159940648Y-96983458D01*
X159959695Y-96945362D01*
X159978743Y-96926315D01*
X160340648Y-97307267D02*
X160340648Y-97573934D01*
X159940648Y-97402505D01*
X159959695Y-97707266D02*
X159940648Y-97764409D01*
X159940648Y-97859647D01*
X159959695Y-97897743D01*
X159978743Y-97916790D01*
X160016838Y-97935838D01*
X160054933Y-97935838D01*
X160093029Y-97916790D01*
X160112076Y-97897743D01*
X160131124Y-97859647D01*
X160150171Y-97783457D01*
X160169219Y-97745362D01*
X160188267Y-97726314D01*
X160226362Y-97707266D01*
X160264457Y-97707266D01*
X160302552Y-97726314D01*
X160321600Y-97745362D01*
X160340648Y-97783457D01*
X160340648Y-97878695D01*
X160321600Y-97935838D01*
D11*
X149042735Y-104568467D02*
X149042735Y-101768467D01*
X149042735Y-103101800D02*
X150642735Y-103101800D01*
X150642735Y-104568467D02*
X150642735Y-101768467D01*
X153176068Y-104568467D02*
X153176068Y-103101800D01*
X153042734Y-102835133D01*
X152776068Y-102701800D01*
X152242734Y-102701800D01*
X151976068Y-102835133D01*
X153176068Y-104435133D02*
X152909401Y-104568467D01*
X152242734Y-104568467D01*
X151976068Y-104435133D01*
X151842734Y-104168467D01*
X151842734Y-103901800D01*
X151976068Y-103635133D01*
X152242734Y-103501800D01*
X152909401Y-103501800D01*
X153176068Y-103368467D01*
X155842734Y-104568467D02*
X154509401Y-104568467D01*
X154509401Y-101768467D01*
X157976068Y-104568467D02*
X157976068Y-103101800D01*
X157842734Y-102835133D01*
X157576068Y-102701800D01*
X157042734Y-102701800D01*
X156776068Y-102835133D01*
X157976068Y-104435133D02*
X157709401Y-104568467D01*
X157042734Y-104568467D01*
X156776068Y-104435133D01*
X156642734Y-104168467D01*
X156642734Y-103901800D01*
X156776068Y-103635133D01*
X157042734Y-103501800D01*
X157709401Y-103501800D01*
X157976068Y-103368467D01*
X159309401Y-104568467D02*
X159309401Y-101768467D01*
X159576067Y-103501800D02*
X160376067Y-104568467D01*
X160376067Y-102701800D02*
X159309401Y-103768467D01*
X162642734Y-104435133D02*
X162376068Y-104568467D01*
X161842734Y-104568467D01*
X161576068Y-104435133D01*
X161442734Y-104168467D01*
X161442734Y-103101800D01*
X161576068Y-102835133D01*
X161842734Y-102701800D01*
X162376068Y-102701800D01*
X162642734Y-102835133D01*
X162776068Y-103101800D01*
X162776068Y-103368467D01*
X161442734Y-103635133D01*
X163976068Y-104568467D02*
X163976068Y-101768467D01*
X165576068Y-104568467D02*
X164376068Y-102968467D01*
X165576068Y-101768467D02*
X163976068Y-103368467D01*
X166776068Y-104568467D02*
X166776068Y-102701800D01*
X166776068Y-101768467D02*
X166642734Y-101901800D01*
X166776068Y-102035133D01*
X166909401Y-101901800D01*
X166776068Y-101768467D01*
X166776068Y-102035133D01*
X167709401Y-102701800D02*
X168776067Y-102701800D01*
X168109401Y-101768467D02*
X168109401Y-104168467D01*
X168242734Y-104435133D01*
X168509401Y-104568467D01*
X168776067Y-104568467D01*
X173176067Y-104568467D02*
X171842734Y-104568467D01*
X171842734Y-101768467D01*
X174109401Y-104568467D02*
X174109401Y-102701800D01*
X174109401Y-101768467D02*
X173976067Y-101901800D01*
X174109401Y-102035133D01*
X174242734Y-101901800D01*
X174109401Y-101768467D01*
X174109401Y-102035133D01*
X175442734Y-102701800D02*
X175442734Y-104568467D01*
X175442734Y-102968467D02*
X175576067Y-102835133D01*
X175842734Y-102701800D01*
X176242734Y-102701800D01*
X176509400Y-102835133D01*
X176642734Y-103101800D01*
X176642734Y-104568467D01*
X178376067Y-104568467D02*
X178109400Y-104435133D01*
X177976067Y-104301800D01*
X177842733Y-104035133D01*
X177842733Y-103235133D01*
X177976067Y-102968467D01*
X178109400Y-102835133D01*
X178376067Y-102701800D01*
X178776067Y-102701800D01*
X179042733Y-102835133D01*
X179176067Y-102968467D01*
X179309400Y-103235133D01*
X179309400Y-104035133D01*
X179176067Y-104301800D01*
X179042733Y-104435133D01*
X178776067Y-104568467D01*
X178376067Y-104568467D01*
D12*
X174404638Y-105881514D02*
X174642733Y-106548181D01*
X174880829Y-105881514D01*
X175642734Y-106500562D02*
X175547496Y-106548181D01*
X175357019Y-106548181D01*
X175261781Y-106500562D01*
X175214162Y-106405324D01*
X175214162Y-106024371D01*
X175261781Y-105929133D01*
X175357019Y-105881514D01*
X175547496Y-105881514D01*
X175642734Y-105929133D01*
X175690353Y-106024371D01*
X175690353Y-106119610D01*
X175214162Y-106214848D01*
X176118924Y-106548181D02*
X176118924Y-105881514D01*
X176118924Y-106071990D02*
X176166543Y-105976752D01*
X176214162Y-105929133D01*
X176309400Y-105881514D01*
X176404639Y-105881514D01*
X176737972Y-106452943D02*
X176785591Y-106500562D01*
X176737972Y-106548181D01*
X176690353Y-106500562D01*
X176737972Y-106452943D01*
X176737972Y-106548181D01*
X177737972Y-106548181D02*
X177166543Y-106548181D01*
X177452257Y-106548181D02*
X177452257Y-105548181D01*
X177357019Y-105691038D01*
X177261781Y-105786276D01*
X177166543Y-105833895D01*
X178166543Y-106452943D02*
X178214162Y-106500562D01*
X178166543Y-106548181D01*
X178118924Y-106500562D01*
X178166543Y-106452943D01*
X178166543Y-106548181D01*
X179166543Y-106548181D02*
X178595114Y-106548181D01*
X178880828Y-106548181D02*
X178880828Y-105548181D01*
X178785590Y-105691038D01*
X178690352Y-105786276D01*
X178595114Y-105833895D01*
D13*
X178738305Y-111005133D02*
X178976400Y-111005133D01*
X178690686Y-111147990D02*
X178857353Y-110647990D01*
X179024019Y-111147990D01*
X179190686Y-111147990D02*
X179190686Y-110647990D01*
X179524019Y-110647990D02*
X179619257Y-110647990D01*
X179666876Y-110671800D01*
X179714495Y-110719419D01*
X179738304Y-110814657D01*
X179738304Y-110981324D01*
X179714495Y-111076562D01*
X179666876Y-111124181D01*
X179619257Y-111147990D01*
X179524019Y-111147990D01*
X179476400Y-111124181D01*
X179428781Y-111076562D01*
X179404971Y-110981324D01*
X179404971Y-110814657D01*
X179428781Y-110719419D01*
X179476400Y-110671800D01*
X179524019Y-110647990D01*
X180047829Y-110647990D02*
X180095448Y-110647990D01*
X180143067Y-110671800D01*
X180166876Y-110695610D01*
X180190686Y-110743229D01*
X180214495Y-110838467D01*
X180214495Y-110957514D01*
X180190686Y-111052752D01*
X180166876Y-111100371D01*
X180143067Y-111124181D01*
X180095448Y-111147990D01*
X180047829Y-111147990D01*
X180000210Y-111124181D01*
X179976400Y-111100371D01*
X179952591Y-111052752D01*
X179928781Y-110957514D01*
X179928781Y-110838467D01*
X179952591Y-110743229D01*
X179976400Y-110695610D01*
X180000210Y-110671800D01*
X180047829Y-110647990D01*
X176186401Y-111147990D02*
X176186401Y-110647990D01*
X176376877Y-110647990D01*
X176424496Y-110671800D01*
X176448305Y-110695610D01*
X176472115Y-110743229D01*
X176472115Y-110814657D01*
X176448305Y-110862276D01*
X176424496Y-110886086D01*
X176376877Y-110909895D01*
X176186401Y-110909895D01*
X176686401Y-111147990D02*
X176686401Y-110647990D01*
X177019734Y-110647990D02*
X177114972Y-110647990D01*
X177162591Y-110671800D01*
X177210210Y-110719419D01*
X177234019Y-110814657D01*
X177234019Y-110981324D01*
X177210210Y-111076562D01*
X177162591Y-111124181D01*
X177114972Y-111147990D01*
X177019734Y-111147990D01*
X176972115Y-111124181D01*
X176924496Y-111076562D01*
X176900686Y-110981324D01*
X176900686Y-110814657D01*
X176924496Y-110719419D01*
X176972115Y-110671800D01*
X177019734Y-110647990D01*
X177543544Y-110647990D02*
X177591163Y-110647990D01*
X177638782Y-110671800D01*
X177662591Y-110695610D01*
X177686401Y-110743229D01*
X177710210Y-110838467D01*
X177710210Y-110957514D01*
X177686401Y-111052752D01*
X177662591Y-111100371D01*
X177638782Y-111124181D01*
X177591163Y-111147990D01*
X177543544Y-111147990D01*
X177495925Y-111124181D01*
X177472115Y-111100371D01*
X177448306Y-111052752D01*
X177424496Y-110957514D01*
X177424496Y-110838467D01*
X177448306Y-110743229D01*
X177472115Y-110695610D01*
X177495925Y-110671800D01*
X177543544Y-110647990D01*
X173646401Y-111147990D02*
X173646401Y-110647990D01*
X173836877Y-110647990D01*
X173884496Y-110671800D01*
X173908305Y-110695610D01*
X173932115Y-110743229D01*
X173932115Y-110814657D01*
X173908305Y-110862276D01*
X173884496Y-110886086D01*
X173836877Y-110909895D01*
X173646401Y-110909895D01*
X174146401Y-111147990D02*
X174146401Y-110647990D01*
X174479734Y-110647990D02*
X174574972Y-110647990D01*
X174622591Y-110671800D01*
X174670210Y-110719419D01*
X174694019Y-110814657D01*
X174694019Y-110981324D01*
X174670210Y-111076562D01*
X174622591Y-111124181D01*
X174574972Y-111147990D01*
X174479734Y-111147990D01*
X174432115Y-111124181D01*
X174384496Y-111076562D01*
X174360686Y-110981324D01*
X174360686Y-110814657D01*
X174384496Y-110719419D01*
X174432115Y-110671800D01*
X174479734Y-110647990D01*
X175170210Y-111147990D02*
X174884496Y-111147990D01*
X175027353Y-111147990D02*
X175027353Y-110647990D01*
X174979734Y-110719419D01*
X174932115Y-110767038D01*
X174884496Y-110790848D01*
X173888447Y-108131800D02*
X173840828Y-108107990D01*
X173769400Y-108107990D01*
X173697971Y-108131800D01*
X173650352Y-108179419D01*
X173626543Y-108227038D01*
X173602733Y-108322276D01*
X173602733Y-108393705D01*
X173626543Y-108488943D01*
X173650352Y-108536562D01*
X173697971Y-108584181D01*
X173769400Y-108607990D01*
X173817019Y-108607990D01*
X173888447Y-108584181D01*
X173912257Y-108560371D01*
X173912257Y-108393705D01*
X173817019Y-108393705D01*
X174126543Y-108607990D02*
X174126543Y-108107990D01*
X174412257Y-108607990D01*
X174412257Y-108107990D01*
X174650353Y-108607990D02*
X174650353Y-108107990D01*
X174769400Y-108107990D01*
X174840829Y-108131800D01*
X174888448Y-108179419D01*
X174912257Y-108227038D01*
X174936067Y-108322276D01*
X174936067Y-108393705D01*
X174912257Y-108488943D01*
X174888448Y-108536562D01*
X174840829Y-108584181D01*
X174769400Y-108607990D01*
X174650353Y-108607990D01*
X178682734Y-108107990D02*
X178849401Y-108607990D01*
X179016067Y-108107990D01*
X179468448Y-108560371D02*
X179444638Y-108584181D01*
X179373210Y-108607990D01*
X179325591Y-108607990D01*
X179254162Y-108584181D01*
X179206543Y-108536562D01*
X179182734Y-108488943D01*
X179158924Y-108393705D01*
X179158924Y-108322276D01*
X179182734Y-108227038D01*
X179206543Y-108179419D01*
X179254162Y-108131800D01*
X179325591Y-108107990D01*
X179373210Y-108107990D01*
X179444638Y-108131800D01*
X179468448Y-108155610D01*
X179968448Y-108560371D02*
X179944638Y-108584181D01*
X179873210Y-108607990D01*
X179825591Y-108607990D01*
X179754162Y-108584181D01*
X179706543Y-108536562D01*
X179682734Y-108488943D01*
X179658924Y-108393705D01*
X179658924Y-108322276D01*
X179682734Y-108227038D01*
X179706543Y-108179419D01*
X179754162Y-108131800D01*
X179825591Y-108107990D01*
X179873210Y-108107990D01*
X179944638Y-108131800D01*
X179968448Y-108155610D01*
X176428447Y-108131800D02*
X176380828Y-108107990D01*
X176309400Y-108107990D01*
X176237971Y-108131800D01*
X176190352Y-108179419D01*
X176166543Y-108227038D01*
X176142733Y-108322276D01*
X176142733Y-108393705D01*
X176166543Y-108488943D01*
X176190352Y-108536562D01*
X176237971Y-108584181D01*
X176309400Y-108607990D01*
X176357019Y-108607990D01*
X176428447Y-108584181D01*
X176452257Y-108560371D01*
X176452257Y-108393705D01*
X176357019Y-108393705D01*
X176666543Y-108607990D02*
X176666543Y-108107990D01*
X176952257Y-108607990D01*
X176952257Y-108107990D01*
X177190353Y-108607990D02*
X177190353Y-108107990D01*
X177309400Y-108107990D01*
X177380829Y-108131800D01*
X177428448Y-108179419D01*
X177452257Y-108227038D01*
X177476067Y-108322276D01*
X177476067Y-108393705D01*
X177452257Y-108488943D01*
X177428448Y-108536562D01*
X177380829Y-108584181D01*
X177309400Y-108607990D01*
X177190353Y-108607990D01*
X148202734Y-110647990D02*
X148369401Y-111147990D01*
X148536067Y-110647990D01*
X148988448Y-111100371D02*
X148964638Y-111124181D01*
X148893210Y-111147990D01*
X148845591Y-111147990D01*
X148774162Y-111124181D01*
X148726543Y-111076562D01*
X148702734Y-111028943D01*
X148678924Y-110933705D01*
X148678924Y-110862276D01*
X148702734Y-110767038D01*
X148726543Y-110719419D01*
X148774162Y-110671800D01*
X148845591Y-110647990D01*
X148893210Y-110647990D01*
X148964638Y-110671800D01*
X148988448Y-110695610D01*
X149488448Y-111100371D02*
X149464638Y-111124181D01*
X149393210Y-111147990D01*
X149345591Y-111147990D01*
X149274162Y-111124181D01*
X149226543Y-111076562D01*
X149202734Y-111028943D01*
X149178924Y-110933705D01*
X149178924Y-110862276D01*
X149202734Y-110767038D01*
X149226543Y-110719419D01*
X149274162Y-110671800D01*
X149345591Y-110647990D01*
X149393210Y-110647990D01*
X149464638Y-110671800D01*
X149488448Y-110695610D01*
X151028447Y-110671800D02*
X150980828Y-110647990D01*
X150909400Y-110647990D01*
X150837971Y-110671800D01*
X150790352Y-110719419D01*
X150766543Y-110767038D01*
X150742733Y-110862276D01*
X150742733Y-110933705D01*
X150766543Y-111028943D01*
X150790352Y-111076562D01*
X150837971Y-111124181D01*
X150909400Y-111147990D01*
X150957019Y-111147990D01*
X151028447Y-111124181D01*
X151052257Y-111100371D01*
X151052257Y-110933705D01*
X150957019Y-110933705D01*
X151266543Y-111147990D02*
X151266543Y-110647990D01*
X151552257Y-111147990D01*
X151552257Y-110647990D01*
X151790353Y-111147990D02*
X151790353Y-110647990D01*
X151909400Y-110647990D01*
X151980829Y-110671800D01*
X152028448Y-110719419D01*
X152052257Y-110767038D01*
X152076067Y-110862276D01*
X152076067Y-110933705D01*
X152052257Y-111028943D01*
X152028448Y-111076562D01*
X151980829Y-111124181D01*
X151909400Y-111147990D01*
X151790353Y-111147990D01*
X153568447Y-110671800D02*
X153520828Y-110647990D01*
X153449400Y-110647990D01*
X153377971Y-110671800D01*
X153330352Y-110719419D01*
X153306543Y-110767038D01*
X153282733Y-110862276D01*
X153282733Y-110933705D01*
X153306543Y-111028943D01*
X153330352Y-111076562D01*
X153377971Y-111124181D01*
X153449400Y-111147990D01*
X153497019Y-111147990D01*
X153568447Y-111124181D01*
X153592257Y-111100371D01*
X153592257Y-110933705D01*
X153497019Y-110933705D01*
X153806543Y-111147990D02*
X153806543Y-110647990D01*
X154092257Y-111147990D01*
X154092257Y-110647990D01*
X154330353Y-111147990D02*
X154330353Y-110647990D01*
X154449400Y-110647990D01*
X154520829Y-110671800D01*
X154568448Y-110719419D01*
X154592257Y-110767038D01*
X154616067Y-110862276D01*
X154616067Y-110933705D01*
X154592257Y-111028943D01*
X154568448Y-111076562D01*
X154520829Y-111124181D01*
X154449400Y-111147990D01*
X154330353Y-111147990D01*
X153675591Y-108607990D02*
X153508924Y-108369895D01*
X153389877Y-108607990D02*
X153389877Y-108107990D01*
X153580353Y-108107990D01*
X153627972Y-108131800D01*
X153651781Y-108155610D01*
X153675591Y-108203229D01*
X153675591Y-108274657D01*
X153651781Y-108322276D01*
X153627972Y-108346086D01*
X153580353Y-108369895D01*
X153389877Y-108369895D01*
X153866067Y-108584181D02*
X153937496Y-108607990D01*
X154056543Y-108607990D01*
X154104162Y-108584181D01*
X154127972Y-108560371D01*
X154151781Y-108512752D01*
X154151781Y-108465133D01*
X154127972Y-108417514D01*
X154104162Y-108393705D01*
X154056543Y-108369895D01*
X153961305Y-108346086D01*
X153913686Y-108322276D01*
X153889877Y-108298467D01*
X153866067Y-108250848D01*
X153866067Y-108203229D01*
X153889877Y-108155610D01*
X153913686Y-108131800D01*
X153961305Y-108107990D01*
X154080353Y-108107990D01*
X154151781Y-108131800D01*
X154294638Y-108107990D02*
X154580352Y-108107990D01*
X154437495Y-108607990D02*
X154437495Y-108107990D01*
X151326067Y-108607990D02*
X151159400Y-108369895D01*
X151040353Y-108607990D02*
X151040353Y-108107990D01*
X151230829Y-108107990D01*
X151278448Y-108131800D01*
X151302257Y-108155610D01*
X151326067Y-108203229D01*
X151326067Y-108274657D01*
X151302257Y-108322276D01*
X151278448Y-108346086D01*
X151230829Y-108369895D01*
X151040353Y-108369895D01*
X151492734Y-108107990D02*
X151826067Y-108607990D01*
X151826067Y-108107990D02*
X151492734Y-108607990D01*
X148488448Y-108107990D02*
X148774162Y-108107990D01*
X148631305Y-108607990D02*
X148631305Y-108107990D01*
X148893210Y-108107990D02*
X149226543Y-108607990D01*
X149226543Y-108107990D02*
X148893210Y-108607990D01*
D14*
G36*
X164975570Y-109421573D02*
X165016390Y-109438260D01*
X165149957Y-109460418D01*
X165363517Y-109472309D01*
X165604948Y-109471470D01*
X165963253Y-109490046D01*
X166242350Y-109582289D01*
X166475734Y-109763333D01*
X166611811Y-109926331D01*
X166710571Y-110146368D01*
X166750569Y-110426302D01*
X166731715Y-110714576D01*
X166653920Y-110959630D01*
X166613726Y-111024344D01*
X166348505Y-111284972D01*
X166031169Y-111443268D01*
X165686233Y-111492019D01*
X165338213Y-111424012D01*
X165302995Y-111410016D01*
X165185278Y-111362651D01*
X165105780Y-111350836D01*
X165051815Y-111393183D01*
X165010694Y-111508303D01*
X164969731Y-111714805D01*
X164928332Y-111959589D01*
X164846634Y-112445800D01*
X164195143Y-112445800D01*
X164495145Y-111078527D01*
X164515547Y-110985300D01*
X166068240Y-110985300D01*
X166228072Y-110985300D01*
X166358560Y-110968528D01*
X166413399Y-110937675D01*
X166418450Y-110844275D01*
X166401272Y-110757498D01*
X166370868Y-110677441D01*
X166327459Y-110680481D01*
X166241361Y-110774247D01*
X166215945Y-110805123D01*
X166068240Y-110985300D01*
X164515547Y-110985300D01*
X164605418Y-110574656D01*
X164691704Y-110181453D01*
X164712358Y-110089587D01*
X165059160Y-110089587D01*
X165083851Y-110323845D01*
X165105397Y-110411209D01*
X165134490Y-110497923D01*
X165166188Y-110497791D01*
X165218227Y-110398470D01*
X165255709Y-110311659D01*
X165390190Y-110311659D01*
X165418295Y-110480436D01*
X165521889Y-110585072D01*
X165663126Y-110607917D01*
X165804156Y-110531324D01*
X165820999Y-110512545D01*
X165873807Y-110378989D01*
X165876399Y-110274420D01*
X165839053Y-110173425D01*
X165740162Y-110133062D01*
X165633400Y-110128050D01*
X165481438Y-110140749D01*
X165413475Y-110200056D01*
X165390190Y-110311659D01*
X165255709Y-110311659D01*
X165258823Y-110304447D01*
X165377187Y-110104643D01*
X165524210Y-109959874D01*
X165549568Y-109944455D01*
X165728650Y-109847384D01*
X165538150Y-109845709D01*
X165274599Y-109865822D01*
X165118839Y-109942014D01*
X165059160Y-110089587D01*
X164712358Y-110089587D01*
X164758187Y-109885749D01*
X164809052Y-109674375D01*
X164848484Y-109534164D01*
X164880666Y-109451947D01*
X164909785Y-109414555D01*
X164940025Y-109408819D01*
X164975570Y-109421573D01*
X164975570Y-109421573D01*
G37*
X164975570Y-109421573D02*
X165016390Y-109438260D01*
X165149957Y-109460418D01*
X165363517Y-109472309D01*
X165604948Y-109471470D01*
X165963253Y-109490046D01*
X166242350Y-109582289D01*
X166475734Y-109763333D01*
X166611811Y-109926331D01*
X166710571Y-110146368D01*
X166750569Y-110426302D01*
X166731715Y-110714576D01*
X166653920Y-110959630D01*
X166613726Y-111024344D01*
X166348505Y-111284972D01*
X166031169Y-111443268D01*
X165686233Y-111492019D01*
X165338213Y-111424012D01*
X165302995Y-111410016D01*
X165185278Y-111362651D01*
X165105780Y-111350836D01*
X165051815Y-111393183D01*
X165010694Y-111508303D01*
X164969731Y-111714805D01*
X164928332Y-111959589D01*
X164846634Y-112445800D01*
X164195143Y-112445800D01*
X164495145Y-111078527D01*
X164515547Y-110985300D01*
X166068240Y-110985300D01*
X166228072Y-110985300D01*
X166358560Y-110968528D01*
X166413399Y-110937675D01*
X166418450Y-110844275D01*
X166401272Y-110757498D01*
X166370868Y-110677441D01*
X166327459Y-110680481D01*
X166241361Y-110774247D01*
X166215945Y-110805123D01*
X166068240Y-110985300D01*
X164515547Y-110985300D01*
X164605418Y-110574656D01*
X164691704Y-110181453D01*
X164712358Y-110089587D01*
X165059160Y-110089587D01*
X165083851Y-110323845D01*
X165105397Y-110411209D01*
X165134490Y-110497923D01*
X165166188Y-110497791D01*
X165218227Y-110398470D01*
X165255709Y-110311659D01*
X165390190Y-110311659D01*
X165418295Y-110480436D01*
X165521889Y-110585072D01*
X165663126Y-110607917D01*
X165804156Y-110531324D01*
X165820999Y-110512545D01*
X165873807Y-110378989D01*
X165876399Y-110274420D01*
X165839053Y-110173425D01*
X165740162Y-110133062D01*
X165633400Y-110128050D01*
X165481438Y-110140749D01*
X165413475Y-110200056D01*
X165390190Y-110311659D01*
X165255709Y-110311659D01*
X165258823Y-110304447D01*
X165377187Y-110104643D01*
X165524210Y-109959874D01*
X165549568Y-109944455D01*
X165728650Y-109847384D01*
X165538150Y-109845709D01*
X165274599Y-109865822D01*
X165118839Y-109942014D01*
X165059160Y-110089587D01*
X164712358Y-110089587D01*
X164758187Y-109885749D01*
X164809052Y-109674375D01*
X164848484Y-109534164D01*
X164880666Y-109451947D01*
X164909785Y-109414555D01*
X164940025Y-109408819D01*
X164975570Y-109421573D01*
G36*
X159908152Y-109654422D02*
X159983367Y-109671499D01*
X160018509Y-109716843D01*
X160009775Y-109804267D01*
X159953364Y-109947585D01*
X159845472Y-110160611D01*
X159682298Y-110457157D01*
X159472781Y-110828525D01*
X158952807Y-111747300D01*
X158673603Y-111747300D01*
X158505407Y-111740654D01*
X158405946Y-111723881D01*
X158394400Y-111714588D01*
X158423279Y-111646485D01*
X158498613Y-111501181D01*
X158593101Y-111329796D01*
X158791802Y-110977717D01*
X158664891Y-110341334D01*
X158606374Y-110035049D01*
X158581301Y-109833045D01*
X158596967Y-109715328D01*
X158660665Y-109661900D01*
X158779687Y-109652766D01*
X158912230Y-109663200D01*
X159065340Y-109697209D01*
X159132686Y-109779566D01*
X159145901Y-109842300D01*
X159187215Y-110006632D01*
X159252420Y-110046808D01*
X159344395Y-109963235D01*
X159399601Y-109878092D01*
X159502586Y-109730490D01*
X159614009Y-109666113D01*
X159792051Y-109651803D01*
X159796664Y-109651800D01*
X159908152Y-109654422D01*
X159908152Y-109654422D01*
G37*
X159908152Y-109654422D02*
X159983367Y-109671499D01*
X160018509Y-109716843D01*
X160009775Y-109804267D01*
X159953364Y-109947585D01*
X159845472Y-110160611D01*
X159682298Y-110457157D01*
X159472781Y-110828525D01*
X158952807Y-111747300D01*
X158673603Y-111747300D01*
X158505407Y-111740654D01*
X158405946Y-111723881D01*
X158394400Y-111714588D01*
X158423279Y-111646485D01*
X158498613Y-111501181D01*
X158593101Y-111329796D01*
X158791802Y-110977717D01*
X158664891Y-110341334D01*
X158606374Y-110035049D01*
X158581301Y-109833045D01*
X158596967Y-109715328D01*
X158660665Y-109661900D01*
X158779687Y-109652766D01*
X158912230Y-109663200D01*
X159065340Y-109697209D01*
X159132686Y-109779566D01*
X159145901Y-109842300D01*
X159187215Y-110006632D01*
X159252420Y-110046808D01*
X159344395Y-109963235D01*
X159399601Y-109878092D01*
X159502586Y-109730490D01*
X159614009Y-109666113D01*
X159792051Y-109651803D01*
X159796664Y-109651800D01*
X159908152Y-109654422D01*
G36*
X169936576Y-109656275D02*
X170038086Y-109719908D01*
X170179660Y-109868480D01*
X170196496Y-109993726D01*
X170088474Y-110096111D01*
X169923353Y-110158763D01*
X169641306Y-110237731D01*
X169828103Y-110394910D01*
X169977494Y-110574108D01*
X170014900Y-110740098D01*
X169966457Y-111006416D01*
X169837404Y-111226905D01*
X169652156Y-111387685D01*
X169435126Y-111474876D01*
X169210727Y-111474598D01*
X169003373Y-111372969D01*
X168964263Y-111337436D01*
X168832754Y-111162222D01*
X168823539Y-111020083D01*
X168936956Y-110908643D01*
X169031721Y-110866558D01*
X169142361Y-110826550D01*
X169316400Y-110826550D01*
X169348150Y-110858300D01*
X169379900Y-110826550D01*
X169348150Y-110794800D01*
X169316400Y-110826550D01*
X169142361Y-110826550D01*
X169255042Y-110785804D01*
X169126971Y-110622988D01*
X169024660Y-110447412D01*
X169009058Y-110264596D01*
X169077538Y-110031524D01*
X169089147Y-110003227D01*
X169239455Y-109782922D01*
X169452662Y-109645133D01*
X169695970Y-109599653D01*
X169936576Y-109656275D01*
X169936576Y-109656275D01*
G37*
X169936576Y-109656275D02*
X170038086Y-109719908D01*
X170179660Y-109868480D01*
X170196496Y-109993726D01*
X170088474Y-110096111D01*
X169923353Y-110158763D01*
X169641306Y-110237731D01*
X169828103Y-110394910D01*
X169977494Y-110574108D01*
X170014900Y-110740098D01*
X169966457Y-111006416D01*
X169837404Y-111226905D01*
X169652156Y-111387685D01*
X169435126Y-111474876D01*
X169210727Y-111474598D01*
X169003373Y-111372969D01*
X168964263Y-111337436D01*
X168832754Y-111162222D01*
X168823539Y-111020083D01*
X168936956Y-110908643D01*
X169031721Y-110866558D01*
X169142361Y-110826550D01*
X169316400Y-110826550D01*
X169348150Y-110858300D01*
X169379900Y-110826550D01*
X169348150Y-110794800D01*
X169316400Y-110826550D01*
X169142361Y-110826550D01*
X169255042Y-110785804D01*
X169126971Y-110622988D01*
X169024660Y-110447412D01*
X169009058Y-110264596D01*
X169077538Y-110031524D01*
X169089147Y-110003227D01*
X169239455Y-109782922D01*
X169452662Y-109645133D01*
X169695970Y-109599653D01*
X169936576Y-109656275D01*
G36*
X168765859Y-109614739D02*
X168902144Y-109631508D01*
X168935400Y-109648442D01*
X168922683Y-109728930D01*
X168888695Y-109903975D01*
X168839678Y-110144148D01*
X168781873Y-110420022D01*
X168721522Y-110702169D01*
X168664868Y-110961162D01*
X168618151Y-111167573D01*
X168587614Y-111291975D01*
X168584496Y-111302800D01*
X168542668Y-111349663D01*
X168437088Y-111381121D01*
X168246841Y-111400745D01*
X167951016Y-111412108D01*
X167943749Y-111412279D01*
X167331908Y-111426508D01*
X167117654Y-111212254D01*
X166974104Y-111041653D01*
X166912966Y-110878877D01*
X166904794Y-110753525D01*
X166930637Y-110604944D01*
X167633854Y-110604944D01*
X167704417Y-110704973D01*
X167845475Y-110719116D01*
X167967466Y-110682867D01*
X168011233Y-110585347D01*
X168014650Y-110509050D01*
X167990763Y-110363394D01*
X167904585Y-110303697D01*
X167882093Y-110299610D01*
X167728456Y-110330187D01*
X167635377Y-110445549D01*
X167633854Y-110604944D01*
X166930637Y-110604944D01*
X166964620Y-110409572D01*
X167124654Y-110083029D01*
X167361505Y-109820483D01*
X167380981Y-109805229D01*
X167497758Y-109722835D01*
X167609709Y-109669068D01*
X167748888Y-109636869D01*
X167947350Y-109619181D01*
X168237150Y-109608945D01*
X168276893Y-109607948D01*
X168548655Y-109606345D01*
X168765859Y-109614739D01*
X168765859Y-109614739D01*
G37*
X168765859Y-109614739D02*
X168902144Y-109631508D01*
X168935400Y-109648442D01*
X168922683Y-109728930D01*
X168888695Y-109903975D01*
X168839678Y-110144148D01*
X168781873Y-110420022D01*
X168721522Y-110702169D01*
X168664868Y-110961162D01*
X168618151Y-111167573D01*
X168587614Y-111291975D01*
X168584496Y-111302800D01*
X168542668Y-111349663D01*
X168437088Y-111381121D01*
X168246841Y-111400745D01*
X167951016Y-111412108D01*
X167943749Y-111412279D01*
X167331908Y-111426508D01*
X167117654Y-111212254D01*
X166974104Y-111041653D01*
X166912966Y-110878877D01*
X166904794Y-110753525D01*
X166930637Y-110604944D01*
X167633854Y-110604944D01*
X167704417Y-110704973D01*
X167845475Y-110719116D01*
X167967466Y-110682867D01*
X168011233Y-110585347D01*
X168014650Y-110509050D01*
X167990763Y-110363394D01*
X167904585Y-110303697D01*
X167882093Y-110299610D01*
X167728456Y-110330187D01*
X167635377Y-110445549D01*
X167633854Y-110604944D01*
X166930637Y-110604944D01*
X166964620Y-110409572D01*
X167124654Y-110083029D01*
X167361505Y-109820483D01*
X167380981Y-109805229D01*
X167497758Y-109722835D01*
X167609709Y-109669068D01*
X167748888Y-109636869D01*
X167947350Y-109619181D01*
X168237150Y-109608945D01*
X168276893Y-109607948D01*
X168548655Y-109606345D01*
X168765859Y-109614739D01*
G36*
X171085340Y-109621785D02*
X171265939Y-109698840D01*
X171379507Y-109838487D01*
X171399895Y-109918540D01*
X171398155Y-110032843D01*
X171336076Y-110094797D01*
X171180892Y-110136655D01*
X171177645Y-110137303D01*
X171005483Y-110165252D01*
X170886007Y-110173348D01*
X170872150Y-110171732D01*
X170873590Y-110195060D01*
X170956693Y-110270176D01*
X170988233Y-110294783D01*
X171179179Y-110493764D01*
X171246492Y-110710426D01*
X171196928Y-110945925D01*
X171040907Y-111196831D01*
X170833967Y-111357276D01*
X170600339Y-111418287D01*
X170364256Y-111370891D01*
X170245713Y-111298191D01*
X170147080Y-111183225D01*
X170086633Y-111045167D01*
X170074240Y-110924226D01*
X170119768Y-110860612D01*
X170137766Y-110858300D01*
X170236937Y-110837414D01*
X170269473Y-110826550D01*
X170586400Y-110826550D01*
X170618150Y-110858300D01*
X170649900Y-110826550D01*
X170618150Y-110794800D01*
X170586400Y-110826550D01*
X170269473Y-110826550D01*
X170361154Y-110795938D01*
X170525177Y-110733577D01*
X170389666Y-110598066D01*
X170296746Y-110423293D01*
X170286266Y-110198819D01*
X170354152Y-109967916D01*
X170464350Y-109805280D01*
X170652246Y-109671095D01*
X170870010Y-109611234D01*
X171085340Y-109621785D01*
X171085340Y-109621785D01*
G37*
X171085340Y-109621785D02*
X171265939Y-109698840D01*
X171379507Y-109838487D01*
X171399895Y-109918540D01*
X171398155Y-110032843D01*
X171336076Y-110094797D01*
X171180892Y-110136655D01*
X171177645Y-110137303D01*
X171005483Y-110165252D01*
X170886007Y-110173348D01*
X170872150Y-110171732D01*
X170873590Y-110195060D01*
X170956693Y-110270176D01*
X170988233Y-110294783D01*
X171179179Y-110493764D01*
X171246492Y-110710426D01*
X171196928Y-110945925D01*
X171040907Y-111196831D01*
X170833967Y-111357276D01*
X170600339Y-111418287D01*
X170364256Y-111370891D01*
X170245713Y-111298191D01*
X170147080Y-111183225D01*
X170086633Y-111045167D01*
X170074240Y-110924226D01*
X170119768Y-110860612D01*
X170137766Y-110858300D01*
X170236937Y-110837414D01*
X170269473Y-110826550D01*
X170586400Y-110826550D01*
X170618150Y-110858300D01*
X170649900Y-110826550D01*
X170618150Y-110794800D01*
X170586400Y-110826550D01*
X170269473Y-110826550D01*
X170361154Y-110795938D01*
X170525177Y-110733577D01*
X170389666Y-110598066D01*
X170296746Y-110423293D01*
X170286266Y-110198819D01*
X170354152Y-109967916D01*
X170464350Y-109805280D01*
X170652246Y-109671095D01*
X170870010Y-109611234D01*
X171085340Y-109621785D01*
G36*
X161579336Y-109590184D02*
X161647443Y-109609200D01*
X161680862Y-109665386D01*
X161681985Y-109778785D01*
X161653201Y-109969436D01*
X161596903Y-110257380D01*
X161569912Y-110390934D01*
X161497855Y-110749590D01*
X161445045Y-111001928D01*
X161403367Y-111165648D01*
X161364706Y-111258449D01*
X161320945Y-111298031D01*
X161263969Y-111302094D01*
X161185662Y-111288337D01*
X161160432Y-111283964D01*
X160939445Y-111273837D01*
X160734974Y-111296872D01*
X160518801Y-111314563D01*
X160319269Y-111290972D01*
X160073817Y-111169874D01*
X159920973Y-110965468D01*
X159866894Y-110687483D01*
X159871537Y-110583694D01*
X159900877Y-110461709D01*
X160492157Y-110461709D01*
X160525691Y-110585106D01*
X160587016Y-110645267D01*
X160730189Y-110689617D01*
X160856721Y-110639010D01*
X160922625Y-110518122D01*
X160922378Y-110457128D01*
X160875844Y-110354260D01*
X160753004Y-110319482D01*
X160713019Y-110318550D01*
X160559361Y-110360512D01*
X160492157Y-110461709D01*
X159900877Y-110461709D01*
X159949021Y-110261553D01*
X160123751Y-109995506D01*
X160368738Y-109789018D01*
X160534120Y-109696618D01*
X160705558Y-109661270D01*
X160918525Y-109667243D01*
X161104320Y-109673124D01*
X161225343Y-109659631D01*
X161251900Y-109641149D01*
X161307753Y-109606208D01*
X161445083Y-109588753D01*
X161474150Y-109588300D01*
X161579336Y-109590184D01*
X161579336Y-109590184D01*
G37*
X161579336Y-109590184D02*
X161647443Y-109609200D01*
X161680862Y-109665386D01*
X161681985Y-109778785D01*
X161653201Y-109969436D01*
X161596903Y-110257380D01*
X161569912Y-110390934D01*
X161497855Y-110749590D01*
X161445045Y-111001928D01*
X161403367Y-111165648D01*
X161364706Y-111258449D01*
X161320945Y-111298031D01*
X161263969Y-111302094D01*
X161185662Y-111288337D01*
X161160432Y-111283964D01*
X160939445Y-111273837D01*
X160734974Y-111296872D01*
X160518801Y-111314563D01*
X160319269Y-111290972D01*
X160073817Y-111169874D01*
X159920973Y-110965468D01*
X159866894Y-110687483D01*
X159871537Y-110583694D01*
X159900877Y-110461709D01*
X160492157Y-110461709D01*
X160525691Y-110585106D01*
X160587016Y-110645267D01*
X160730189Y-110689617D01*
X160856721Y-110639010D01*
X160922625Y-110518122D01*
X160922378Y-110457128D01*
X160875844Y-110354260D01*
X160753004Y-110319482D01*
X160713019Y-110318550D01*
X160559361Y-110360512D01*
X160492157Y-110461709D01*
X159900877Y-110461709D01*
X159949021Y-110261553D01*
X160123751Y-109995506D01*
X160368738Y-109789018D01*
X160534120Y-109696618D01*
X160705558Y-109661270D01*
X160918525Y-109667243D01*
X161104320Y-109673124D01*
X161225343Y-109659631D01*
X161251900Y-109641149D01*
X161307753Y-109606208D01*
X161445083Y-109588753D01*
X161474150Y-109588300D01*
X161579336Y-109590184D01*
G36*
X164125587Y-109602959D02*
X164344148Y-109746862D01*
X164385498Y-109795582D01*
X164450790Y-109894072D01*
X164482016Y-109991200D01*
X164482151Y-110124239D01*
X164454170Y-110330463D01*
X164436662Y-110436492D01*
X164388210Y-110704346D01*
X164336922Y-110955844D01*
X164294292Y-111135010D01*
X164249344Y-111272614D01*
X164187566Y-111340782D01*
X164069089Y-111363885D01*
X163915915Y-111366300D01*
X163735554Y-111357648D01*
X163621387Y-111335550D01*
X163600586Y-111318675D01*
X163613741Y-111237476D01*
X163649177Y-111067747D01*
X163699551Y-110844457D01*
X163705613Y-110818450D01*
X163765537Y-110514828D01*
X163775546Y-110317459D01*
X163733905Y-110215088D01*
X163638878Y-110196462D01*
X163610653Y-110202481D01*
X163533479Y-110253269D01*
X163467625Y-110375929D01*
X163401983Y-110593790D01*
X163378680Y-110689676D01*
X163322045Y-110929065D01*
X163273521Y-111130025D01*
X163243101Y-111251204D01*
X163242032Y-111255175D01*
X163192777Y-111325245D01*
X163074319Y-111358903D01*
X162898620Y-111366300D01*
X162718908Y-111355059D01*
X162605615Y-111326355D01*
X162585400Y-111304604D01*
X162598270Y-111216601D01*
X162632326Y-111039813D01*
X162680736Y-110809326D01*
X162690968Y-110762472D01*
X162744081Y-110486066D01*
X162757701Y-110311276D01*
X162733051Y-110219423D01*
X162726986Y-110212486D01*
X162622559Y-110162082D01*
X162526559Y-110231241D01*
X162436957Y-110422574D01*
X162365400Y-110678577D01*
X162308124Y-110920506D01*
X162258992Y-111124015D01*
X162227812Y-111248528D01*
X162226032Y-111255175D01*
X162176777Y-111325245D01*
X162058319Y-111358903D01*
X161882620Y-111366300D01*
X161666952Y-111350757D01*
X161574398Y-111304126D01*
X161570497Y-111286925D01*
X161584950Y-111189758D01*
X161622607Y-111004292D01*
X161676723Y-110759016D01*
X161740551Y-110482420D01*
X161807344Y-110202996D01*
X161870356Y-109949233D01*
X161922841Y-109749622D01*
X161958051Y-109632653D01*
X161966519Y-109614514D01*
X162052044Y-109589065D01*
X162227109Y-109569948D01*
X162454367Y-109558085D01*
X162696472Y-109554396D01*
X162916080Y-109559805D01*
X163075843Y-109575231D01*
X163119280Y-109586068D01*
X163305554Y-109609041D01*
X163526841Y-109576630D01*
X163842886Y-109543598D01*
X164125587Y-109602959D01*
X164125587Y-109602959D01*
G37*
X164125587Y-109602959D02*
X164344148Y-109746862D01*
X164385498Y-109795582D01*
X164450790Y-109894072D01*
X164482016Y-109991200D01*
X164482151Y-110124239D01*
X164454170Y-110330463D01*
X164436662Y-110436492D01*
X164388210Y-110704346D01*
X164336922Y-110955844D01*
X164294292Y-111135010D01*
X164249344Y-111272614D01*
X164187566Y-111340782D01*
X164069089Y-111363885D01*
X163915915Y-111366300D01*
X163735554Y-111357648D01*
X163621387Y-111335550D01*
X163600586Y-111318675D01*
X163613741Y-111237476D01*
X163649177Y-111067747D01*
X163699551Y-110844457D01*
X163705613Y-110818450D01*
X163765537Y-110514828D01*
X163775546Y-110317459D01*
X163733905Y-110215088D01*
X163638878Y-110196462D01*
X163610653Y-110202481D01*
X163533479Y-110253269D01*
X163467625Y-110375929D01*
X163401983Y-110593790D01*
X163378680Y-110689676D01*
X163322045Y-110929065D01*
X163273521Y-111130025D01*
X163243101Y-111251204D01*
X163242032Y-111255175D01*
X163192777Y-111325245D01*
X163074319Y-111358903D01*
X162898620Y-111366300D01*
X162718908Y-111355059D01*
X162605615Y-111326355D01*
X162585400Y-111304604D01*
X162598270Y-111216601D01*
X162632326Y-111039813D01*
X162680736Y-110809326D01*
X162690968Y-110762472D01*
X162744081Y-110486066D01*
X162757701Y-110311276D01*
X162733051Y-110219423D01*
X162726986Y-110212486D01*
X162622559Y-110162082D01*
X162526559Y-110231241D01*
X162436957Y-110422574D01*
X162365400Y-110678577D01*
X162308124Y-110920506D01*
X162258992Y-111124015D01*
X162227812Y-111248528D01*
X162226032Y-111255175D01*
X162176777Y-111325245D01*
X162058319Y-111358903D01*
X161882620Y-111366300D01*
X161666952Y-111350757D01*
X161574398Y-111304126D01*
X161570497Y-111286925D01*
X161584950Y-111189758D01*
X161622607Y-111004292D01*
X161676723Y-110759016D01*
X161740551Y-110482420D01*
X161807344Y-110202996D01*
X161870356Y-109949233D01*
X161922841Y-109749622D01*
X161958051Y-109632653D01*
X161966519Y-109614514D01*
X162052044Y-109589065D01*
X162227109Y-109569948D01*
X162454367Y-109558085D01*
X162696472Y-109554396D01*
X162916080Y-109559805D01*
X163075843Y-109575231D01*
X163119280Y-109586068D01*
X163305554Y-109609041D01*
X163526841Y-109576630D01*
X163842886Y-109543598D01*
X164125587Y-109602959D01*
G36*
X158101524Y-109723959D02*
X158255241Y-109803806D01*
X158359693Y-109924126D01*
X158409919Y-110054098D01*
X158418034Y-110240406D01*
X158382401Y-110501509D01*
X158301382Y-110855863D01*
X158264681Y-110995395D01*
X158212208Y-111152875D01*
X158138580Y-111222055D01*
X157996892Y-111238999D01*
X157947452Y-111239300D01*
X157814754Y-111236127D01*
X157737539Y-111210617D01*
X157708837Y-111138784D01*
X157721677Y-110996642D01*
X157769091Y-110760204D01*
X157785715Y-110682685D01*
X157822463Y-110473377D01*
X157834474Y-110318133D01*
X157820965Y-110253854D01*
X157708626Y-110244418D01*
X157610024Y-110340137D01*
X157546818Y-110519412D01*
X157545195Y-110528844D01*
X157499206Y-110759622D01*
X157441454Y-110994091D01*
X157439472Y-111001175D01*
X157385328Y-111155462D01*
X157309203Y-111222893D01*
X157163532Y-111239078D01*
X157121415Y-111239300D01*
X156943826Y-111220586D01*
X156870820Y-111168091D01*
X156869911Y-111159925D01*
X156881921Y-111068052D01*
X156914797Y-110881240D01*
X156963165Y-110628806D01*
X157008317Y-110404596D01*
X157147212Y-109728642D01*
X157564431Y-109700091D01*
X157880511Y-109691995D01*
X158101524Y-109723959D01*
X158101524Y-109723959D01*
G37*
X158101524Y-109723959D02*
X158255241Y-109803806D01*
X158359693Y-109924126D01*
X158409919Y-110054098D01*
X158418034Y-110240406D01*
X158382401Y-110501509D01*
X158301382Y-110855863D01*
X158264681Y-110995395D01*
X158212208Y-111152875D01*
X158138580Y-111222055D01*
X157996892Y-111238999D01*
X157947452Y-111239300D01*
X157814754Y-111236127D01*
X157737539Y-111210617D01*
X157708837Y-111138784D01*
X157721677Y-110996642D01*
X157769091Y-110760204D01*
X157785715Y-110682685D01*
X157822463Y-110473377D01*
X157834474Y-110318133D01*
X157820965Y-110253854D01*
X157708626Y-110244418D01*
X157610024Y-110340137D01*
X157546818Y-110519412D01*
X157545195Y-110528844D01*
X157499206Y-110759622D01*
X157441454Y-110994091D01*
X157439472Y-111001175D01*
X157385328Y-111155462D01*
X157309203Y-111222893D01*
X157163532Y-111239078D01*
X157121415Y-111239300D01*
X156943826Y-111220586D01*
X156870820Y-111168091D01*
X156869911Y-111159925D01*
X156881921Y-111068052D01*
X156914797Y-110881240D01*
X156963165Y-110628806D01*
X157008317Y-110404596D01*
X157147212Y-109728642D01*
X157564431Y-109700091D01*
X157880511Y-109691995D01*
X158101524Y-109723959D01*
D15*
X162306000Y-92964000D02*
X162306000Y-99441000D01*
D10*
X155829000Y-92964000D02*
X155829000Y-99441000D01*
X155906000Y-99441000D02*
X162306000Y-99441000D01*
X161163000Y-94234000D02*
X160401000Y-94234000D01*
X160401000Y-94234000D02*
X161163000Y-94996000D01*
X161163000Y-94996000D02*
X161163000Y-94234000D01*
X149705190Y-98168638D02*
X149467095Y-98335305D01*
X149705190Y-98454352D02*
X149205190Y-98454352D01*
X149205190Y-98263876D01*
X149229000Y-98216257D01*
X149252810Y-98192448D01*
X149300429Y-98168638D01*
X149371857Y-98168638D01*
X149419476Y-98192448D01*
X149443286Y-98216257D01*
X149467095Y-98263876D01*
X149467095Y-98454352D01*
X149657571Y-95120638D02*
X149681381Y-95144448D01*
X149705190Y-95215876D01*
X149705190Y-95263495D01*
X149681381Y-95334924D01*
X149633762Y-95382543D01*
X149586143Y-95406352D01*
X149490905Y-95430162D01*
X149419476Y-95430162D01*
X149324238Y-95406352D01*
X149276619Y-95382543D01*
X149229000Y-95334924D01*
X149205190Y-95263495D01*
X149205190Y-95215876D01*
X149229000Y-95144448D01*
X149252810Y-95120638D01*
%LPC*%
D16*
X153949400Y-109651800D03*
X151409400Y-109651800D03*
X148869400Y-109651800D03*
X148869400Y-112191800D03*
X151409400Y-112191800D03*
X153949400Y-112191800D03*
X179349400Y-109651800D03*
X176809400Y-109651800D03*
X174269400Y-109651800D03*
X174269400Y-112191800D03*
X176809400Y-112191800D03*
X179349400Y-112191800D03*
D17*
X149479000Y-97573400D03*
X149479000Y-99073400D03*
D18*
X149479000Y-96025400D03*
X149479000Y-94525400D03*
D19*
X161831000Y-93344000D03*
D20*
X161306000Y-93369000D03*
X160806000Y-93369000D03*
X160306000Y-93369000D03*
X159806000Y-93369000D03*
X159306000Y-93369000D03*
X158806000Y-93369000D03*
X158306000Y-93369000D03*
X157806000Y-93369000D03*
X157306000Y-93369000D03*
X156806000Y-93369000D03*
D19*
X156281000Y-93344000D03*
D21*
X156211000Y-93964000D03*
X156211000Y-94464000D03*
X156211000Y-96964000D03*
X156211000Y-94964000D03*
X156211000Y-95464000D03*
X156211000Y-95964000D03*
X156211000Y-96464000D03*
X156211000Y-97464000D03*
X156211000Y-97964000D03*
X156211000Y-98464000D03*
D19*
X156281000Y-99084000D03*
D20*
X156806000Y-99059000D03*
X157306000Y-99059000D03*
X157806000Y-99059000D03*
X158306000Y-99059000D03*
X158806000Y-99059000D03*
X159306000Y-99059000D03*
X159806000Y-99059000D03*
X160306000Y-99059000D03*
X160806000Y-99059000D03*
X161306000Y-99059000D03*
D19*
X161831000Y-99084000D03*
D21*
X161901000Y-98464000D03*
X161901000Y-97964000D03*
X161901000Y-97464000D03*
X161901000Y-96964000D03*
X161901000Y-96464000D03*
X161901000Y-95964000D03*
X161901000Y-95464000D03*
X161901000Y-94964000D03*
X161901000Y-94464000D03*
X161901000Y-93964000D03*
D22*
X159606000Y-95664000D03*
X158506000Y-95664000D03*
X158506000Y-96764000D03*
X159606000Y-96764000D03*
M02*
