G04 #@! TF.FileFunction,Copper,L2,Bot,Signal*
%FSLAX46Y46*%
G04 Gerber Fmt 4.6, Leading zero omitted, Abs format (unit mm)*
G04 Created by KiCad (PCBNEW 4.0.2+dfsg1-stable) date 2016年12月02日 11時36分25秒*
%MOMM*%
G01*
G04 APERTURE LIST*
%ADD10C,0.100000*%
%ADD11R,4.700000X5.100000*%
%ADD12R,5.000000X5.000000*%
%ADD13C,1.700000*%
%ADD14C,0.600000*%
%ADD15C,0.200000*%
%ADD16C,0.250000*%
%ADD17C,1.000000*%
%ADD18C,0.254000*%
G04 APERTURE END LIST*
D10*
D11*
X151130000Y-102870000D03*
X177030000Y-102870000D03*
D12*
X164090000Y-102870000D03*
D13*
X153949400Y-108381800D03*
X151409400Y-108381800D03*
X148869400Y-108381800D03*
X179349400Y-108381800D03*
X176809400Y-108381800D03*
X174269400Y-108381800D03*
X174269400Y-110921800D03*
X176809400Y-110921800D03*
X179349400Y-110921800D03*
X148869400Y-110921800D03*
X151409400Y-110921800D03*
X153949400Y-110921800D03*
D14*
X162839400Y-107619800D03*
X149920960Y-99994720D03*
X150190200Y-105384600D03*
X156438600Y-99847400D03*
X150149560Y-97561400D03*
X164063680Y-106563160D03*
X150042880Y-96012000D03*
X161010600Y-94310200D03*
X159283400Y-94361000D03*
X158292800Y-98094800D03*
X157581600Y-96774000D03*
X155092400Y-96977200D03*
X162687000Y-93395800D03*
X162788600Y-94919800D03*
X160350200Y-98094800D03*
D15*
X177030000Y-102870000D02*
X175920400Y-102870000D01*
X175920400Y-102870000D02*
X171170600Y-107619800D01*
X171170600Y-107619800D02*
X162839400Y-107619800D01*
X149920960Y-99994720D02*
X151130000Y-101203760D01*
X151130000Y-101203760D02*
X151130000Y-102870000D01*
D16*
X150190200Y-105384600D02*
X151130000Y-104495600D01*
X177030000Y-102870000D02*
X177030000Y-104335200D01*
X177030000Y-104335200D02*
X178765200Y-106070400D01*
X178765200Y-106070400D02*
X178765200Y-107645200D01*
X178765200Y-107645200D02*
X179070000Y-107950000D01*
D15*
X156438600Y-99847400D02*
X156489400Y-99796600D01*
X156489400Y-99796600D02*
X156489400Y-98221800D01*
X156489400Y-98221800D02*
X155829000Y-97561400D01*
X155829000Y-97561400D02*
X150149560Y-97561400D01*
D17*
X164090000Y-102870000D02*
X164090000Y-106536840D01*
X164090000Y-106536840D02*
X164063680Y-106563160D01*
D15*
X159283400Y-94361000D02*
X159283400Y-94411800D01*
X157683200Y-96012000D02*
X150042880Y-96012000D01*
X159283400Y-94411800D02*
X157683200Y-96012000D01*
X161010600Y-94310200D02*
X160959800Y-94361000D01*
X160959800Y-94361000D02*
X159283400Y-94361000D01*
D16*
X166141400Y-102870000D02*
X164090000Y-102870000D01*
X155194000Y-107950000D02*
X153670000Y-107950000D01*
X158292800Y-104851200D02*
X155194000Y-107950000D01*
X158292800Y-98094800D02*
X158292800Y-104851200D01*
X155600400Y-106578400D02*
X152501600Y-106578400D01*
X157581600Y-104597200D02*
X155600400Y-106578400D01*
X157581600Y-96774000D02*
X157581600Y-104597200D01*
X157581600Y-96774000D02*
X157581600Y-96774000D01*
X152501600Y-106578400D02*
X151130000Y-107950000D01*
X155346400Y-106070400D02*
X150469600Y-106070400D01*
X157073600Y-104343200D02*
X155346400Y-106070400D01*
X157073600Y-97840800D02*
X157073600Y-104343200D01*
X156260800Y-97028000D02*
X157073600Y-97840800D01*
X155143200Y-97028000D02*
X156260800Y-97028000D01*
X155092400Y-96977200D02*
X155143200Y-97028000D01*
X150469600Y-106070400D02*
X148590000Y-107950000D01*
D15*
X174269400Y-110921800D02*
X173304200Y-110921800D01*
X162687000Y-93954600D02*
X162687000Y-93395800D01*
X158978600Y-97663000D02*
X162687000Y-93954600D01*
X158978600Y-107772200D02*
X158978600Y-97663000D01*
X161671000Y-110464600D02*
X158978600Y-107772200D01*
X172847000Y-110464600D02*
X161671000Y-110464600D01*
X173304200Y-110921800D02*
X172847000Y-110464600D01*
D16*
X173863000Y-110642400D02*
X174091600Y-110413800D01*
D15*
X176809400Y-110921800D02*
X176453800Y-110921800D01*
X176453800Y-110921800D02*
X175183800Y-109651800D01*
X175183800Y-109651800D02*
X172897800Y-109651800D01*
X172897800Y-109651800D02*
X172542200Y-110007400D01*
X172542200Y-110007400D02*
X162128200Y-110007400D01*
X162128200Y-110007400D02*
X159537400Y-107416600D01*
X159537400Y-107416600D02*
X159537400Y-97815400D01*
X159537400Y-97815400D02*
X161671000Y-95681800D01*
X161671000Y-95681800D02*
X162737800Y-95681800D01*
X162737800Y-95681800D02*
X162788600Y-95631000D01*
X162788600Y-95631000D02*
X162788600Y-94919800D01*
D16*
X176631600Y-110413800D02*
X176631600Y-110413800D01*
X178130200Y-107873800D02*
X178130200Y-109601000D01*
X177266600Y-106959400D02*
X178130200Y-107873800D01*
X173710600Y-106959400D02*
X177266600Y-106959400D01*
X171272200Y-108356400D02*
X173710600Y-106959400D01*
X162483800Y-108356400D02*
X171272200Y-108356400D01*
X160352803Y-107029091D02*
X162483800Y-108356400D01*
X160375600Y-98120200D02*
X160352803Y-107029091D01*
X160350200Y-98094800D02*
X160375600Y-98120200D01*
X178130200Y-109601000D02*
X179171600Y-110413800D01*
D18*
G36*
X158243600Y-107772200D02*
X158278967Y-107950000D01*
X158299549Y-108053472D01*
X158458877Y-108291923D01*
X161151277Y-110984324D01*
X161389728Y-111143651D01*
X161671000Y-111199600D01*
X172542554Y-111199600D01*
X172784476Y-111441523D01*
X172844755Y-111481800D01*
X155325945Y-111481800D01*
X155446118Y-111150521D01*
X155419715Y-110560342D01*
X155244659Y-110137720D01*
X154993358Y-110057447D01*
X154129005Y-110921800D01*
X154143148Y-110935943D01*
X153963543Y-111115548D01*
X153949400Y-111101405D01*
X153935258Y-111115548D01*
X153755653Y-110935943D01*
X153769795Y-110921800D01*
X152905442Y-110057447D01*
X152679400Y-110129652D01*
X152453358Y-110057447D01*
X151589005Y-110921800D01*
X151603148Y-110935943D01*
X151423543Y-111115548D01*
X151409400Y-111101405D01*
X151395258Y-111115548D01*
X151215653Y-110935943D01*
X151229795Y-110921800D01*
X150365442Y-110057447D01*
X150147760Y-110126981D01*
X150129056Y-110081714D01*
X149711683Y-109663612D01*
X149683843Y-109652052D01*
X149709486Y-109641456D01*
X150127588Y-109224083D01*
X150139148Y-109196243D01*
X150149744Y-109221886D01*
X150567117Y-109639988D01*
X150614712Y-109659751D01*
X150545047Y-109877842D01*
X151409400Y-110742195D01*
X152273753Y-109877842D01*
X152204219Y-109660160D01*
X152249486Y-109641456D01*
X152667588Y-109224083D01*
X152679148Y-109196243D01*
X152689744Y-109221886D01*
X153107117Y-109639988D01*
X153154712Y-109659751D01*
X153085047Y-109877842D01*
X153949400Y-110742195D01*
X154813753Y-109877842D01*
X154744219Y-109660160D01*
X154789486Y-109641456D01*
X155207588Y-109224083D01*
X155434142Y-108678481D01*
X155434156Y-108662230D01*
X155484839Y-108652148D01*
X155731401Y-108487401D01*
X158243600Y-105975202D01*
X158243600Y-107772200D01*
X158243600Y-107772200D01*
G37*
X158243600Y-107772200D02*
X158278967Y-107950000D01*
X158299549Y-108053472D01*
X158458877Y-108291923D01*
X161151277Y-110984324D01*
X161389728Y-111143651D01*
X161671000Y-111199600D01*
X172542554Y-111199600D01*
X172784476Y-111441523D01*
X172844755Y-111481800D01*
X155325945Y-111481800D01*
X155446118Y-111150521D01*
X155419715Y-110560342D01*
X155244659Y-110137720D01*
X154993358Y-110057447D01*
X154129005Y-110921800D01*
X154143148Y-110935943D01*
X153963543Y-111115548D01*
X153949400Y-111101405D01*
X153935258Y-111115548D01*
X153755653Y-110935943D01*
X153769795Y-110921800D01*
X152905442Y-110057447D01*
X152679400Y-110129652D01*
X152453358Y-110057447D01*
X151589005Y-110921800D01*
X151603148Y-110935943D01*
X151423543Y-111115548D01*
X151409400Y-111101405D01*
X151395258Y-111115548D01*
X151215653Y-110935943D01*
X151229795Y-110921800D01*
X150365442Y-110057447D01*
X150147760Y-110126981D01*
X150129056Y-110081714D01*
X149711683Y-109663612D01*
X149683843Y-109652052D01*
X149709486Y-109641456D01*
X150127588Y-109224083D01*
X150139148Y-109196243D01*
X150149744Y-109221886D01*
X150567117Y-109639988D01*
X150614712Y-109659751D01*
X150545047Y-109877842D01*
X151409400Y-110742195D01*
X152273753Y-109877842D01*
X152204219Y-109660160D01*
X152249486Y-109641456D01*
X152667588Y-109224083D01*
X152679148Y-109196243D01*
X152689744Y-109221886D01*
X153107117Y-109639988D01*
X153154712Y-109659751D01*
X153085047Y-109877842D01*
X153949400Y-110742195D01*
X154813753Y-109877842D01*
X154744219Y-109660160D01*
X154789486Y-109641456D01*
X155207588Y-109224083D01*
X155434142Y-108678481D01*
X155434156Y-108662230D01*
X155484839Y-108652148D01*
X155731401Y-108487401D01*
X158243600Y-105975202D01*
X158243600Y-107772200D01*
G36*
X177003148Y-108367658D02*
X176989005Y-108381800D01*
X177003148Y-108395943D01*
X176823543Y-108575548D01*
X176809400Y-108561405D01*
X176795258Y-108575548D01*
X176615653Y-108395943D01*
X176629795Y-108381800D01*
X176615653Y-108367658D01*
X176795258Y-108188053D01*
X176809400Y-108202195D01*
X176823543Y-108188053D01*
X177003148Y-108367658D01*
X177003148Y-108367658D01*
G37*
X177003148Y-108367658D02*
X176989005Y-108381800D01*
X177003148Y-108395943D01*
X176823543Y-108575548D01*
X176809400Y-108561405D01*
X176795258Y-108575548D01*
X176615653Y-108395943D01*
X176629795Y-108381800D01*
X176615653Y-108367658D01*
X176795258Y-108188053D01*
X176809400Y-108202195D01*
X176823543Y-108188053D01*
X177003148Y-108367658D01*
G36*
X174463148Y-108367658D02*
X174449005Y-108381800D01*
X174463148Y-108395943D01*
X174283543Y-108575548D01*
X174269400Y-108561405D01*
X174255258Y-108575548D01*
X174075653Y-108395943D01*
X174089795Y-108381800D01*
X174075653Y-108367658D01*
X174255258Y-108188053D01*
X174269400Y-108202195D01*
X174283543Y-108188053D01*
X174463148Y-108367658D01*
X174463148Y-108367658D01*
G37*
X174463148Y-108367658D02*
X174449005Y-108381800D01*
X174463148Y-108395943D01*
X174283543Y-108575548D01*
X174269400Y-108561405D01*
X174255258Y-108575548D01*
X174075653Y-108395943D01*
X174089795Y-108381800D01*
X174075653Y-108367658D01*
X174255258Y-108188053D01*
X174269400Y-108202195D01*
X174283543Y-108188053D01*
X174463148Y-108367658D01*
G36*
X179715177Y-93633944D02*
X179809939Y-93697261D01*
X179873256Y-93792023D01*
X179909400Y-93973730D01*
X179909400Y-99970054D01*
X179844090Y-99868559D01*
X179631890Y-99723569D01*
X179380000Y-99672560D01*
X174680000Y-99672560D01*
X174444683Y-99716838D01*
X174228559Y-99855910D01*
X174083569Y-100068110D01*
X174032560Y-100320000D01*
X174032560Y-103718393D01*
X170866154Y-106884800D01*
X163426819Y-106884800D01*
X163369727Y-106827608D01*
X163026199Y-106684962D01*
X162654233Y-106684638D01*
X162310457Y-106826683D01*
X162047208Y-107089473D01*
X162014340Y-107168627D01*
X161113884Y-106607770D01*
X161115966Y-105793992D01*
X161230302Y-105908327D01*
X161463691Y-106005000D01*
X163804250Y-106005000D01*
X163963000Y-105846250D01*
X163963000Y-105714800D01*
X164217000Y-105714800D01*
X164217000Y-105846250D01*
X164375750Y-106005000D01*
X166716309Y-106005000D01*
X166949698Y-105908327D01*
X167128327Y-105729699D01*
X167134498Y-105714800D01*
X169951400Y-105714800D01*
X169997559Y-105706115D01*
X170039953Y-105678835D01*
X170068394Y-105637210D01*
X170078400Y-105587800D01*
X170078400Y-93597800D01*
X179533469Y-93597800D01*
X179715177Y-93633944D01*
X179715177Y-93633944D01*
G37*
X179715177Y-93633944D02*
X179809939Y-93697261D01*
X179873256Y-93792023D01*
X179909400Y-93973730D01*
X179909400Y-99970054D01*
X179844090Y-99868559D01*
X179631890Y-99723569D01*
X179380000Y-99672560D01*
X174680000Y-99672560D01*
X174444683Y-99716838D01*
X174228559Y-99855910D01*
X174083569Y-100068110D01*
X174032560Y-100320000D01*
X174032560Y-103718393D01*
X170866154Y-106884800D01*
X163426819Y-106884800D01*
X163369727Y-106827608D01*
X163026199Y-106684962D01*
X162654233Y-106684638D01*
X162310457Y-106826683D01*
X162047208Y-107089473D01*
X162014340Y-107168627D01*
X161113884Y-106607770D01*
X161115966Y-105793992D01*
X161230302Y-105908327D01*
X161463691Y-106005000D01*
X163804250Y-106005000D01*
X163963000Y-105846250D01*
X163963000Y-105714800D01*
X164217000Y-105714800D01*
X164217000Y-105846250D01*
X164375750Y-106005000D01*
X166716309Y-106005000D01*
X166949698Y-105908327D01*
X167128327Y-105729699D01*
X167134498Y-105714800D01*
X169951400Y-105714800D01*
X169997559Y-105706115D01*
X170039953Y-105678835D01*
X170068394Y-105637210D01*
X170078400Y-105587800D01*
X170078400Y-93597800D01*
X179533469Y-93597800D01*
X179715177Y-93633944D01*
G36*
X150520400Y-96702983D02*
X150336359Y-96626562D01*
X149964393Y-96626238D01*
X149620617Y-96768283D01*
X149357368Y-97031073D01*
X149214722Y-97374601D01*
X149214398Y-97746567D01*
X149356443Y-98090343D01*
X149619233Y-98353592D01*
X149962761Y-98496238D01*
X150334727Y-98496562D01*
X150520400Y-98419844D01*
X150520400Y-99271762D01*
X150451287Y-99202528D01*
X150107759Y-99059882D01*
X149735793Y-99059558D01*
X149392017Y-99201603D01*
X149128768Y-99464393D01*
X149042329Y-99672560D01*
X148780000Y-99672560D01*
X148544683Y-99716838D01*
X148328559Y-99855910D01*
X148309400Y-99883950D01*
X148309400Y-93973731D01*
X148345544Y-93792023D01*
X148408861Y-93697261D01*
X148503623Y-93633944D01*
X148685330Y-93597800D01*
X150520400Y-93597800D01*
X150520400Y-96702983D01*
X150520400Y-96702983D01*
G37*
X150520400Y-96702983D02*
X150336359Y-96626562D01*
X149964393Y-96626238D01*
X149620617Y-96768283D01*
X149357368Y-97031073D01*
X149214722Y-97374601D01*
X149214398Y-97746567D01*
X149356443Y-98090343D01*
X149619233Y-98353592D01*
X149962761Y-98496238D01*
X150334727Y-98496562D01*
X150520400Y-98419844D01*
X150520400Y-99271762D01*
X150451287Y-99202528D01*
X150107759Y-99059882D01*
X149735793Y-99059558D01*
X149392017Y-99201603D01*
X149128768Y-99464393D01*
X149042329Y-99672560D01*
X148780000Y-99672560D01*
X148544683Y-99716838D01*
X148328559Y-99855910D01*
X148309400Y-99883950D01*
X148309400Y-93973731D01*
X148345544Y-93792023D01*
X148408861Y-93697261D01*
X148503623Y-93633944D01*
X148685330Y-93597800D01*
X150520400Y-93597800D01*
X150520400Y-96702983D01*
M02*
