G04 #@! TF.FileFunction,Copper,L1,Top,Signal*
%FSLAX46Y46*%
G04 Gerber Fmt 4.6, Leading zero omitted, Abs format (unit mm)*
G04 Created by KiCad (PCBNEW 4.0.2+dfsg1-stable) date 2016年12月02日 11時36分25秒*
%MOMM*%
G01*
G04 APERTURE LIST*
%ADD10C,0.100000*%
%ADD11R,0.430000X0.280000*%
%ADD12R,0.350000X0.300000*%
%ADD13C,1.700000*%
%ADD14R,0.300000X0.500000*%
%ADD15R,0.250000X0.550000*%
%ADD16R,0.550000X0.250000*%
%ADD17R,0.300000X0.300000*%
%ADD18C,0.600000*%
%ADD19C,0.200000*%
%ADD20C,0.250000*%
%ADD21C,3.000000*%
%ADD22C,0.400000*%
%ADD23C,0.254000*%
G04 APERTURE END LIST*
D10*
D11*
X149123400Y-96950800D03*
X149123400Y-97460800D03*
D12*
X149123400Y-94940800D03*
X149123400Y-94390800D03*
D13*
X153949400Y-108381800D03*
X151409400Y-108381800D03*
X148869400Y-108381800D03*
X179349400Y-108381800D03*
X176809400Y-108381800D03*
X174269400Y-108381800D03*
X174269400Y-110921800D03*
X176809400Y-110921800D03*
X179349400Y-110921800D03*
X148869400Y-110921800D03*
X151409400Y-110921800D03*
X153949400Y-110921800D03*
D14*
X161831000Y-93344000D03*
D15*
X161306000Y-93369000D03*
X160806000Y-93369000D03*
X160306000Y-93369000D03*
X159806000Y-93369000D03*
X159306000Y-93369000D03*
X158806000Y-93369000D03*
X158306000Y-93369000D03*
X157806000Y-93369000D03*
X157306000Y-93369000D03*
X156806000Y-93369000D03*
D14*
X156281000Y-93344000D03*
D16*
X156211000Y-93964000D03*
X156211000Y-94464000D03*
X156211000Y-96964000D03*
X156211000Y-94964000D03*
X156211000Y-95464000D03*
X156211000Y-95964000D03*
X156211000Y-96464000D03*
X156211000Y-97464000D03*
X156211000Y-97964000D03*
X156211000Y-98464000D03*
D14*
X156281000Y-99084000D03*
D15*
X156806000Y-99059000D03*
X157306000Y-99059000D03*
X157806000Y-99059000D03*
X158306000Y-99059000D03*
X158806000Y-99059000D03*
X159306000Y-99059000D03*
X159806000Y-99059000D03*
X160306000Y-99059000D03*
X160806000Y-99059000D03*
X161306000Y-99059000D03*
D14*
X161831000Y-99084000D03*
D16*
X161901000Y-98464000D03*
X161901000Y-97964000D03*
X161901000Y-97464000D03*
X161901000Y-96964000D03*
X161901000Y-96464000D03*
X161901000Y-95964000D03*
X161901000Y-95464000D03*
X161901000Y-94964000D03*
X161901000Y-94464000D03*
X161901000Y-93964000D03*
D17*
X159606000Y-95664000D03*
X158506000Y-95664000D03*
X158506000Y-96764000D03*
X159606000Y-96764000D03*
D18*
X162839400Y-107619800D03*
X149920960Y-99994720D03*
X150190200Y-105384600D03*
X156438600Y-99847400D03*
X150149560Y-97561400D03*
X164063680Y-106563160D03*
X150042880Y-96012000D03*
X161010600Y-94310200D03*
X159283400Y-94361000D03*
X158292800Y-98094800D03*
X157581600Y-96774000D03*
X155092400Y-96977200D03*
X162687000Y-93395800D03*
X162788600Y-94919800D03*
X160350200Y-98094800D03*
D19*
X150189259Y-106552917D02*
X150189259Y-106552921D01*
X161772517Y-106552917D02*
X150189259Y-106552917D01*
X162839400Y-107619800D02*
X161772517Y-106552917D01*
X149123400Y-94940800D02*
X149123400Y-96950800D01*
X149123400Y-96950800D02*
X149078680Y-96906080D01*
X149078680Y-96906080D02*
X148336000Y-96906080D01*
X148336000Y-96906080D02*
X148518880Y-97088960D01*
X148518880Y-97088960D02*
X148518880Y-98612960D01*
X148518880Y-98612960D02*
X149900640Y-99994720D01*
X149900640Y-99994720D02*
X149920960Y-99994720D01*
X160806000Y-93369000D02*
X160806000Y-93651200D01*
X160299400Y-95046800D02*
X161901000Y-95464000D01*
X160234000Y-95112200D02*
X160299400Y-95046800D01*
X160299400Y-94157800D02*
X160234000Y-95112200D01*
X160806000Y-93651200D02*
X160299400Y-94157800D01*
D20*
X148590000Y-110490000D02*
X148678900Y-110490000D01*
X148678900Y-110490000D02*
X150186446Y-110045469D01*
X150186446Y-110045469D02*
X150189259Y-106552921D01*
X150189259Y-106552921D02*
X150190200Y-105384600D01*
D19*
X157306000Y-99059000D02*
X157306000Y-99691200D01*
X157306000Y-99691200D02*
X157149800Y-99847400D01*
X157149800Y-99847400D02*
X156438600Y-99847400D01*
X150149560Y-97561400D02*
X150124160Y-97586800D01*
X150124160Y-97586800D02*
X149138640Y-97459800D01*
D21*
X153543000Y-103652251D02*
X152593040Y-103652251D01*
X167388540Y-103601520D02*
X167388540Y-95582740D01*
X152593040Y-103652251D02*
X152620980Y-103680191D01*
X152620980Y-103680191D02*
X166103300Y-103629460D01*
X166103300Y-103629460D02*
X166159180Y-103685340D01*
X166159180Y-103685340D02*
X167472360Y-103685340D01*
X167472360Y-103685340D02*
X167388540Y-103601520D01*
D19*
X153338080Y-103447331D02*
X153543000Y-103652251D01*
X153543000Y-103652251D02*
X153626820Y-103652251D01*
X151261750Y-103396600D02*
X153338080Y-103447331D01*
D22*
X151220800Y-95464000D02*
X151302720Y-95545920D01*
X151302720Y-95545920D02*
X151261750Y-103396600D01*
X151261750Y-103396600D02*
X151200790Y-103457560D01*
X156211000Y-95464000D02*
X151220800Y-95464000D01*
D19*
X149997840Y-94390800D02*
X149123400Y-94390800D01*
X150063200Y-94325440D02*
X149997840Y-94390800D01*
X150063200Y-95991680D02*
X150063200Y-94325440D01*
X150042880Y-96012000D02*
X150063200Y-95991680D01*
X159606000Y-95664000D02*
X159606000Y-94683600D01*
X159606000Y-94683600D02*
X159283400Y-94361000D01*
X161306000Y-93369000D02*
X161306000Y-94014800D01*
X161306000Y-94014800D02*
X161010600Y-94310200D01*
X159306000Y-94338400D02*
X159306000Y-93369000D01*
X159283400Y-94361000D02*
X159306000Y-94338400D01*
D20*
X158506000Y-95664000D02*
X156370000Y-95664000D01*
X156370000Y-95664000D02*
X156211000Y-95505000D01*
X156211000Y-95505000D02*
X156211000Y-95464000D01*
X159606000Y-95524800D02*
X159606000Y-95664000D01*
X156281000Y-99084000D02*
X156781000Y-99084000D01*
X156781000Y-99084000D02*
X156845000Y-99020000D01*
X156845000Y-99020000D02*
X156845000Y-98399600D01*
X156845000Y-98399600D02*
X157780600Y-97464000D01*
X156211000Y-97464000D02*
X157780600Y-97464000D01*
X157780600Y-97464000D02*
X157789000Y-97464000D01*
X157789000Y-97464000D02*
X158489000Y-96764000D01*
X158489000Y-96764000D02*
X158506000Y-96764000D01*
X159606000Y-96764000D02*
X158506000Y-96764000D01*
X158506000Y-96764000D02*
X158506000Y-95664000D01*
X158506000Y-95664000D02*
X159606000Y-95664000D01*
X159606000Y-95664000D02*
X159606000Y-96764000D01*
X159306000Y-99059000D02*
X159306000Y-97064000D01*
X159306000Y-97064000D02*
X159606000Y-96764000D01*
X156806000Y-93369000D02*
X156306000Y-93369000D01*
X156306000Y-93369000D02*
X156211000Y-93464000D01*
X156211000Y-93464000D02*
X156211000Y-95964000D01*
X158306000Y-93369000D02*
X158306000Y-95464000D01*
X158306000Y-95464000D02*
X158506000Y-95664000D01*
X157806000Y-93369000D02*
X160306000Y-93369000D01*
X158306000Y-99059000D02*
X158306000Y-98108000D01*
X158306000Y-98108000D02*
X158292800Y-98094800D01*
X156211000Y-96464000D02*
X157525600Y-96718000D01*
X157525600Y-96718000D02*
X157581600Y-96774000D01*
X156211000Y-96964000D02*
X155105600Y-96964000D01*
X155105600Y-96964000D02*
X155092400Y-96977200D01*
D19*
X162635200Y-93344000D02*
X161831000Y-93344000D01*
X162687000Y-93395800D02*
X162635200Y-93344000D01*
X162788600Y-94919800D02*
X162744400Y-94964000D01*
X162744400Y-94964000D02*
X161901000Y-94964000D01*
D20*
X160832800Y-96316800D02*
X160350200Y-98094800D01*
X161901000Y-95964000D02*
X161185600Y-95964000D01*
X161185600Y-95964000D02*
X160832800Y-96316800D01*
D23*
G36*
X179715177Y-93633944D02*
X179809939Y-93697261D01*
X179873256Y-93792023D01*
X179909400Y-93973730D01*
X179909400Y-107006398D01*
X179646081Y-106897058D01*
X179055311Y-106896543D01*
X178509314Y-107122144D01*
X178091212Y-107539517D01*
X178071449Y-107587112D01*
X177853358Y-107517447D01*
X176989005Y-108381800D01*
X177853358Y-109246153D01*
X178071040Y-109176619D01*
X178089744Y-109221886D01*
X178507117Y-109639988D01*
X178534957Y-109651548D01*
X178509314Y-109662144D01*
X178091212Y-110079517D01*
X178079652Y-110107357D01*
X178069056Y-110081714D01*
X177651683Y-109663612D01*
X177604088Y-109643849D01*
X177673753Y-109425758D01*
X176809400Y-108561405D01*
X175945047Y-109425758D01*
X176014581Y-109643440D01*
X175969314Y-109662144D01*
X175551212Y-110079517D01*
X175539652Y-110107357D01*
X175529056Y-110081714D01*
X175111683Y-109663612D01*
X175064088Y-109643849D01*
X175133753Y-109425758D01*
X174269400Y-108561405D01*
X173405047Y-109425758D01*
X173474581Y-109643440D01*
X173429314Y-109662144D01*
X173011212Y-110079517D01*
X172784658Y-110625119D01*
X172784143Y-111215889D01*
X172894015Y-111481800D01*
X155325945Y-111481800D01*
X155446118Y-111150521D01*
X155419715Y-110560342D01*
X155244659Y-110137720D01*
X154993358Y-110057447D01*
X154129005Y-110921800D01*
X154143148Y-110935943D01*
X153963543Y-111115548D01*
X153949400Y-111101405D01*
X153935258Y-111115548D01*
X153755653Y-110935943D01*
X153769795Y-110921800D01*
X152905442Y-110057447D01*
X152679400Y-110129652D01*
X152453358Y-110057447D01*
X151589005Y-110921800D01*
X151603148Y-110935943D01*
X151423543Y-111115548D01*
X151409400Y-111101405D01*
X151395258Y-111115548D01*
X151215653Y-110935943D01*
X151229795Y-110921800D01*
X151215653Y-110907658D01*
X151395258Y-110728053D01*
X151409400Y-110742195D01*
X152273753Y-109877842D01*
X152204219Y-109660160D01*
X152249486Y-109641456D01*
X152667588Y-109224083D01*
X152679148Y-109196243D01*
X152689744Y-109221886D01*
X153107117Y-109639988D01*
X153154712Y-109659751D01*
X153085047Y-109877842D01*
X153949400Y-110742195D01*
X154813753Y-109877842D01*
X154744219Y-109660160D01*
X154789486Y-109641456D01*
X155207588Y-109224083D01*
X155434142Y-108678481D01*
X155434657Y-108087711D01*
X155209056Y-107541714D01*
X154955702Y-107287917D01*
X161468071Y-107287917D01*
X161904308Y-107724155D01*
X161904238Y-107804967D01*
X162046283Y-108148743D01*
X162309073Y-108411992D01*
X162652601Y-108554638D01*
X163024567Y-108554962D01*
X163368343Y-108412917D01*
X163628634Y-108153079D01*
X172772682Y-108153079D01*
X172799085Y-108743258D01*
X172974141Y-109165880D01*
X173225442Y-109246153D01*
X174089795Y-108381800D01*
X174449005Y-108381800D01*
X175313358Y-109246153D01*
X175539400Y-109173948D01*
X175765442Y-109246153D01*
X176629795Y-108381800D01*
X175765442Y-107517447D01*
X175539400Y-107589652D01*
X175313358Y-107517447D01*
X174449005Y-108381800D01*
X174089795Y-108381800D01*
X173225442Y-107517447D01*
X172974141Y-107597720D01*
X172772682Y-108153079D01*
X163628634Y-108153079D01*
X163631592Y-108150127D01*
X163774238Y-107806599D01*
X163774562Y-107434633D01*
X163734569Y-107337842D01*
X173405047Y-107337842D01*
X174269400Y-108202195D01*
X175133753Y-107337842D01*
X175945047Y-107337842D01*
X176809400Y-108202195D01*
X177673753Y-107337842D01*
X177593480Y-107086541D01*
X177038121Y-106885082D01*
X176447942Y-106911485D01*
X176025320Y-107086541D01*
X175945047Y-107337842D01*
X175133753Y-107337842D01*
X175053480Y-107086541D01*
X174498121Y-106885082D01*
X173907942Y-106911485D01*
X173485320Y-107086541D01*
X173405047Y-107337842D01*
X163734569Y-107337842D01*
X163632517Y-107090857D01*
X163369727Y-106827608D01*
X163026199Y-106684962D01*
X162943937Y-106684890D01*
X162292240Y-106033194D01*
X162104635Y-105907840D01*
X169875200Y-105907840D01*
X169921359Y-105899155D01*
X169963753Y-105871875D01*
X169992194Y-105830250D01*
X170002200Y-105780840D01*
X170002200Y-93597800D01*
X179533469Y-93597800D01*
X179715177Y-93633944D01*
X179715177Y-93633944D01*
G37*
X179715177Y-93633944D02*
X179809939Y-93697261D01*
X179873256Y-93792023D01*
X179909400Y-93973730D01*
X179909400Y-107006398D01*
X179646081Y-106897058D01*
X179055311Y-106896543D01*
X178509314Y-107122144D01*
X178091212Y-107539517D01*
X178071449Y-107587112D01*
X177853358Y-107517447D01*
X176989005Y-108381800D01*
X177853358Y-109246153D01*
X178071040Y-109176619D01*
X178089744Y-109221886D01*
X178507117Y-109639988D01*
X178534957Y-109651548D01*
X178509314Y-109662144D01*
X178091212Y-110079517D01*
X178079652Y-110107357D01*
X178069056Y-110081714D01*
X177651683Y-109663612D01*
X177604088Y-109643849D01*
X177673753Y-109425758D01*
X176809400Y-108561405D01*
X175945047Y-109425758D01*
X176014581Y-109643440D01*
X175969314Y-109662144D01*
X175551212Y-110079517D01*
X175539652Y-110107357D01*
X175529056Y-110081714D01*
X175111683Y-109663612D01*
X175064088Y-109643849D01*
X175133753Y-109425758D01*
X174269400Y-108561405D01*
X173405047Y-109425758D01*
X173474581Y-109643440D01*
X173429314Y-109662144D01*
X173011212Y-110079517D01*
X172784658Y-110625119D01*
X172784143Y-111215889D01*
X172894015Y-111481800D01*
X155325945Y-111481800D01*
X155446118Y-111150521D01*
X155419715Y-110560342D01*
X155244659Y-110137720D01*
X154993358Y-110057447D01*
X154129005Y-110921800D01*
X154143148Y-110935943D01*
X153963543Y-111115548D01*
X153949400Y-111101405D01*
X153935258Y-111115548D01*
X153755653Y-110935943D01*
X153769795Y-110921800D01*
X152905442Y-110057447D01*
X152679400Y-110129652D01*
X152453358Y-110057447D01*
X151589005Y-110921800D01*
X151603148Y-110935943D01*
X151423543Y-111115548D01*
X151409400Y-111101405D01*
X151395258Y-111115548D01*
X151215653Y-110935943D01*
X151229795Y-110921800D01*
X151215653Y-110907658D01*
X151395258Y-110728053D01*
X151409400Y-110742195D01*
X152273753Y-109877842D01*
X152204219Y-109660160D01*
X152249486Y-109641456D01*
X152667588Y-109224083D01*
X152679148Y-109196243D01*
X152689744Y-109221886D01*
X153107117Y-109639988D01*
X153154712Y-109659751D01*
X153085047Y-109877842D01*
X153949400Y-110742195D01*
X154813753Y-109877842D01*
X154744219Y-109660160D01*
X154789486Y-109641456D01*
X155207588Y-109224083D01*
X155434142Y-108678481D01*
X155434657Y-108087711D01*
X155209056Y-107541714D01*
X154955702Y-107287917D01*
X161468071Y-107287917D01*
X161904308Y-107724155D01*
X161904238Y-107804967D01*
X162046283Y-108148743D01*
X162309073Y-108411992D01*
X162652601Y-108554638D01*
X163024567Y-108554962D01*
X163368343Y-108412917D01*
X163628634Y-108153079D01*
X172772682Y-108153079D01*
X172799085Y-108743258D01*
X172974141Y-109165880D01*
X173225442Y-109246153D01*
X174089795Y-108381800D01*
X174449005Y-108381800D01*
X175313358Y-109246153D01*
X175539400Y-109173948D01*
X175765442Y-109246153D01*
X176629795Y-108381800D01*
X175765442Y-107517447D01*
X175539400Y-107589652D01*
X175313358Y-107517447D01*
X174449005Y-108381800D01*
X174089795Y-108381800D01*
X173225442Y-107517447D01*
X172974141Y-107597720D01*
X172772682Y-108153079D01*
X163628634Y-108153079D01*
X163631592Y-108150127D01*
X163774238Y-107806599D01*
X163774562Y-107434633D01*
X163734569Y-107337842D01*
X173405047Y-107337842D01*
X174269400Y-108202195D01*
X175133753Y-107337842D01*
X175945047Y-107337842D01*
X176809400Y-108202195D01*
X177673753Y-107337842D01*
X177593480Y-107086541D01*
X177038121Y-106885082D01*
X176447942Y-106911485D01*
X176025320Y-107086541D01*
X175945047Y-107337842D01*
X175133753Y-107337842D01*
X175053480Y-107086541D01*
X174498121Y-106885082D01*
X173907942Y-106911485D01*
X173485320Y-107086541D01*
X173405047Y-107337842D01*
X163734569Y-107337842D01*
X163632517Y-107090857D01*
X163369727Y-106827608D01*
X163026199Y-106684962D01*
X162943937Y-106684890D01*
X162292240Y-106033194D01*
X162104635Y-105907840D01*
X169875200Y-105907840D01*
X169921359Y-105899155D01*
X169963753Y-105871875D01*
X169992194Y-105830250D01*
X170002200Y-105780840D01*
X170002200Y-93597800D01*
X179533469Y-93597800D01*
X179715177Y-93633944D01*
G36*
X150581360Y-96728296D02*
X150336359Y-96626562D01*
X149964393Y-96626238D01*
X149952070Y-96631330D01*
X149941562Y-96575483D01*
X149858400Y-96446246D01*
X149858400Y-95396009D01*
X149894831Y-95342690D01*
X149945840Y-95090800D01*
X149945840Y-94790800D01*
X149925950Y-94685095D01*
X149933400Y-94667109D01*
X149933400Y-94624550D01*
X149910191Y-94601341D01*
X149901562Y-94555483D01*
X149762490Y-94339359D01*
X149728010Y-94315800D01*
X149774650Y-94315800D01*
X149933400Y-94157050D01*
X149933400Y-94114491D01*
X149836727Y-93881102D01*
X149658099Y-93702473D01*
X149424710Y-93605800D01*
X149369650Y-93605800D01*
X149210900Y-93764550D01*
X149210900Y-94143360D01*
X149035900Y-94143360D01*
X149035900Y-93764550D01*
X148877150Y-93605800D01*
X148822090Y-93605800D01*
X148588701Y-93702473D01*
X148410073Y-93881102D01*
X148313400Y-94114491D01*
X148313400Y-94157050D01*
X148472150Y-94315800D01*
X148513914Y-94315800D01*
X148496959Y-94326710D01*
X148351969Y-94538910D01*
X148340016Y-94597934D01*
X148313400Y-94624550D01*
X148313400Y-94667109D01*
X148321868Y-94687553D01*
X148309400Y-94749122D01*
X148309400Y-93973731D01*
X148345544Y-93792023D01*
X148408861Y-93697261D01*
X148503623Y-93633944D01*
X148685330Y-93597800D01*
X150581360Y-93597800D01*
X150581360Y-96728296D01*
X150581360Y-96728296D01*
G37*
X150581360Y-96728296D02*
X150336359Y-96626562D01*
X149964393Y-96626238D01*
X149952070Y-96631330D01*
X149941562Y-96575483D01*
X149858400Y-96446246D01*
X149858400Y-95396009D01*
X149894831Y-95342690D01*
X149945840Y-95090800D01*
X149945840Y-94790800D01*
X149925950Y-94685095D01*
X149933400Y-94667109D01*
X149933400Y-94624550D01*
X149910191Y-94601341D01*
X149901562Y-94555483D01*
X149762490Y-94339359D01*
X149728010Y-94315800D01*
X149774650Y-94315800D01*
X149933400Y-94157050D01*
X149933400Y-94114491D01*
X149836727Y-93881102D01*
X149658099Y-93702473D01*
X149424710Y-93605800D01*
X149369650Y-93605800D01*
X149210900Y-93764550D01*
X149210900Y-94143360D01*
X149035900Y-94143360D01*
X149035900Y-93764550D01*
X148877150Y-93605800D01*
X148822090Y-93605800D01*
X148588701Y-93702473D01*
X148410073Y-93881102D01*
X148313400Y-94114491D01*
X148313400Y-94157050D01*
X148472150Y-94315800D01*
X148513914Y-94315800D01*
X148496959Y-94326710D01*
X148351969Y-94538910D01*
X148340016Y-94597934D01*
X148313400Y-94624550D01*
X148313400Y-94667109D01*
X148321868Y-94687553D01*
X148309400Y-94749122D01*
X148309400Y-93973731D01*
X148345544Y-93792023D01*
X148408861Y-93697261D01*
X148503623Y-93633944D01*
X148685330Y-93597800D01*
X150581360Y-93597800D01*
X150581360Y-96728296D01*
M02*
