M48
;DRILL file {KiCad 4.0.2+dfsg1-stable} date 2016年12月08日 20時15分28秒
;FORMAT={-:-/ absolute / metric / decimal}
FMAT,2
METRIC,TZ
T1C0.400
T2C1.016
%
G90
G05
M71
T1
X149.25Y-107.62
X149.758Y-99.111
X149.929Y-95.019
X150.19Y-105.385
X150.327Y-96.332
X150.393Y-99.873
X151.155Y-107.493
X157.378Y-96.952
X157.747Y-98.265
X157.963Y-96.52
X158.306Y-94.343
X159.055Y-97.358
X159.319Y-94.031
X160.172Y-94.793
X160.807Y-97.587
X161.188Y-94.92
X161.234Y-93.98
X162.331Y-93.37
X162.839Y-107.62
X164.064Y-106.563
T2
X148.869Y-109.652
X148.869Y-112.192
X151.409Y-109.652
X151.409Y-112.192
X153.949Y-109.652
X153.949Y-112.192
X174.269Y-109.652
X174.269Y-112.192
X176.809Y-109.652
X176.809Y-112.192
X179.349Y-109.652
X179.349Y-112.192
T0
M30
