G04 #@! TF.FileFunction,Legend,Bot*
%FSLAX46Y46*%
G04 Gerber Fmt 4.6, Leading zero omitted, Abs format (unit mm)*
G04 Created by KiCad (PCBNEW 4.0.2+dfsg1-stable) date 2016年12月08日 20時15分25秒*
%MOMM*%
G01*
G04 APERTURE LIST*
%ADD10C,0.100000*%
%ADD11C,0.150000*%
%ADD12C,0.200000*%
%ADD13C,0.125000*%
%ADD14C,0.010000*%
%ADD15R,5.100000X5.500000*%
%ADD16R,5.400000X5.400000*%
%ADD17R,4.400000X6.400000*%
%ADD18C,2.100000*%
G04 APERTURE END LIST*
D10*
D11*
X162014162Y-94943657D02*
X161966543Y-94896038D01*
X161823686Y-94848419D01*
X161728448Y-94848419D01*
X161585590Y-94896038D01*
X161490352Y-94991276D01*
X161442733Y-95086514D01*
X161395114Y-95276990D01*
X161395114Y-95419848D01*
X161442733Y-95610324D01*
X161490352Y-95705562D01*
X161585590Y-95800800D01*
X161728448Y-95848419D01*
X161823686Y-95848419D01*
X161966543Y-95800800D01*
X162014162Y-95753181D01*
X163014162Y-94848419D02*
X162680828Y-95324610D01*
X162442733Y-94848419D02*
X162442733Y-95848419D01*
X162823686Y-95848419D01*
X162918924Y-95800800D01*
X162966543Y-95753181D01*
X163014162Y-95657943D01*
X163014162Y-95515086D01*
X162966543Y-95419848D01*
X162918924Y-95372229D01*
X162823686Y-95324610D01*
X162442733Y-95324610D01*
X163395114Y-95753181D02*
X163442733Y-95800800D01*
X163537971Y-95848419D01*
X163776067Y-95848419D01*
X163871305Y-95800800D01*
X163918924Y-95753181D01*
X163966543Y-95657943D01*
X163966543Y-95562705D01*
X163918924Y-95419848D01*
X163347495Y-94848419D01*
X163966543Y-94848419D01*
X164585590Y-95848419D02*
X164680829Y-95848419D01*
X164776067Y-95800800D01*
X164823686Y-95753181D01*
X164871305Y-95657943D01*
X164918924Y-95467467D01*
X164918924Y-95229371D01*
X164871305Y-95038895D01*
X164823686Y-94943657D01*
X164776067Y-94896038D01*
X164680829Y-94848419D01*
X164585590Y-94848419D01*
X164490352Y-94896038D01*
X164442733Y-94943657D01*
X164395114Y-95038895D01*
X164347495Y-95229371D01*
X164347495Y-95467467D01*
X164395114Y-95657943D01*
X164442733Y-95753181D01*
X164490352Y-95800800D01*
X164585590Y-95848419D01*
X165252257Y-95848419D02*
X165871305Y-95848419D01*
X165537971Y-95467467D01*
X165680829Y-95467467D01*
X165776067Y-95419848D01*
X165823686Y-95372229D01*
X165871305Y-95276990D01*
X165871305Y-95038895D01*
X165823686Y-94943657D01*
X165776067Y-94896038D01*
X165680829Y-94848419D01*
X165395114Y-94848419D01*
X165299876Y-94896038D01*
X165252257Y-94943657D01*
X166252257Y-95753181D02*
X166299876Y-95800800D01*
X166395114Y-95848419D01*
X166633210Y-95848419D01*
X166728448Y-95800800D01*
X166776067Y-95753181D01*
X166823686Y-95657943D01*
X166823686Y-95562705D01*
X166776067Y-95419848D01*
X166204638Y-94848419D01*
X166823686Y-94848419D01*
D12*
X179873305Y-94953181D02*
X179873305Y-93953181D01*
X179873305Y-94429371D02*
X179301876Y-94429371D01*
X179301876Y-94953181D02*
X179301876Y-93953181D01*
X178397114Y-94953181D02*
X178397114Y-94429371D01*
X178444733Y-94334133D01*
X178539971Y-94286514D01*
X178730448Y-94286514D01*
X178825686Y-94334133D01*
X178397114Y-94905562D02*
X178492352Y-94953181D01*
X178730448Y-94953181D01*
X178825686Y-94905562D01*
X178873305Y-94810324D01*
X178873305Y-94715086D01*
X178825686Y-94619848D01*
X178730448Y-94572229D01*
X178492352Y-94572229D01*
X178397114Y-94524610D01*
X177444733Y-94953181D02*
X177920924Y-94953181D01*
X177920924Y-93953181D01*
X176682828Y-94953181D02*
X176682828Y-94429371D01*
X176730447Y-94334133D01*
X176825685Y-94286514D01*
X177016162Y-94286514D01*
X177111400Y-94334133D01*
X176682828Y-94905562D02*
X176778066Y-94953181D01*
X177016162Y-94953181D01*
X177111400Y-94905562D01*
X177159019Y-94810324D01*
X177159019Y-94715086D01*
X177111400Y-94619848D01*
X177016162Y-94572229D01*
X176778066Y-94572229D01*
X176682828Y-94524610D01*
X176206638Y-94953181D02*
X176206638Y-93953181D01*
X176111400Y-94572229D02*
X175825685Y-94953181D01*
X175825685Y-94286514D02*
X176206638Y-94667467D01*
X175016161Y-94905562D02*
X175111399Y-94953181D01*
X175301876Y-94953181D01*
X175397114Y-94905562D01*
X175444733Y-94810324D01*
X175444733Y-94429371D01*
X175397114Y-94334133D01*
X175301876Y-94286514D01*
X175111399Y-94286514D01*
X175016161Y-94334133D01*
X174968542Y-94429371D01*
X174968542Y-94524610D01*
X175444733Y-94619848D01*
X174539971Y-94953181D02*
X174539971Y-93953181D01*
X173968542Y-94953181D02*
X174397114Y-94381752D01*
X173968542Y-93953181D02*
X174539971Y-94524610D01*
X173539971Y-94953181D02*
X173539971Y-94286514D01*
X173539971Y-93953181D02*
X173587590Y-94000800D01*
X173539971Y-94048419D01*
X173492352Y-94000800D01*
X173539971Y-93953181D01*
X173539971Y-94048419D01*
X173206638Y-94286514D02*
X172825686Y-94286514D01*
X173063781Y-93953181D02*
X173063781Y-94810324D01*
X173016162Y-94905562D01*
X172920924Y-94953181D01*
X172825686Y-94953181D01*
X179397114Y-96553181D02*
X179873305Y-96553181D01*
X179873305Y-95553181D01*
X179063781Y-96553181D02*
X179063781Y-95886514D01*
X179063781Y-95553181D02*
X179111400Y-95600800D01*
X179063781Y-95648419D01*
X179016162Y-95600800D01*
X179063781Y-95553181D01*
X179063781Y-95648419D01*
X178587591Y-95886514D02*
X178587591Y-96553181D01*
X178587591Y-95981752D02*
X178539972Y-95934133D01*
X178444734Y-95886514D01*
X178301876Y-95886514D01*
X178206638Y-95934133D01*
X178159019Y-96029371D01*
X178159019Y-96553181D01*
X177539972Y-96553181D02*
X177635210Y-96505562D01*
X177682829Y-96457943D01*
X177730448Y-96362705D01*
X177730448Y-96076990D01*
X177682829Y-95981752D01*
X177635210Y-95934133D01*
X177539972Y-95886514D01*
X177397114Y-95886514D01*
X177301876Y-95934133D01*
X177254257Y-95981752D01*
X177206638Y-96076990D01*
X177206638Y-96362705D01*
X177254257Y-96457943D01*
X177301876Y-96505562D01*
X177397114Y-96553181D01*
X177539972Y-96553181D01*
D13*
X180214495Y-111005133D02*
X179976400Y-111005133D01*
X180262114Y-111147990D02*
X180095447Y-110647990D01*
X179928781Y-111147990D01*
X179762114Y-111147990D02*
X179762114Y-110647990D01*
X179428781Y-110647990D02*
X179333543Y-110647990D01*
X179285924Y-110671800D01*
X179238305Y-110719419D01*
X179214496Y-110814657D01*
X179214496Y-110981324D01*
X179238305Y-111076562D01*
X179285924Y-111124181D01*
X179333543Y-111147990D01*
X179428781Y-111147990D01*
X179476400Y-111124181D01*
X179524019Y-111076562D01*
X179547829Y-110981324D01*
X179547829Y-110814657D01*
X179524019Y-110719419D01*
X179476400Y-110671800D01*
X179428781Y-110647990D01*
X178904971Y-110647990D02*
X178857352Y-110647990D01*
X178809733Y-110671800D01*
X178785924Y-110695610D01*
X178762114Y-110743229D01*
X178738305Y-110838467D01*
X178738305Y-110957514D01*
X178762114Y-111052752D01*
X178785924Y-111100371D01*
X178809733Y-111124181D01*
X178857352Y-111147990D01*
X178904971Y-111147990D01*
X178952590Y-111124181D01*
X178976400Y-111100371D01*
X179000209Y-111052752D01*
X179024019Y-110957514D01*
X179024019Y-110838467D01*
X179000209Y-110743229D01*
X178976400Y-110695610D01*
X178952590Y-110671800D01*
X178904971Y-110647990D01*
X175146399Y-111147990D02*
X175146399Y-110647990D01*
X174955923Y-110647990D01*
X174908304Y-110671800D01*
X174884495Y-110695610D01*
X174860685Y-110743229D01*
X174860685Y-110814657D01*
X174884495Y-110862276D01*
X174908304Y-110886086D01*
X174955923Y-110909895D01*
X175146399Y-110909895D01*
X174646399Y-111147990D02*
X174646399Y-110647990D01*
X174313066Y-110647990D02*
X174217828Y-110647990D01*
X174170209Y-110671800D01*
X174122590Y-110719419D01*
X174098781Y-110814657D01*
X174098781Y-110981324D01*
X174122590Y-111076562D01*
X174170209Y-111124181D01*
X174217828Y-111147990D01*
X174313066Y-111147990D01*
X174360685Y-111124181D01*
X174408304Y-111076562D01*
X174432114Y-110981324D01*
X174432114Y-110814657D01*
X174408304Y-110719419D01*
X174360685Y-110671800D01*
X174313066Y-110647990D01*
X173622590Y-111147990D02*
X173908304Y-111147990D01*
X173765447Y-111147990D02*
X173765447Y-110647990D01*
X173813066Y-110719419D01*
X173860685Y-110767038D01*
X173908304Y-110790848D01*
X177686399Y-111147990D02*
X177686399Y-110647990D01*
X177495923Y-110647990D01*
X177448304Y-110671800D01*
X177424495Y-110695610D01*
X177400685Y-110743229D01*
X177400685Y-110814657D01*
X177424495Y-110862276D01*
X177448304Y-110886086D01*
X177495923Y-110909895D01*
X177686399Y-110909895D01*
X177186399Y-111147990D02*
X177186399Y-110647990D01*
X176853066Y-110647990D02*
X176757828Y-110647990D01*
X176710209Y-110671800D01*
X176662590Y-110719419D01*
X176638781Y-110814657D01*
X176638781Y-110981324D01*
X176662590Y-111076562D01*
X176710209Y-111124181D01*
X176757828Y-111147990D01*
X176853066Y-111147990D01*
X176900685Y-111124181D01*
X176948304Y-111076562D01*
X176972114Y-110981324D01*
X176972114Y-110814657D01*
X176948304Y-110719419D01*
X176900685Y-110671800D01*
X176853066Y-110647990D01*
X176329256Y-110647990D02*
X176281637Y-110647990D01*
X176234018Y-110671800D01*
X176210209Y-110695610D01*
X176186399Y-110743229D01*
X176162590Y-110838467D01*
X176162590Y-110957514D01*
X176186399Y-111052752D01*
X176210209Y-111100371D01*
X176234018Y-111124181D01*
X176281637Y-111147990D01*
X176329256Y-111147990D01*
X176376875Y-111124181D01*
X176400685Y-111100371D01*
X176424494Y-111052752D01*
X176448304Y-110957514D01*
X176448304Y-110838467D01*
X176424494Y-110743229D01*
X176400685Y-110695610D01*
X176376875Y-110671800D01*
X176329256Y-110647990D01*
X180016066Y-108107990D02*
X179849399Y-108607990D01*
X179682733Y-108107990D01*
X179230352Y-108560371D02*
X179254162Y-108584181D01*
X179325590Y-108607990D01*
X179373209Y-108607990D01*
X179444638Y-108584181D01*
X179492257Y-108536562D01*
X179516066Y-108488943D01*
X179539876Y-108393705D01*
X179539876Y-108322276D01*
X179516066Y-108227038D01*
X179492257Y-108179419D01*
X179444638Y-108131800D01*
X179373209Y-108107990D01*
X179325590Y-108107990D01*
X179254162Y-108131800D01*
X179230352Y-108155610D01*
X178730352Y-108560371D02*
X178754162Y-108584181D01*
X178825590Y-108607990D01*
X178873209Y-108607990D01*
X178944638Y-108584181D01*
X178992257Y-108536562D01*
X179016066Y-108488943D01*
X179039876Y-108393705D01*
X179039876Y-108322276D01*
X179016066Y-108227038D01*
X178992257Y-108179419D01*
X178944638Y-108131800D01*
X178873209Y-108107990D01*
X178825590Y-108107990D01*
X178754162Y-108131800D01*
X178730352Y-108155610D01*
X177190353Y-108131800D02*
X177237972Y-108107990D01*
X177309400Y-108107990D01*
X177380829Y-108131800D01*
X177428448Y-108179419D01*
X177452257Y-108227038D01*
X177476067Y-108322276D01*
X177476067Y-108393705D01*
X177452257Y-108488943D01*
X177428448Y-108536562D01*
X177380829Y-108584181D01*
X177309400Y-108607990D01*
X177261781Y-108607990D01*
X177190353Y-108584181D01*
X177166543Y-108560371D01*
X177166543Y-108393705D01*
X177261781Y-108393705D01*
X176952257Y-108607990D02*
X176952257Y-108107990D01*
X176666543Y-108607990D01*
X176666543Y-108107990D01*
X176428447Y-108607990D02*
X176428447Y-108107990D01*
X176309400Y-108107990D01*
X176237971Y-108131800D01*
X176190352Y-108179419D01*
X176166543Y-108227038D01*
X176142733Y-108322276D01*
X176142733Y-108393705D01*
X176166543Y-108488943D01*
X176190352Y-108536562D01*
X176237971Y-108584181D01*
X176309400Y-108607990D01*
X176428447Y-108607990D01*
X174650353Y-108131800D02*
X174697972Y-108107990D01*
X174769400Y-108107990D01*
X174840829Y-108131800D01*
X174888448Y-108179419D01*
X174912257Y-108227038D01*
X174936067Y-108322276D01*
X174936067Y-108393705D01*
X174912257Y-108488943D01*
X174888448Y-108536562D01*
X174840829Y-108584181D01*
X174769400Y-108607990D01*
X174721781Y-108607990D01*
X174650353Y-108584181D01*
X174626543Y-108560371D01*
X174626543Y-108393705D01*
X174721781Y-108393705D01*
X174412257Y-108607990D02*
X174412257Y-108107990D01*
X174126543Y-108607990D01*
X174126543Y-108107990D01*
X173888447Y-108607990D02*
X173888447Y-108107990D01*
X173769400Y-108107990D01*
X173697971Y-108131800D01*
X173650352Y-108179419D01*
X173626543Y-108227038D01*
X173602733Y-108322276D01*
X173602733Y-108393705D01*
X173626543Y-108488943D01*
X173650352Y-108536562D01*
X173697971Y-108584181D01*
X173769400Y-108607990D01*
X173888447Y-108607990D01*
X154330353Y-110671800D02*
X154377972Y-110647990D01*
X154449400Y-110647990D01*
X154520829Y-110671800D01*
X154568448Y-110719419D01*
X154592257Y-110767038D01*
X154616067Y-110862276D01*
X154616067Y-110933705D01*
X154592257Y-111028943D01*
X154568448Y-111076562D01*
X154520829Y-111124181D01*
X154449400Y-111147990D01*
X154401781Y-111147990D01*
X154330353Y-111124181D01*
X154306543Y-111100371D01*
X154306543Y-110933705D01*
X154401781Y-110933705D01*
X154092257Y-111147990D02*
X154092257Y-110647990D01*
X153806543Y-111147990D01*
X153806543Y-110647990D01*
X153568447Y-111147990D02*
X153568447Y-110647990D01*
X153449400Y-110647990D01*
X153377971Y-110671800D01*
X153330352Y-110719419D01*
X153306543Y-110767038D01*
X153282733Y-110862276D01*
X153282733Y-110933705D01*
X153306543Y-111028943D01*
X153330352Y-111076562D01*
X153377971Y-111124181D01*
X153449400Y-111147990D01*
X153568447Y-111147990D01*
X151790353Y-110671800D02*
X151837972Y-110647990D01*
X151909400Y-110647990D01*
X151980829Y-110671800D01*
X152028448Y-110719419D01*
X152052257Y-110767038D01*
X152076067Y-110862276D01*
X152076067Y-110933705D01*
X152052257Y-111028943D01*
X152028448Y-111076562D01*
X151980829Y-111124181D01*
X151909400Y-111147990D01*
X151861781Y-111147990D01*
X151790353Y-111124181D01*
X151766543Y-111100371D01*
X151766543Y-110933705D01*
X151861781Y-110933705D01*
X151552257Y-111147990D02*
X151552257Y-110647990D01*
X151266543Y-111147990D01*
X151266543Y-110647990D01*
X151028447Y-111147990D02*
X151028447Y-110647990D01*
X150909400Y-110647990D01*
X150837971Y-110671800D01*
X150790352Y-110719419D01*
X150766543Y-110767038D01*
X150742733Y-110862276D01*
X150742733Y-110933705D01*
X150766543Y-111028943D01*
X150790352Y-111076562D01*
X150837971Y-111124181D01*
X150909400Y-111147990D01*
X151028447Y-111147990D01*
X149536066Y-110647990D02*
X149369399Y-111147990D01*
X149202733Y-110647990D01*
X148750352Y-111100371D02*
X148774162Y-111124181D01*
X148845590Y-111147990D01*
X148893209Y-111147990D01*
X148964638Y-111124181D01*
X149012257Y-111076562D01*
X149036066Y-111028943D01*
X149059876Y-110933705D01*
X149059876Y-110862276D01*
X149036066Y-110767038D01*
X149012257Y-110719419D01*
X148964638Y-110671800D01*
X148893209Y-110647990D01*
X148845590Y-110647990D01*
X148774162Y-110671800D01*
X148750352Y-110695610D01*
X148250352Y-111100371D02*
X148274162Y-111124181D01*
X148345590Y-111147990D01*
X148393209Y-111147990D01*
X148464638Y-111124181D01*
X148512257Y-111076562D01*
X148536066Y-111028943D01*
X148559876Y-110933705D01*
X148559876Y-110862276D01*
X148536066Y-110767038D01*
X148512257Y-110719419D01*
X148464638Y-110671800D01*
X148393209Y-110647990D01*
X148345590Y-110647990D01*
X148274162Y-110671800D01*
X148250352Y-110695610D01*
X154223209Y-108607990D02*
X154389876Y-108369895D01*
X154508923Y-108607990D02*
X154508923Y-108107990D01*
X154318447Y-108107990D01*
X154270828Y-108131800D01*
X154247019Y-108155610D01*
X154223209Y-108203229D01*
X154223209Y-108274657D01*
X154247019Y-108322276D01*
X154270828Y-108346086D01*
X154318447Y-108369895D01*
X154508923Y-108369895D01*
X154032733Y-108584181D02*
X153961304Y-108607990D01*
X153842257Y-108607990D01*
X153794638Y-108584181D01*
X153770828Y-108560371D01*
X153747019Y-108512752D01*
X153747019Y-108465133D01*
X153770828Y-108417514D01*
X153794638Y-108393705D01*
X153842257Y-108369895D01*
X153937495Y-108346086D01*
X153985114Y-108322276D01*
X154008923Y-108298467D01*
X154032733Y-108250848D01*
X154032733Y-108203229D01*
X154008923Y-108155610D01*
X153985114Y-108131800D01*
X153937495Y-108107990D01*
X153818447Y-108107990D01*
X153747019Y-108131800D01*
X153604162Y-108107990D02*
X153318448Y-108107990D01*
X153461305Y-108607990D02*
X153461305Y-108107990D01*
X151492733Y-108607990D02*
X151659400Y-108369895D01*
X151778447Y-108607990D02*
X151778447Y-108107990D01*
X151587971Y-108107990D01*
X151540352Y-108131800D01*
X151516543Y-108155610D01*
X151492733Y-108203229D01*
X151492733Y-108274657D01*
X151516543Y-108322276D01*
X151540352Y-108346086D01*
X151587971Y-108369895D01*
X151778447Y-108369895D01*
X151326066Y-108107990D02*
X150992733Y-108607990D01*
X150992733Y-108107990D02*
X151326066Y-108607990D01*
X149250352Y-108107990D02*
X148964638Y-108107990D01*
X149107495Y-108607990D02*
X149107495Y-108107990D01*
X148845590Y-108107990D02*
X148512257Y-108607990D01*
X148512257Y-108107990D02*
X148845590Y-108607990D01*
D11*
X172912821Y-102870000D02*
G75*
G03X172912821Y-102870000I-8832821J0D01*
G01*
D14*
G36*
X151930446Y-93503727D02*
X151907120Y-93513263D01*
X151830796Y-93525924D01*
X151708762Y-93532719D01*
X151570801Y-93532240D01*
X151366055Y-93542855D01*
X151206572Y-93595565D01*
X151073209Y-93699019D01*
X150995451Y-93792160D01*
X150939017Y-93917896D01*
X150916161Y-94077858D01*
X150926934Y-94242586D01*
X150971389Y-94382617D01*
X150994357Y-94419597D01*
X151145912Y-94568527D01*
X151327246Y-94658982D01*
X151524352Y-94686839D01*
X151723221Y-94647978D01*
X151743346Y-94639981D01*
X151810613Y-94612915D01*
X151856040Y-94606164D01*
X151886877Y-94630362D01*
X151910375Y-94696144D01*
X151933782Y-94814146D01*
X151957439Y-94954022D01*
X152004123Y-95231857D01*
X152376404Y-95231857D01*
X152204974Y-94450558D01*
X152193316Y-94397285D01*
X151306063Y-94397285D01*
X151214730Y-94397285D01*
X151140166Y-94387702D01*
X151108829Y-94370071D01*
X151105943Y-94316700D01*
X151115759Y-94267113D01*
X151133133Y-94221366D01*
X151157938Y-94223103D01*
X151207136Y-94276684D01*
X151221660Y-94294327D01*
X151306063Y-94397285D01*
X152193316Y-94397285D01*
X152141961Y-94162632D01*
X152092655Y-93937945D01*
X152080853Y-93885450D01*
X151882680Y-93885450D01*
X151868571Y-94019311D01*
X151856259Y-94069234D01*
X151839634Y-94118785D01*
X151821521Y-94118709D01*
X151791785Y-94061954D01*
X151770367Y-94012348D01*
X151693520Y-94012348D01*
X151677460Y-94108792D01*
X151618263Y-94168584D01*
X151537557Y-94181638D01*
X151456968Y-94137871D01*
X151447344Y-94127140D01*
X151417168Y-94050822D01*
X151415686Y-93991068D01*
X151437027Y-93933357D01*
X151493536Y-93910292D01*
X151554543Y-93907428D01*
X151641379Y-93914685D01*
X151680214Y-93948575D01*
X151693520Y-94012348D01*
X151770367Y-94012348D01*
X151768587Y-94008227D01*
X151700951Y-93894053D01*
X151616937Y-93811328D01*
X151602447Y-93802517D01*
X151500115Y-93747048D01*
X151608972Y-93746091D01*
X151759572Y-93757584D01*
X151848578Y-93801122D01*
X151882680Y-93885450D01*
X152080853Y-93885450D01*
X152054665Y-93768971D01*
X152025599Y-93648186D01*
X152003067Y-93568065D01*
X151984676Y-93521084D01*
X151968037Y-93499717D01*
X151950757Y-93496440D01*
X151930446Y-93503727D01*
X151930446Y-93503727D01*
G37*
X151930446Y-93503727D02*
X151907120Y-93513263D01*
X151830796Y-93525924D01*
X151708762Y-93532719D01*
X151570801Y-93532240D01*
X151366055Y-93542855D01*
X151206572Y-93595565D01*
X151073209Y-93699019D01*
X150995451Y-93792160D01*
X150939017Y-93917896D01*
X150916161Y-94077858D01*
X150926934Y-94242586D01*
X150971389Y-94382617D01*
X150994357Y-94419597D01*
X151145912Y-94568527D01*
X151327246Y-94658982D01*
X151524352Y-94686839D01*
X151723221Y-94647978D01*
X151743346Y-94639981D01*
X151810613Y-94612915D01*
X151856040Y-94606164D01*
X151886877Y-94630362D01*
X151910375Y-94696144D01*
X151933782Y-94814146D01*
X151957439Y-94954022D01*
X152004123Y-95231857D01*
X152376404Y-95231857D01*
X152204974Y-94450558D01*
X152193316Y-94397285D01*
X151306063Y-94397285D01*
X151214730Y-94397285D01*
X151140166Y-94387702D01*
X151108829Y-94370071D01*
X151105943Y-94316700D01*
X151115759Y-94267113D01*
X151133133Y-94221366D01*
X151157938Y-94223103D01*
X151207136Y-94276684D01*
X151221660Y-94294327D01*
X151306063Y-94397285D01*
X152193316Y-94397285D01*
X152141961Y-94162632D01*
X152092655Y-93937945D01*
X152080853Y-93885450D01*
X151882680Y-93885450D01*
X151868571Y-94019311D01*
X151856259Y-94069234D01*
X151839634Y-94118785D01*
X151821521Y-94118709D01*
X151791785Y-94061954D01*
X151770367Y-94012348D01*
X151693520Y-94012348D01*
X151677460Y-94108792D01*
X151618263Y-94168584D01*
X151537557Y-94181638D01*
X151456968Y-94137871D01*
X151447344Y-94127140D01*
X151417168Y-94050822D01*
X151415686Y-93991068D01*
X151437027Y-93933357D01*
X151493536Y-93910292D01*
X151554543Y-93907428D01*
X151641379Y-93914685D01*
X151680214Y-93948575D01*
X151693520Y-94012348D01*
X151770367Y-94012348D01*
X151768587Y-94008227D01*
X151700951Y-93894053D01*
X151616937Y-93811328D01*
X151602447Y-93802517D01*
X151500115Y-93747048D01*
X151608972Y-93746091D01*
X151759572Y-93757584D01*
X151848578Y-93801122D01*
X151882680Y-93885450D01*
X152080853Y-93885450D01*
X152054665Y-93768971D01*
X152025599Y-93648186D01*
X152003067Y-93568065D01*
X151984676Y-93521084D01*
X151968037Y-93499717D01*
X151950757Y-93496440D01*
X151930446Y-93503727D01*
G36*
X154826113Y-93636784D02*
X154783133Y-93646542D01*
X154763052Y-93672453D01*
X154768043Y-93722410D01*
X154800278Y-93804306D01*
X154861930Y-93926035D01*
X154955172Y-94095489D01*
X155074896Y-94307700D01*
X155372025Y-94832714D01*
X155531570Y-94832714D01*
X155627682Y-94828916D01*
X155684516Y-94819332D01*
X155691115Y-94814021D01*
X155674612Y-94775106D01*
X155631564Y-94692075D01*
X155577571Y-94594141D01*
X155464028Y-94392953D01*
X155536548Y-94029305D01*
X155569987Y-93854285D01*
X155584314Y-93738854D01*
X155575362Y-93671587D01*
X155538963Y-93641057D01*
X155470950Y-93635837D01*
X155395212Y-93641800D01*
X155307720Y-93661234D01*
X155269237Y-93708295D01*
X155261685Y-93744142D01*
X155238077Y-93838047D01*
X155200817Y-93861005D01*
X155148260Y-93813248D01*
X155116714Y-93764595D01*
X155057865Y-93680251D01*
X154994195Y-93643465D01*
X154892457Y-93635287D01*
X154889821Y-93635285D01*
X154826113Y-93636784D01*
X154826113Y-93636784D01*
G37*
X154826113Y-93636784D02*
X154783133Y-93646542D01*
X154763052Y-93672453D01*
X154768043Y-93722410D01*
X154800278Y-93804306D01*
X154861930Y-93926035D01*
X154955172Y-94095489D01*
X155074896Y-94307700D01*
X155372025Y-94832714D01*
X155531570Y-94832714D01*
X155627682Y-94828916D01*
X155684516Y-94819332D01*
X155691115Y-94814021D01*
X155674612Y-94775106D01*
X155631564Y-94692075D01*
X155577571Y-94594141D01*
X155464028Y-94392953D01*
X155536548Y-94029305D01*
X155569987Y-93854285D01*
X155584314Y-93738854D01*
X155575362Y-93671587D01*
X155538963Y-93641057D01*
X155470950Y-93635837D01*
X155395212Y-93641800D01*
X155307720Y-93661234D01*
X155269237Y-93708295D01*
X155261685Y-93744142D01*
X155238077Y-93838047D01*
X155200817Y-93861005D01*
X155148260Y-93813248D01*
X155116714Y-93764595D01*
X155057865Y-93680251D01*
X154994195Y-93643465D01*
X154892457Y-93635287D01*
X154889821Y-93635285D01*
X154826113Y-93636784D01*
G36*
X149095585Y-93637843D02*
X149037580Y-93674205D01*
X148956680Y-93759103D01*
X148947059Y-93830672D01*
X149008786Y-93889177D01*
X149103141Y-93924979D01*
X149264311Y-93970103D01*
X149157570Y-94059920D01*
X149072203Y-94162319D01*
X149050829Y-94257170D01*
X149078510Y-94409352D01*
X149152255Y-94535346D01*
X149258111Y-94627220D01*
X149382128Y-94677044D01*
X149510356Y-94676884D01*
X149628844Y-94618811D01*
X149651193Y-94598506D01*
X149726340Y-94498384D01*
X149731607Y-94417162D01*
X149666797Y-94353482D01*
X149612645Y-94329433D01*
X149549422Y-94306571D01*
X149449972Y-94306571D01*
X149431829Y-94324714D01*
X149413686Y-94306571D01*
X149431829Y-94288428D01*
X149449972Y-94306571D01*
X149549422Y-94306571D01*
X149485033Y-94283288D01*
X149558217Y-94190250D01*
X149616680Y-94089921D01*
X149625596Y-93985455D01*
X149586464Y-93852271D01*
X149579830Y-93836101D01*
X149493940Y-93710213D01*
X149372107Y-93631476D01*
X149233075Y-93605487D01*
X149095585Y-93637843D01*
X149095585Y-93637843D01*
G37*
X149095585Y-93637843D02*
X149037580Y-93674205D01*
X148956680Y-93759103D01*
X148947059Y-93830672D01*
X149008786Y-93889177D01*
X149103141Y-93924979D01*
X149264311Y-93970103D01*
X149157570Y-94059920D01*
X149072203Y-94162319D01*
X149050829Y-94257170D01*
X149078510Y-94409352D01*
X149152255Y-94535346D01*
X149258111Y-94627220D01*
X149382128Y-94677044D01*
X149510356Y-94676884D01*
X149628844Y-94618811D01*
X149651193Y-94598506D01*
X149726340Y-94498384D01*
X149731607Y-94417162D01*
X149666797Y-94353482D01*
X149612645Y-94329433D01*
X149549422Y-94306571D01*
X149449972Y-94306571D01*
X149431829Y-94324714D01*
X149413686Y-94306571D01*
X149431829Y-94288428D01*
X149449972Y-94306571D01*
X149549422Y-94306571D01*
X149485033Y-94283288D01*
X149558217Y-94190250D01*
X149616680Y-94089921D01*
X149625596Y-93985455D01*
X149586464Y-93852271D01*
X149579830Y-93836101D01*
X149493940Y-93710213D01*
X149372107Y-93631476D01*
X149233075Y-93605487D01*
X149095585Y-93637843D01*
G36*
X149764566Y-93614108D02*
X149686689Y-93623690D01*
X149667686Y-93633367D01*
X149674953Y-93679360D01*
X149694374Y-93779385D01*
X149722384Y-93916627D01*
X149755415Y-94074269D01*
X149789902Y-94235497D01*
X149822276Y-94383493D01*
X149848971Y-94501442D01*
X149866421Y-94572528D01*
X149868203Y-94578714D01*
X149892104Y-94605493D01*
X149952436Y-94623469D01*
X150061148Y-94634683D01*
X150230191Y-94641176D01*
X150234343Y-94641274D01*
X150583967Y-94649405D01*
X150706398Y-94526974D01*
X150788426Y-94429487D01*
X150823362Y-94336472D01*
X150828032Y-94264843D01*
X150813265Y-94179939D01*
X150411426Y-94179939D01*
X150371104Y-94237099D01*
X150290500Y-94245181D01*
X150220791Y-94224467D01*
X150195781Y-94168741D01*
X150193829Y-94125143D01*
X150207478Y-94041911D01*
X150256723Y-94007798D01*
X150269576Y-94005463D01*
X150357368Y-94022935D01*
X150410556Y-94088856D01*
X150411426Y-94179939D01*
X150813265Y-94179939D01*
X150793846Y-94068298D01*
X150702398Y-93881702D01*
X150567055Y-93731676D01*
X150555925Y-93722959D01*
X150489195Y-93675877D01*
X150425224Y-93645153D01*
X150345693Y-93626754D01*
X150232286Y-93616646D01*
X150066686Y-93610797D01*
X150043975Y-93610227D01*
X149888683Y-93609311D01*
X149764566Y-93614108D01*
X149764566Y-93614108D01*
G37*
X149764566Y-93614108D02*
X149686689Y-93623690D01*
X149667686Y-93633367D01*
X149674953Y-93679360D01*
X149694374Y-93779385D01*
X149722384Y-93916627D01*
X149755415Y-94074269D01*
X149789902Y-94235497D01*
X149822276Y-94383493D01*
X149848971Y-94501442D01*
X149866421Y-94572528D01*
X149868203Y-94578714D01*
X149892104Y-94605493D01*
X149952436Y-94623469D01*
X150061148Y-94634683D01*
X150230191Y-94641176D01*
X150234343Y-94641274D01*
X150583967Y-94649405D01*
X150706398Y-94526974D01*
X150788426Y-94429487D01*
X150823362Y-94336472D01*
X150828032Y-94264843D01*
X150813265Y-94179939D01*
X150411426Y-94179939D01*
X150371104Y-94237099D01*
X150290500Y-94245181D01*
X150220791Y-94224467D01*
X150195781Y-94168741D01*
X150193829Y-94125143D01*
X150207478Y-94041911D01*
X150256723Y-94007798D01*
X150269576Y-94005463D01*
X150357368Y-94022935D01*
X150410556Y-94088856D01*
X150411426Y-94179939D01*
X150813265Y-94179939D01*
X150793846Y-94068298D01*
X150702398Y-93881702D01*
X150567055Y-93731676D01*
X150555925Y-93722959D01*
X150489195Y-93675877D01*
X150425224Y-93645153D01*
X150345693Y-93626754D01*
X150232286Y-93616646D01*
X150066686Y-93610797D01*
X150043975Y-93610227D01*
X149888683Y-93609311D01*
X149764566Y-93614108D01*
G36*
X148439148Y-93618134D02*
X148335949Y-93662165D01*
X148271053Y-93741964D01*
X148259403Y-93787709D01*
X148260397Y-93853025D01*
X148295871Y-93888427D01*
X148384548Y-93912345D01*
X148386403Y-93912716D01*
X148484781Y-93928687D01*
X148553053Y-93933313D01*
X148560972Y-93932389D01*
X148560149Y-93945720D01*
X148512661Y-93988643D01*
X148494638Y-94002705D01*
X148385527Y-94116408D01*
X148347062Y-94240215D01*
X148375384Y-94374786D01*
X148464539Y-94518160D01*
X148582790Y-94609843D01*
X148716292Y-94644707D01*
X148851196Y-94617623D01*
X148918935Y-94576080D01*
X148975297Y-94510386D01*
X149009838Y-94431495D01*
X149016920Y-94362386D01*
X148990904Y-94326035D01*
X148980620Y-94324714D01*
X148923950Y-94312779D01*
X148905358Y-94306571D01*
X148724258Y-94306571D01*
X148706115Y-94324714D01*
X148687972Y-94306571D01*
X148706115Y-94288428D01*
X148724258Y-94306571D01*
X148905358Y-94306571D01*
X148852969Y-94289079D01*
X148759242Y-94253444D01*
X148836677Y-94176009D01*
X148889774Y-94076139D01*
X148895762Y-93947868D01*
X148856971Y-93815923D01*
X148794000Y-93722989D01*
X148686631Y-93646311D01*
X148562195Y-93612105D01*
X148439148Y-93618134D01*
X148439148Y-93618134D01*
G37*
X148439148Y-93618134D02*
X148335949Y-93662165D01*
X148271053Y-93741964D01*
X148259403Y-93787709D01*
X148260397Y-93853025D01*
X148295871Y-93888427D01*
X148384548Y-93912345D01*
X148386403Y-93912716D01*
X148484781Y-93928687D01*
X148553053Y-93933313D01*
X148560972Y-93932389D01*
X148560149Y-93945720D01*
X148512661Y-93988643D01*
X148494638Y-94002705D01*
X148385527Y-94116408D01*
X148347062Y-94240215D01*
X148375384Y-94374786D01*
X148464539Y-94518160D01*
X148582790Y-94609843D01*
X148716292Y-94644707D01*
X148851196Y-94617623D01*
X148918935Y-94576080D01*
X148975297Y-94510386D01*
X149009838Y-94431495D01*
X149016920Y-94362386D01*
X148990904Y-94326035D01*
X148980620Y-94324714D01*
X148923950Y-94312779D01*
X148905358Y-94306571D01*
X148724258Y-94306571D01*
X148706115Y-94324714D01*
X148687972Y-94306571D01*
X148706115Y-94288428D01*
X148724258Y-94306571D01*
X148905358Y-94306571D01*
X148852969Y-94289079D01*
X148759242Y-94253444D01*
X148836677Y-94176009D01*
X148889774Y-94076139D01*
X148895762Y-93947868D01*
X148856971Y-93815923D01*
X148794000Y-93722989D01*
X148686631Y-93646311D01*
X148562195Y-93612105D01*
X148439148Y-93618134D01*
G36*
X153871151Y-93600077D02*
X153832233Y-93610943D01*
X153813136Y-93643049D01*
X153812495Y-93707848D01*
X153828942Y-93816792D01*
X153861113Y-93981331D01*
X153876536Y-94057648D01*
X153917712Y-94262594D01*
X153947889Y-94406787D01*
X153971704Y-94500341D01*
X153993797Y-94553371D01*
X154018803Y-94575989D01*
X154051360Y-94578311D01*
X154096107Y-94570450D01*
X154110524Y-94567951D01*
X154236803Y-94562164D01*
X154353644Y-94575327D01*
X154477171Y-94585436D01*
X154591189Y-94571955D01*
X154731447Y-94502756D01*
X154818787Y-94385953D01*
X154849689Y-94227104D01*
X154847036Y-94167797D01*
X154830270Y-94098091D01*
X154492396Y-94098091D01*
X154473234Y-94168603D01*
X154438191Y-94202981D01*
X154356378Y-94228324D01*
X154284074Y-94199406D01*
X154246415Y-94130327D01*
X154246556Y-94095473D01*
X154273146Y-94036691D01*
X154343341Y-94016818D01*
X154366189Y-94016285D01*
X154453994Y-94040264D01*
X154492396Y-94098091D01*
X154830270Y-94098091D01*
X154802760Y-93983716D01*
X154702914Y-93831689D01*
X154562921Y-93713696D01*
X154468417Y-93660896D01*
X154370453Y-93640697D01*
X154248757Y-93644110D01*
X154142589Y-93647471D01*
X154073433Y-93639761D01*
X154058257Y-93629199D01*
X154026341Y-93609233D01*
X153947867Y-93599259D01*
X153931257Y-93599000D01*
X153871151Y-93600077D01*
X153871151Y-93600077D01*
G37*
X153871151Y-93600077D02*
X153832233Y-93610943D01*
X153813136Y-93643049D01*
X153812495Y-93707848D01*
X153828942Y-93816792D01*
X153861113Y-93981331D01*
X153876536Y-94057648D01*
X153917712Y-94262594D01*
X153947889Y-94406787D01*
X153971704Y-94500341D01*
X153993797Y-94553371D01*
X154018803Y-94575989D01*
X154051360Y-94578311D01*
X154096107Y-94570450D01*
X154110524Y-94567951D01*
X154236803Y-94562164D01*
X154353644Y-94575327D01*
X154477171Y-94585436D01*
X154591189Y-94571955D01*
X154731447Y-94502756D01*
X154818787Y-94385953D01*
X154849689Y-94227104D01*
X154847036Y-94167797D01*
X154830270Y-94098091D01*
X154492396Y-94098091D01*
X154473234Y-94168603D01*
X154438191Y-94202981D01*
X154356378Y-94228324D01*
X154284074Y-94199406D01*
X154246415Y-94130327D01*
X154246556Y-94095473D01*
X154273146Y-94036691D01*
X154343341Y-94016818D01*
X154366189Y-94016285D01*
X154453994Y-94040264D01*
X154492396Y-94098091D01*
X154830270Y-94098091D01*
X154802760Y-93983716D01*
X154702914Y-93831689D01*
X154562921Y-93713696D01*
X154468417Y-93660896D01*
X154370453Y-93640697D01*
X154248757Y-93644110D01*
X154142589Y-93647471D01*
X154073433Y-93639761D01*
X154058257Y-93629199D01*
X154026341Y-93609233D01*
X153947867Y-93599259D01*
X153931257Y-93599000D01*
X153871151Y-93600077D01*
G36*
X152416151Y-93607377D02*
X152291258Y-93689607D01*
X152267630Y-93717447D01*
X152230320Y-93773727D01*
X152212476Y-93829229D01*
X152212400Y-93905251D01*
X152228389Y-94023093D01*
X152238393Y-94083681D01*
X152266080Y-94236740D01*
X152295388Y-94380454D01*
X152319747Y-94482834D01*
X152345432Y-94561465D01*
X152380734Y-94600418D01*
X152448435Y-94613620D01*
X152535963Y-94615000D01*
X152639026Y-94610056D01*
X152704265Y-94597429D01*
X152716151Y-94587785D01*
X152708634Y-94541386D01*
X152688385Y-94444398D01*
X152659600Y-94316804D01*
X152656135Y-94301943D01*
X152621893Y-94128445D01*
X152616174Y-94015662D01*
X152639969Y-93957164D01*
X152694270Y-93946521D01*
X152710398Y-93949960D01*
X152754498Y-93978982D01*
X152792129Y-94049074D01*
X152829638Y-94173566D01*
X152842954Y-94228358D01*
X152875317Y-94365152D01*
X152903045Y-94479986D01*
X152920428Y-94549231D01*
X152921039Y-94551500D01*
X152949185Y-94591540D01*
X153016875Y-94610773D01*
X153117274Y-94615000D01*
X153219967Y-94608576D01*
X153284706Y-94592174D01*
X153296258Y-94579745D01*
X153288903Y-94529457D01*
X153269442Y-94428436D01*
X153241780Y-94296729D01*
X153235933Y-94269956D01*
X153205582Y-94112009D01*
X153197799Y-94012129D01*
X153211885Y-93959641D01*
X153215351Y-93955678D01*
X153275023Y-93926875D01*
X153329881Y-93966395D01*
X153381082Y-94075728D01*
X153421972Y-94222016D01*
X153454701Y-94360261D01*
X153482776Y-94476551D01*
X153500593Y-94547701D01*
X153501611Y-94551500D01*
X153529756Y-94591540D01*
X153597446Y-94610773D01*
X153697846Y-94615000D01*
X153821085Y-94606118D01*
X153873973Y-94579472D01*
X153876202Y-94569643D01*
X153867943Y-94514119D01*
X153846424Y-94408138D01*
X153815501Y-94267980D01*
X153779028Y-94109926D01*
X153740861Y-93950255D01*
X153704854Y-93805247D01*
X153674863Y-93691184D01*
X153654742Y-93624345D01*
X153649904Y-93613979D01*
X153601032Y-93599437D01*
X153500995Y-93588513D01*
X153371133Y-93581734D01*
X153232787Y-93579626D01*
X153107297Y-93582717D01*
X153016004Y-93591532D01*
X152991183Y-93597724D01*
X152884741Y-93610852D01*
X152758291Y-93592332D01*
X152577694Y-93573456D01*
X152416151Y-93607377D01*
X152416151Y-93607377D01*
G37*
X152416151Y-93607377D02*
X152291258Y-93689607D01*
X152267630Y-93717447D01*
X152230320Y-93773727D01*
X152212476Y-93829229D01*
X152212400Y-93905251D01*
X152228389Y-94023093D01*
X152238393Y-94083681D01*
X152266080Y-94236740D01*
X152295388Y-94380454D01*
X152319747Y-94482834D01*
X152345432Y-94561465D01*
X152380734Y-94600418D01*
X152448435Y-94613620D01*
X152535963Y-94615000D01*
X152639026Y-94610056D01*
X152704265Y-94597429D01*
X152716151Y-94587785D01*
X152708634Y-94541386D01*
X152688385Y-94444398D01*
X152659600Y-94316804D01*
X152656135Y-94301943D01*
X152621893Y-94128445D01*
X152616174Y-94015662D01*
X152639969Y-93957164D01*
X152694270Y-93946521D01*
X152710398Y-93949960D01*
X152754498Y-93978982D01*
X152792129Y-94049074D01*
X152829638Y-94173566D01*
X152842954Y-94228358D01*
X152875317Y-94365152D01*
X152903045Y-94479986D01*
X152920428Y-94549231D01*
X152921039Y-94551500D01*
X152949185Y-94591540D01*
X153016875Y-94610773D01*
X153117274Y-94615000D01*
X153219967Y-94608576D01*
X153284706Y-94592174D01*
X153296258Y-94579745D01*
X153288903Y-94529457D01*
X153269442Y-94428436D01*
X153241780Y-94296729D01*
X153235933Y-94269956D01*
X153205582Y-94112009D01*
X153197799Y-94012129D01*
X153211885Y-93959641D01*
X153215351Y-93955678D01*
X153275023Y-93926875D01*
X153329881Y-93966395D01*
X153381082Y-94075728D01*
X153421972Y-94222016D01*
X153454701Y-94360261D01*
X153482776Y-94476551D01*
X153500593Y-94547701D01*
X153501611Y-94551500D01*
X153529756Y-94591540D01*
X153597446Y-94610773D01*
X153697846Y-94615000D01*
X153821085Y-94606118D01*
X153873973Y-94579472D01*
X153876202Y-94569643D01*
X153867943Y-94514119D01*
X153846424Y-94408138D01*
X153815501Y-94267980D01*
X153779028Y-94109926D01*
X153740861Y-93950255D01*
X153704854Y-93805247D01*
X153674863Y-93691184D01*
X153654742Y-93624345D01*
X153649904Y-93613979D01*
X153601032Y-93599437D01*
X153500995Y-93588513D01*
X153371133Y-93581734D01*
X153232787Y-93579626D01*
X153107297Y-93582717D01*
X153016004Y-93591532D01*
X152991183Y-93597724D01*
X152884741Y-93610852D01*
X152758291Y-93592332D01*
X152577694Y-93573456D01*
X152416151Y-93607377D01*
G36*
X155858472Y-93676520D02*
X155770634Y-93722146D01*
X155710947Y-93790900D01*
X155682246Y-93865170D01*
X155677609Y-93971632D01*
X155697971Y-94120833D01*
X155744267Y-94323322D01*
X155765239Y-94403054D01*
X155795224Y-94493043D01*
X155837297Y-94532574D01*
X155918262Y-94542257D01*
X155946513Y-94542428D01*
X156022340Y-94540615D01*
X156066463Y-94526038D01*
X156082865Y-94484991D01*
X156075527Y-94403767D01*
X156048434Y-94268659D01*
X156038934Y-94224363D01*
X156017935Y-94104758D01*
X156011072Y-94016047D01*
X156018791Y-93979316D01*
X156082985Y-93973925D01*
X156139329Y-94028621D01*
X156175447Y-94131064D01*
X156176374Y-94136454D01*
X156202654Y-94268327D01*
X156235655Y-94402309D01*
X156236788Y-94406357D01*
X156267727Y-94494521D01*
X156311227Y-94533053D01*
X156394467Y-94542302D01*
X156418535Y-94542428D01*
X156520014Y-94531735D01*
X156561731Y-94501738D01*
X156562251Y-94497071D01*
X156555388Y-94444573D01*
X156536602Y-94337823D01*
X156508963Y-94193575D01*
X156483162Y-94065455D01*
X156403793Y-93679195D01*
X156165382Y-93662880D01*
X155984765Y-93658254D01*
X155858472Y-93676520D01*
X155858472Y-93676520D01*
G37*
X155858472Y-93676520D02*
X155770634Y-93722146D01*
X155710947Y-93790900D01*
X155682246Y-93865170D01*
X155677609Y-93971632D01*
X155697971Y-94120833D01*
X155744267Y-94323322D01*
X155765239Y-94403054D01*
X155795224Y-94493043D01*
X155837297Y-94532574D01*
X155918262Y-94542257D01*
X155946513Y-94542428D01*
X156022340Y-94540615D01*
X156066463Y-94526038D01*
X156082865Y-94484991D01*
X156075527Y-94403767D01*
X156048434Y-94268659D01*
X156038934Y-94224363D01*
X156017935Y-94104758D01*
X156011072Y-94016047D01*
X156018791Y-93979316D01*
X156082985Y-93973925D01*
X156139329Y-94028621D01*
X156175447Y-94131064D01*
X156176374Y-94136454D01*
X156202654Y-94268327D01*
X156235655Y-94402309D01*
X156236788Y-94406357D01*
X156267727Y-94494521D01*
X156311227Y-94533053D01*
X156394467Y-94542302D01*
X156418535Y-94542428D01*
X156520014Y-94531735D01*
X156561731Y-94501738D01*
X156562251Y-94497071D01*
X156555388Y-94444573D01*
X156536602Y-94337823D01*
X156508963Y-94193575D01*
X156483162Y-94065455D01*
X156403793Y-93679195D01*
X156165382Y-93662880D01*
X155984765Y-93658254D01*
X155858472Y-93676520D01*
%LPC*%
D15*
X151130000Y-102870000D03*
X177030000Y-102870000D03*
D16*
X164090000Y-102870000D03*
D17*
X176680000Y-102870000D03*
X151480000Y-102870000D03*
D18*
X153949400Y-109651800D03*
X151409400Y-109651800D03*
X148869400Y-109651800D03*
X148869400Y-112191800D03*
X151409400Y-112191800D03*
X153949400Y-112191800D03*
X179349400Y-109651800D03*
X176809400Y-109651800D03*
X174269400Y-109651800D03*
X174269400Y-112191800D03*
X176809400Y-112191800D03*
X179349400Y-112191800D03*
M02*
