G04 #@! TF.FileFunction,Soldermask,Top*
%FSLAX46Y46*%
G04 Gerber Fmt 4.6, Leading zero omitted, Abs format (unit mm)*
G04 Created by KiCad (PCBNEW 4.0.2+dfsg1-stable) date 2016年12月02日 11時36分25秒*
%MOMM*%
G01*
G04 APERTURE LIST*
%ADD10C,0.100000*%
%ADD11R,0.830000X0.680000*%
%ADD12R,0.750000X0.700000*%
%ADD13C,2.100000*%
%ADD14R,0.700000X0.900000*%
%ADD15R,0.650000X0.950000*%
%ADD16R,0.950000X0.650000*%
%ADD17R,0.700000X0.700000*%
G04 APERTURE END LIST*
D10*
D11*
X149123400Y-96950800D03*
X149123400Y-97460800D03*
D12*
X149123400Y-94940800D03*
X149123400Y-94390800D03*
D13*
X153949400Y-108381800D03*
X151409400Y-108381800D03*
X148869400Y-108381800D03*
X179349400Y-108381800D03*
X176809400Y-108381800D03*
X174269400Y-108381800D03*
X174269400Y-110921800D03*
X176809400Y-110921800D03*
X179349400Y-110921800D03*
X148869400Y-110921800D03*
X151409400Y-110921800D03*
X153949400Y-110921800D03*
D14*
X161831000Y-93344000D03*
D15*
X161306000Y-93369000D03*
X160806000Y-93369000D03*
X160306000Y-93369000D03*
X159806000Y-93369000D03*
X159306000Y-93369000D03*
X158806000Y-93369000D03*
X158306000Y-93369000D03*
X157806000Y-93369000D03*
X157306000Y-93369000D03*
X156806000Y-93369000D03*
D14*
X156281000Y-93344000D03*
D16*
X156211000Y-93964000D03*
X156211000Y-94464000D03*
X156211000Y-96964000D03*
X156211000Y-94964000D03*
X156211000Y-95464000D03*
X156211000Y-95964000D03*
X156211000Y-96464000D03*
X156211000Y-97464000D03*
X156211000Y-97964000D03*
X156211000Y-98464000D03*
D14*
X156281000Y-99084000D03*
D15*
X156806000Y-99059000D03*
X157306000Y-99059000D03*
X157806000Y-99059000D03*
X158306000Y-99059000D03*
X158806000Y-99059000D03*
X159306000Y-99059000D03*
X159806000Y-99059000D03*
X160306000Y-99059000D03*
X160806000Y-99059000D03*
X161306000Y-99059000D03*
D14*
X161831000Y-99084000D03*
D16*
X161901000Y-98464000D03*
X161901000Y-97964000D03*
X161901000Y-97464000D03*
X161901000Y-96964000D03*
X161901000Y-96464000D03*
X161901000Y-95964000D03*
X161901000Y-95464000D03*
X161901000Y-94964000D03*
X161901000Y-94464000D03*
X161901000Y-93964000D03*
D17*
X159606000Y-95664000D03*
X158506000Y-95664000D03*
X158506000Y-96764000D03*
X159606000Y-96764000D03*
M02*
