M48
;DRILL file {KiCad 4.0.2+dfsg1-stable} date 2016年12月27日 14時57分58秒
;FORMAT={-:-/ absolute / metric / decimal}
FMAT,2
METRIC,TZ
T1C0.400
T2C1.016
%
G90
G05
M71
T1
X147.777Y-95.352
X148.361Y-105.842
X150.063Y-96.317
X150.076Y-108.191
X150.266Y-95.123
X154.14Y-109.715
X155.854Y-99.085
X157.048Y-96.444
X157.709Y-96.418
X157.747Y-98.265
X159.093Y-97.46
X159.319Y-94.031
X160.299Y-96.888
X160.299Y-97.587
X160.312Y-94.59
X160.807Y-98.349
X161.234Y-93.98
X161.265Y-94.996
X161.544Y-109.118
X162.331Y-93.37
X164.363Y-108.509
T2
X145.313Y-111.43
X147.853Y-111.43
X150.393Y-111.43
X152.933Y-111.43
X155.473Y-111.43
X158.013Y-111.43
X160.553Y-111.43
X163.093Y-111.43
X165.633Y-111.43
X168.173Y-111.43
T0
M30
