M48
;DRILL file {KiCad 4.0.2+dfsg1-stable} date 2017年01月10日 18時20分34秒
;FORMAT={-:-/ absolute / metric / decimal}
FMAT,2
METRIC,TZ
T1C0.400
T2C1.016
%
G90
G05
M71
T1
X147.345Y-76.86
X147.345Y-97.841
X149.327Y-76.683
X149.327Y-97.663
X153.441Y-82.004
X153.441Y-102.984
X154.407Y-76.556
X154.407Y-97.536
X155.156Y-81.813
X155.156Y-82.639
X155.156Y-102.794
X155.156Y-103.619
X156.82Y-77.521
X156.82Y-98.501
X158.75Y-75.997
X158.75Y-96.977
X158.775Y-78.181
X158.775Y-99.162
X159.207Y-85.827
X159.207Y-106.807
X159.537Y-84.036
X159.537Y-105.016
X161.379Y-83.528
X161.379Y-104.508
X162.306Y-75.946
X162.306Y-78.232
X162.306Y-96.926
X162.306Y-99.212
X164.262Y-81.89
X164.262Y-102.87
X165.345Y-81.785
X165.345Y-102.765
X166.726Y-83.058
X166.726Y-104.038
X167.081Y-76.733
X167.081Y-97.714
X169.012Y-76.759
X169.012Y-97.739
T2
X145.313Y-73.431
X145.313Y-94.412
X147.853Y-73.431
X147.853Y-94.412
X150.393Y-73.431
X150.393Y-94.412
X152.933Y-73.431
X152.933Y-94.412
X155.473Y-73.431
X155.473Y-94.412
X158.013Y-73.431
X158.013Y-94.412
X160.553Y-73.431
X160.553Y-94.412
X163.093Y-73.431
X163.093Y-94.412
X165.633Y-73.431
X165.633Y-94.412
X168.173Y-73.431
X168.173Y-94.412
T0
M30
