G04 #@! TF.FileFunction,Legend,Bot*
%FSLAX46Y46*%
G04 Gerber Fmt 4.6, Leading zero omitted, Abs format (unit mm)*
G04 Created by KiCad (PCBNEW 4.0.2+dfsg1-stable) date 2016年12月27日 14時57分40秒*
%MOMM*%
G01*
G04 APERTURE LIST*
%ADD10C,0.100000*%
%ADD11C,0.300000*%
%ADD12C,0.125000*%
%ADD13C,0.150000*%
%ADD14C,0.200000*%
%ADD15C,0.010000*%
%ADD16R,3.400000X4.400000*%
%ADD17R,2.900000X5.500000*%
%ADD18O,2.100000X2.432000*%
%ADD19O,2.127200X2.432000*%
G04 APERTURE END LIST*
D10*
D11*
X145313257Y-104419490D02*
X144551352Y-104419490D01*
X144551352Y-106019490D01*
X145846590Y-104419490D02*
X145846590Y-105486157D01*
X145846590Y-106019490D02*
X145770400Y-105943300D01*
X145846590Y-105867110D01*
X145922781Y-105943300D01*
X145846590Y-106019490D01*
X145846590Y-105867110D01*
X146608495Y-105486157D02*
X146608495Y-104419490D01*
X146608495Y-105333776D02*
X146684686Y-105409967D01*
X146837067Y-105486157D01*
X147065638Y-105486157D01*
X147218019Y-105409967D01*
X147294210Y-105257586D01*
X147294210Y-104419490D01*
X148284686Y-104419490D02*
X148132305Y-104495681D01*
X148056114Y-104571871D01*
X147979924Y-104724252D01*
X147979924Y-105181395D01*
X148056114Y-105333776D01*
X148132305Y-105409967D01*
X148284686Y-105486157D01*
X148513257Y-105486157D01*
X148665638Y-105409967D01*
X148741829Y-105333776D01*
X148818019Y-105181395D01*
X148818019Y-104724252D01*
X148741829Y-104571871D01*
X148665638Y-104495681D01*
X148513257Y-104419490D01*
X148284686Y-104419490D01*
D12*
X165100067Y-110079633D02*
X165500067Y-110079633D01*
X165300067Y-109379633D02*
X165300067Y-110079633D01*
X165666733Y-110079633D02*
X166133400Y-109379633D01*
X166133400Y-110079633D02*
X165666733Y-109379633D01*
X165116734Y-108274633D02*
X165116734Y-108974633D01*
X165383400Y-108974633D01*
X165450067Y-108941300D01*
X165483400Y-108907967D01*
X165516734Y-108841300D01*
X165516734Y-108741300D01*
X165483400Y-108674633D01*
X165450067Y-108641300D01*
X165383400Y-108607967D01*
X165116734Y-108607967D01*
X165950067Y-108974633D02*
X166016734Y-108974633D01*
X166083400Y-108941300D01*
X166116734Y-108907967D01*
X166150067Y-108841300D01*
X166183400Y-108707967D01*
X166183400Y-108541300D01*
X166150067Y-108407967D01*
X166116734Y-108341300D01*
X166083400Y-108307967D01*
X166016734Y-108274633D01*
X165950067Y-108274633D01*
X165883400Y-108307967D01*
X165850067Y-108341300D01*
X165816734Y-108407967D01*
X165783400Y-108541300D01*
X165783400Y-108707967D01*
X165816734Y-108841300D01*
X165850067Y-108907967D01*
X165883400Y-108941300D01*
X165950067Y-108974633D01*
X162593400Y-109579633D02*
X162926734Y-109579633D01*
X162526734Y-109379633D02*
X162760067Y-110079633D01*
X162993400Y-109379633D01*
X163593400Y-109379633D02*
X163193400Y-109379633D01*
X163393400Y-109379633D02*
X163393400Y-110079633D01*
X163326734Y-109979633D01*
X163260067Y-109912967D01*
X163193400Y-109879633D01*
X162243400Y-108274633D02*
X162243400Y-108974633D01*
X162510066Y-108974633D01*
X162576733Y-108941300D01*
X162610066Y-108907967D01*
X162643400Y-108841300D01*
X162643400Y-108741300D01*
X162610066Y-108674633D01*
X162576733Y-108641300D01*
X162510066Y-108607967D01*
X162243400Y-108607967D01*
X162876733Y-108974633D02*
X163310066Y-108974633D01*
X163076733Y-108707967D01*
X163176733Y-108707967D01*
X163243400Y-108674633D01*
X163276733Y-108641300D01*
X163310066Y-108574633D01*
X163310066Y-108407967D01*
X163276733Y-108341300D01*
X163243400Y-108307967D01*
X163176733Y-108274633D01*
X162976733Y-108274633D01*
X162910066Y-108307967D01*
X162876733Y-108341300D01*
X163576733Y-108907967D02*
X163610067Y-108941300D01*
X163676733Y-108974633D01*
X163843400Y-108974633D01*
X163910067Y-108941300D01*
X163943400Y-108907967D01*
X163976733Y-108841300D01*
X163976733Y-108774633D01*
X163943400Y-108674633D01*
X163543400Y-108274633D01*
X163976733Y-108274633D01*
X168056734Y-109316133D02*
X167823400Y-109649467D01*
X167656734Y-109316133D02*
X167656734Y-110016133D01*
X167923400Y-110016133D01*
X167990067Y-109982800D01*
X168023400Y-109949467D01*
X168056734Y-109882800D01*
X168056734Y-109782800D01*
X168023400Y-109716133D01*
X167990067Y-109682800D01*
X167923400Y-109649467D01*
X167656734Y-109649467D01*
X168290067Y-110016133D02*
X168756734Y-109316133D01*
X168756734Y-110016133D02*
X168290067Y-109316133D01*
X167656734Y-108211133D02*
X167656734Y-108911133D01*
X167923400Y-108911133D01*
X167990067Y-108877800D01*
X168023400Y-108844467D01*
X168056734Y-108777800D01*
X168056734Y-108677800D01*
X168023400Y-108611133D01*
X167990067Y-108577800D01*
X167923400Y-108544467D01*
X167656734Y-108544467D01*
X168323400Y-108844467D02*
X168356734Y-108877800D01*
X168423400Y-108911133D01*
X168590067Y-108911133D01*
X168656734Y-108877800D01*
X168690067Y-108844467D01*
X168723400Y-108777800D01*
X168723400Y-108711133D01*
X168690067Y-108611133D01*
X168290067Y-108211133D01*
X168723400Y-108211133D01*
X157496734Y-109316133D02*
X157496734Y-110016133D01*
X157663400Y-110016133D01*
X157763400Y-109982800D01*
X157830067Y-109916133D01*
X157863400Y-109849467D01*
X157896734Y-109716133D01*
X157896734Y-109616133D01*
X157863400Y-109482800D01*
X157830067Y-109416133D01*
X157763400Y-109349467D01*
X157663400Y-109316133D01*
X157496734Y-109316133D01*
X158330067Y-110016133D02*
X158396734Y-110016133D01*
X158463400Y-109982800D01*
X158496734Y-109949467D01*
X158530067Y-109882800D01*
X158563400Y-109749467D01*
X158563400Y-109582800D01*
X158530067Y-109449467D01*
X158496734Y-109382800D01*
X158463400Y-109349467D01*
X158396734Y-109316133D01*
X158330067Y-109316133D01*
X158263400Y-109349467D01*
X158230067Y-109382800D01*
X158196734Y-109449467D01*
X158163400Y-109582800D01*
X158163400Y-109749467D01*
X158196734Y-109882800D01*
X158230067Y-109949467D01*
X158263400Y-109982800D01*
X158330067Y-110016133D01*
X157163400Y-108211133D02*
X157163400Y-108911133D01*
X157430066Y-108911133D01*
X157496733Y-108877800D01*
X157530066Y-108844467D01*
X157563400Y-108777800D01*
X157563400Y-108677800D01*
X157530066Y-108611133D01*
X157496733Y-108577800D01*
X157430066Y-108544467D01*
X157163400Y-108544467D01*
X157830066Y-108844467D02*
X157863400Y-108877800D01*
X157930066Y-108911133D01*
X158096733Y-108911133D01*
X158163400Y-108877800D01*
X158196733Y-108844467D01*
X158230066Y-108777800D01*
X158230066Y-108711133D01*
X158196733Y-108611133D01*
X157796733Y-108211133D01*
X158230066Y-108211133D01*
X158830067Y-108911133D02*
X158696733Y-108911133D01*
X158630067Y-108877800D01*
X158596733Y-108844467D01*
X158530067Y-108744467D01*
X158496733Y-108611133D01*
X158496733Y-108344467D01*
X158530067Y-108277800D01*
X158563400Y-108244467D01*
X158630067Y-108211133D01*
X158763400Y-108211133D01*
X158830067Y-108244467D01*
X158863400Y-108277800D01*
X158896733Y-108344467D01*
X158896733Y-108511133D01*
X158863400Y-108577800D01*
X158830067Y-108611133D01*
X158763400Y-108644467D01*
X158630067Y-108644467D01*
X158563400Y-108611133D01*
X158530067Y-108577800D01*
X158496733Y-108511133D01*
X152416734Y-109316133D02*
X152416734Y-110016133D01*
X152583400Y-110016133D01*
X152683400Y-109982800D01*
X152750067Y-109916133D01*
X152783400Y-109849467D01*
X152816734Y-109716133D01*
X152816734Y-109616133D01*
X152783400Y-109482800D01*
X152750067Y-109416133D01*
X152683400Y-109349467D01*
X152583400Y-109316133D01*
X152416734Y-109316133D01*
X153483400Y-109316133D02*
X153083400Y-109316133D01*
X153283400Y-109316133D02*
X153283400Y-110016133D01*
X153216734Y-109916133D01*
X153150067Y-109849467D01*
X153083400Y-109816133D01*
X152083400Y-108211133D02*
X152083400Y-108911133D01*
X152250066Y-108911133D01*
X152350066Y-108877800D01*
X152416733Y-108811133D01*
X152450066Y-108744467D01*
X152483400Y-108611133D01*
X152483400Y-108511133D01*
X152450066Y-108377800D01*
X152416733Y-108311133D01*
X152350066Y-108244467D01*
X152250066Y-108211133D01*
X152083400Y-108211133D01*
X152750066Y-108844467D02*
X152783400Y-108877800D01*
X152850066Y-108911133D01*
X153016733Y-108911133D01*
X153083400Y-108877800D01*
X153116733Y-108844467D01*
X153150066Y-108777800D01*
X153150066Y-108711133D01*
X153116733Y-108611133D01*
X152716733Y-108211133D01*
X153150066Y-108211133D01*
X153383400Y-108911133D02*
X153850067Y-108911133D01*
X153550067Y-108211133D01*
X160053400Y-109579633D02*
X160386734Y-109579633D01*
X159986734Y-109379633D02*
X160220067Y-110079633D01*
X160453400Y-109379633D01*
X160820067Y-110079633D02*
X160886734Y-110079633D01*
X160953400Y-110046300D01*
X160986734Y-110012967D01*
X161020067Y-109946300D01*
X161053400Y-109812967D01*
X161053400Y-109646300D01*
X161020067Y-109512967D01*
X160986734Y-109446300D01*
X160953400Y-109412967D01*
X160886734Y-109379633D01*
X160820067Y-109379633D01*
X160753400Y-109412967D01*
X160720067Y-109446300D01*
X160686734Y-109512967D01*
X160653400Y-109646300D01*
X160653400Y-109812967D01*
X160686734Y-109946300D01*
X160720067Y-110012967D01*
X160753400Y-110046300D01*
X160820067Y-110079633D01*
X159703400Y-108274633D02*
X159703400Y-108974633D01*
X159970066Y-108974633D01*
X160036733Y-108941300D01*
X160070066Y-108907967D01*
X160103400Y-108841300D01*
X160103400Y-108741300D01*
X160070066Y-108674633D01*
X160036733Y-108641300D01*
X159970066Y-108607967D01*
X159703400Y-108607967D01*
X160770066Y-108274633D02*
X160370066Y-108274633D01*
X160570066Y-108274633D02*
X160570066Y-108974633D01*
X160503400Y-108874633D01*
X160436733Y-108807967D01*
X160370066Y-108774633D01*
X161370067Y-108741300D02*
X161370067Y-108274633D01*
X161203400Y-109007967D02*
X161036733Y-108507967D01*
X161470067Y-108507967D01*
D13*
X153886162Y-93292657D02*
X153838543Y-93245038D01*
X153695686Y-93197419D01*
X153600448Y-93197419D01*
X153457590Y-93245038D01*
X153362352Y-93340276D01*
X153314733Y-93435514D01*
X153267114Y-93625990D01*
X153267114Y-93768848D01*
X153314733Y-93959324D01*
X153362352Y-94054562D01*
X153457590Y-94149800D01*
X153600448Y-94197419D01*
X153695686Y-94197419D01*
X153838543Y-94149800D01*
X153886162Y-94102181D01*
X154886162Y-93197419D02*
X154552828Y-93673610D01*
X154314733Y-93197419D02*
X154314733Y-94197419D01*
X154695686Y-94197419D01*
X154790924Y-94149800D01*
X154838543Y-94102181D01*
X154886162Y-94006943D01*
X154886162Y-93864086D01*
X154838543Y-93768848D01*
X154790924Y-93721229D01*
X154695686Y-93673610D01*
X154314733Y-93673610D01*
X155267114Y-94102181D02*
X155314733Y-94149800D01*
X155409971Y-94197419D01*
X155648067Y-94197419D01*
X155743305Y-94149800D01*
X155790924Y-94102181D01*
X155838543Y-94006943D01*
X155838543Y-93911705D01*
X155790924Y-93768848D01*
X155219495Y-93197419D01*
X155838543Y-93197419D01*
X156457590Y-94197419D02*
X156552829Y-94197419D01*
X156648067Y-94149800D01*
X156695686Y-94102181D01*
X156743305Y-94006943D01*
X156790924Y-93816467D01*
X156790924Y-93578371D01*
X156743305Y-93387895D01*
X156695686Y-93292657D01*
X156648067Y-93245038D01*
X156552829Y-93197419D01*
X156457590Y-93197419D01*
X156362352Y-93245038D01*
X156314733Y-93292657D01*
X156267114Y-93387895D01*
X156219495Y-93578371D01*
X156219495Y-93816467D01*
X156267114Y-94006943D01*
X156314733Y-94102181D01*
X156362352Y-94149800D01*
X156457590Y-94197419D01*
X157124257Y-94197419D02*
X157743305Y-94197419D01*
X157409971Y-93816467D01*
X157552829Y-93816467D01*
X157648067Y-93768848D01*
X157695686Y-93721229D01*
X157743305Y-93625990D01*
X157743305Y-93387895D01*
X157695686Y-93292657D01*
X157648067Y-93245038D01*
X157552829Y-93197419D01*
X157267114Y-93197419D01*
X157171876Y-93245038D01*
X157124257Y-93292657D01*
X158124257Y-94102181D02*
X158171876Y-94149800D01*
X158267114Y-94197419D01*
X158505210Y-94197419D01*
X158600448Y-94149800D01*
X158648067Y-94102181D01*
X158695686Y-94006943D01*
X158695686Y-93911705D01*
X158648067Y-93768848D01*
X158076638Y-93197419D01*
X158695686Y-93197419D01*
D14*
X144535495Y-106722919D02*
X144535495Y-107722919D01*
X144535495Y-107246729D02*
X145106924Y-107246729D01*
X145106924Y-106722919D02*
X145106924Y-107722919D01*
X146011686Y-106722919D02*
X146011686Y-107246729D01*
X145964067Y-107341967D01*
X145868829Y-107389586D01*
X145678352Y-107389586D01*
X145583114Y-107341967D01*
X146011686Y-106770538D02*
X145916448Y-106722919D01*
X145678352Y-106722919D01*
X145583114Y-106770538D01*
X145535495Y-106865776D01*
X145535495Y-106961014D01*
X145583114Y-107056252D01*
X145678352Y-107103871D01*
X145916448Y-107103871D01*
X146011686Y-107151490D01*
X146964067Y-106722919D02*
X146487876Y-106722919D01*
X146487876Y-107722919D01*
X147725972Y-106722919D02*
X147725972Y-107246729D01*
X147678353Y-107341967D01*
X147583115Y-107389586D01*
X147392638Y-107389586D01*
X147297400Y-107341967D01*
X147725972Y-106770538D02*
X147630734Y-106722919D01*
X147392638Y-106722919D01*
X147297400Y-106770538D01*
X147249781Y-106865776D01*
X147249781Y-106961014D01*
X147297400Y-107056252D01*
X147392638Y-107103871D01*
X147630734Y-107103871D01*
X147725972Y-107151490D01*
X148202162Y-106722919D02*
X148202162Y-107722919D01*
X148297400Y-107103871D02*
X148583115Y-106722919D01*
X148583115Y-107389586D02*
X148202162Y-107008633D01*
X149392639Y-106770538D02*
X149297401Y-106722919D01*
X149106924Y-106722919D01*
X149011686Y-106770538D01*
X148964067Y-106865776D01*
X148964067Y-107246729D01*
X149011686Y-107341967D01*
X149106924Y-107389586D01*
X149297401Y-107389586D01*
X149392639Y-107341967D01*
X149440258Y-107246729D01*
X149440258Y-107151490D01*
X148964067Y-107056252D01*
X149868829Y-106722919D02*
X149868829Y-107722919D01*
X150440258Y-106722919D02*
X150011686Y-107294348D01*
X150440258Y-107722919D02*
X149868829Y-107151490D01*
X150868829Y-106722919D02*
X150868829Y-107389586D01*
X150868829Y-107722919D02*
X150821210Y-107675300D01*
X150868829Y-107627681D01*
X150916448Y-107675300D01*
X150868829Y-107722919D01*
X150868829Y-107627681D01*
X151202162Y-107389586D02*
X151583114Y-107389586D01*
X151345019Y-107722919D02*
X151345019Y-106865776D01*
X151392638Y-106770538D01*
X151487876Y-106722919D01*
X151583114Y-106722919D01*
D12*
X154940067Y-110001800D02*
X154873401Y-110035133D01*
X154773401Y-110035133D01*
X154673401Y-110001800D01*
X154606734Y-109935133D01*
X154573401Y-109868467D01*
X154540067Y-109735133D01*
X154540067Y-109635133D01*
X154573401Y-109501800D01*
X154606734Y-109435133D01*
X154673401Y-109368467D01*
X154773401Y-109335133D01*
X154840067Y-109335133D01*
X154940067Y-109368467D01*
X154973401Y-109401800D01*
X154973401Y-109635133D01*
X154840067Y-109635133D01*
X155273401Y-109335133D02*
X155273401Y-110035133D01*
X155673401Y-109335133D01*
X155673401Y-110035133D01*
X156006734Y-109335133D02*
X156006734Y-110035133D01*
X156173400Y-110035133D01*
X156273400Y-110001800D01*
X156340067Y-109935133D01*
X156373400Y-109868467D01*
X156406734Y-109735133D01*
X156406734Y-109635133D01*
X156373400Y-109501800D01*
X156340067Y-109435133D01*
X156273400Y-109368467D01*
X156173400Y-109335133D01*
X156006734Y-109335133D01*
X149460067Y-110035133D02*
X149693400Y-109335133D01*
X149926733Y-110035133D01*
X150560067Y-109401800D02*
X150526733Y-109368467D01*
X150426733Y-109335133D01*
X150360067Y-109335133D01*
X150260067Y-109368467D01*
X150193400Y-109435133D01*
X150160067Y-109501800D01*
X150126733Y-109635133D01*
X150126733Y-109735133D01*
X150160067Y-109868467D01*
X150193400Y-109935133D01*
X150260067Y-110001800D01*
X150360067Y-110035133D01*
X150426733Y-110035133D01*
X150526733Y-110001800D01*
X150560067Y-109968467D01*
X151260067Y-109401800D02*
X151226733Y-109368467D01*
X151126733Y-109335133D01*
X151060067Y-109335133D01*
X150960067Y-109368467D01*
X150893400Y-109435133D01*
X150860067Y-109501800D01*
X150826733Y-109635133D01*
X150826733Y-109735133D01*
X150860067Y-109868467D01*
X150893400Y-109935133D01*
X150960067Y-110001800D01*
X151060067Y-110035133D01*
X151126733Y-110035133D01*
X151226733Y-110001800D01*
X151260067Y-109968467D01*
X147553400Y-109682800D02*
X147320067Y-109682800D01*
X147320067Y-109316133D02*
X147320067Y-110016133D01*
X147653400Y-110016133D01*
X147853400Y-110016133D02*
X148020067Y-109316133D01*
X148153400Y-109816133D01*
X148286733Y-109316133D01*
X148453400Y-110016133D01*
X147736734Y-108211133D02*
X147503400Y-108544467D01*
X147336734Y-108211133D02*
X147336734Y-108911133D01*
X147603400Y-108911133D01*
X147670067Y-108877800D01*
X147703400Y-108844467D01*
X147736734Y-108777800D01*
X147736734Y-108677800D01*
X147703400Y-108611133D01*
X147670067Y-108577800D01*
X147603400Y-108544467D01*
X147336734Y-108544467D01*
X147970067Y-108911133D02*
X148436734Y-108211133D01*
X148436734Y-108911133D02*
X147970067Y-108211133D01*
X145013400Y-109682800D02*
X144780067Y-109682800D01*
X144780067Y-109316133D02*
X144780067Y-110016133D01*
X145113400Y-110016133D01*
X145313400Y-110016133D02*
X145480067Y-109316133D01*
X145613400Y-109816133D01*
X145746733Y-109316133D01*
X145913400Y-110016133D01*
X144780067Y-108911133D02*
X145180067Y-108911133D01*
X144980067Y-108211133D02*
X144980067Y-108911133D01*
X145346733Y-108911133D02*
X145813400Y-108211133D01*
X145813400Y-108911133D02*
X145346733Y-108211133D01*
D13*
X165901500Y-98475800D02*
G75*
G03X165901500Y-98475800I-9158100J0D01*
G01*
D15*
G36*
X165556854Y-107905573D02*
X165580180Y-107896037D01*
X165656504Y-107883376D01*
X165778538Y-107876581D01*
X165916499Y-107877060D01*
X166121245Y-107866445D01*
X166280728Y-107813735D01*
X166414091Y-107710281D01*
X166491849Y-107617140D01*
X166548283Y-107491404D01*
X166571139Y-107331442D01*
X166560366Y-107166714D01*
X166515911Y-107026683D01*
X166492943Y-106989703D01*
X166341388Y-106840773D01*
X166160054Y-106750318D01*
X165962948Y-106722461D01*
X165764079Y-106761322D01*
X165743954Y-106769319D01*
X165676687Y-106796385D01*
X165631260Y-106803136D01*
X165600423Y-106778938D01*
X165576925Y-106713156D01*
X165553518Y-106595154D01*
X165529861Y-106455278D01*
X165483177Y-106177443D01*
X165110896Y-106177443D01*
X165282326Y-106958742D01*
X165293984Y-107012015D01*
X166181237Y-107012015D01*
X166272570Y-107012015D01*
X166347134Y-107021598D01*
X166378471Y-107039229D01*
X166381357Y-107092600D01*
X166371541Y-107142187D01*
X166354167Y-107187934D01*
X166329362Y-107186197D01*
X166280164Y-107132616D01*
X166265640Y-107114973D01*
X166181237Y-107012015D01*
X165293984Y-107012015D01*
X165345339Y-107246668D01*
X165394645Y-107471355D01*
X165406447Y-107523850D01*
X165604620Y-107523850D01*
X165618729Y-107389989D01*
X165631041Y-107340066D01*
X165647666Y-107290515D01*
X165665779Y-107290591D01*
X165695515Y-107347346D01*
X165716933Y-107396952D01*
X165793780Y-107396952D01*
X165809840Y-107300508D01*
X165869037Y-107240716D01*
X165949743Y-107227662D01*
X166030332Y-107271429D01*
X166039956Y-107282160D01*
X166070132Y-107358478D01*
X166071614Y-107418232D01*
X166050273Y-107475943D01*
X165993764Y-107499008D01*
X165932757Y-107501872D01*
X165845921Y-107494615D01*
X165807086Y-107460725D01*
X165793780Y-107396952D01*
X165716933Y-107396952D01*
X165718713Y-107401073D01*
X165786349Y-107515247D01*
X165870363Y-107597972D01*
X165884853Y-107606783D01*
X165987185Y-107662252D01*
X165878328Y-107663209D01*
X165727728Y-107651716D01*
X165638722Y-107608178D01*
X165604620Y-107523850D01*
X165406447Y-107523850D01*
X165432635Y-107640329D01*
X165461701Y-107761114D01*
X165484233Y-107841235D01*
X165502624Y-107888216D01*
X165519263Y-107909583D01*
X165536543Y-107912860D01*
X165556854Y-107905573D01*
X165556854Y-107905573D01*
G37*
X165556854Y-107905573D02*
X165580180Y-107896037D01*
X165656504Y-107883376D01*
X165778538Y-107876581D01*
X165916499Y-107877060D01*
X166121245Y-107866445D01*
X166280728Y-107813735D01*
X166414091Y-107710281D01*
X166491849Y-107617140D01*
X166548283Y-107491404D01*
X166571139Y-107331442D01*
X166560366Y-107166714D01*
X166515911Y-107026683D01*
X166492943Y-106989703D01*
X166341388Y-106840773D01*
X166160054Y-106750318D01*
X165962948Y-106722461D01*
X165764079Y-106761322D01*
X165743954Y-106769319D01*
X165676687Y-106796385D01*
X165631260Y-106803136D01*
X165600423Y-106778938D01*
X165576925Y-106713156D01*
X165553518Y-106595154D01*
X165529861Y-106455278D01*
X165483177Y-106177443D01*
X165110896Y-106177443D01*
X165282326Y-106958742D01*
X165293984Y-107012015D01*
X166181237Y-107012015D01*
X166272570Y-107012015D01*
X166347134Y-107021598D01*
X166378471Y-107039229D01*
X166381357Y-107092600D01*
X166371541Y-107142187D01*
X166354167Y-107187934D01*
X166329362Y-107186197D01*
X166280164Y-107132616D01*
X166265640Y-107114973D01*
X166181237Y-107012015D01*
X165293984Y-107012015D01*
X165345339Y-107246668D01*
X165394645Y-107471355D01*
X165406447Y-107523850D01*
X165604620Y-107523850D01*
X165618729Y-107389989D01*
X165631041Y-107340066D01*
X165647666Y-107290515D01*
X165665779Y-107290591D01*
X165695515Y-107347346D01*
X165716933Y-107396952D01*
X165793780Y-107396952D01*
X165809840Y-107300508D01*
X165869037Y-107240716D01*
X165949743Y-107227662D01*
X166030332Y-107271429D01*
X166039956Y-107282160D01*
X166070132Y-107358478D01*
X166071614Y-107418232D01*
X166050273Y-107475943D01*
X165993764Y-107499008D01*
X165932757Y-107501872D01*
X165845921Y-107494615D01*
X165807086Y-107460725D01*
X165793780Y-107396952D01*
X165716933Y-107396952D01*
X165718713Y-107401073D01*
X165786349Y-107515247D01*
X165870363Y-107597972D01*
X165884853Y-107606783D01*
X165987185Y-107662252D01*
X165878328Y-107663209D01*
X165727728Y-107651716D01*
X165638722Y-107608178D01*
X165604620Y-107523850D01*
X165406447Y-107523850D01*
X165432635Y-107640329D01*
X165461701Y-107761114D01*
X165484233Y-107841235D01*
X165502624Y-107888216D01*
X165519263Y-107909583D01*
X165536543Y-107912860D01*
X165556854Y-107905573D01*
G36*
X162661187Y-107772516D02*
X162704167Y-107762758D01*
X162724248Y-107736847D01*
X162719257Y-107686890D01*
X162687022Y-107604994D01*
X162625370Y-107483265D01*
X162532128Y-107313811D01*
X162412404Y-107101600D01*
X162115275Y-106576586D01*
X161955730Y-106576586D01*
X161859618Y-106580384D01*
X161802784Y-106589968D01*
X161796185Y-106595279D01*
X161812688Y-106634194D01*
X161855736Y-106717225D01*
X161909729Y-106815159D01*
X162023272Y-107016347D01*
X161950752Y-107379995D01*
X161917313Y-107555015D01*
X161902986Y-107670446D01*
X161911938Y-107737713D01*
X161948337Y-107768243D01*
X162016350Y-107773463D01*
X162092088Y-107767500D01*
X162179580Y-107748066D01*
X162218063Y-107701005D01*
X162225615Y-107665158D01*
X162249223Y-107571253D01*
X162286483Y-107548295D01*
X162339040Y-107596052D01*
X162370586Y-107644705D01*
X162429435Y-107729049D01*
X162493105Y-107765835D01*
X162594843Y-107774013D01*
X162597479Y-107774015D01*
X162661187Y-107772516D01*
X162661187Y-107772516D01*
G37*
X162661187Y-107772516D02*
X162704167Y-107762758D01*
X162724248Y-107736847D01*
X162719257Y-107686890D01*
X162687022Y-107604994D01*
X162625370Y-107483265D01*
X162532128Y-107313811D01*
X162412404Y-107101600D01*
X162115275Y-106576586D01*
X161955730Y-106576586D01*
X161859618Y-106580384D01*
X161802784Y-106589968D01*
X161796185Y-106595279D01*
X161812688Y-106634194D01*
X161855736Y-106717225D01*
X161909729Y-106815159D01*
X162023272Y-107016347D01*
X161950752Y-107379995D01*
X161917313Y-107555015D01*
X161902986Y-107670446D01*
X161911938Y-107737713D01*
X161948337Y-107768243D01*
X162016350Y-107773463D01*
X162092088Y-107767500D01*
X162179580Y-107748066D01*
X162218063Y-107701005D01*
X162225615Y-107665158D01*
X162249223Y-107571253D01*
X162286483Y-107548295D01*
X162339040Y-107596052D01*
X162370586Y-107644705D01*
X162429435Y-107729049D01*
X162493105Y-107765835D01*
X162594843Y-107774013D01*
X162597479Y-107774015D01*
X162661187Y-107772516D01*
G36*
X168391715Y-107771457D02*
X168449720Y-107735095D01*
X168530620Y-107650197D01*
X168540241Y-107578628D01*
X168478514Y-107520123D01*
X168384159Y-107484321D01*
X168222989Y-107439197D01*
X168329730Y-107349380D01*
X168415097Y-107246981D01*
X168436471Y-107152130D01*
X168408790Y-106999948D01*
X168335045Y-106873954D01*
X168229189Y-106782080D01*
X168105172Y-106732256D01*
X167976944Y-106732416D01*
X167858456Y-106790489D01*
X167836107Y-106810794D01*
X167760960Y-106910916D01*
X167755693Y-106992138D01*
X167820503Y-107055818D01*
X167874655Y-107079867D01*
X167937878Y-107102729D01*
X168037328Y-107102729D01*
X168055471Y-107084586D01*
X168073614Y-107102729D01*
X168055471Y-107120872D01*
X168037328Y-107102729D01*
X167937878Y-107102729D01*
X168002267Y-107126012D01*
X167929083Y-107219050D01*
X167870620Y-107319379D01*
X167861704Y-107423845D01*
X167900836Y-107557029D01*
X167907470Y-107573199D01*
X167993360Y-107699087D01*
X168115193Y-107777824D01*
X168254225Y-107803813D01*
X168391715Y-107771457D01*
X168391715Y-107771457D01*
G37*
X168391715Y-107771457D02*
X168449720Y-107735095D01*
X168530620Y-107650197D01*
X168540241Y-107578628D01*
X168478514Y-107520123D01*
X168384159Y-107484321D01*
X168222989Y-107439197D01*
X168329730Y-107349380D01*
X168415097Y-107246981D01*
X168436471Y-107152130D01*
X168408790Y-106999948D01*
X168335045Y-106873954D01*
X168229189Y-106782080D01*
X168105172Y-106732256D01*
X167976944Y-106732416D01*
X167858456Y-106790489D01*
X167836107Y-106810794D01*
X167760960Y-106910916D01*
X167755693Y-106992138D01*
X167820503Y-107055818D01*
X167874655Y-107079867D01*
X167937878Y-107102729D01*
X168037328Y-107102729D01*
X168055471Y-107084586D01*
X168073614Y-107102729D01*
X168055471Y-107120872D01*
X168037328Y-107102729D01*
X167937878Y-107102729D01*
X168002267Y-107126012D01*
X167929083Y-107219050D01*
X167870620Y-107319379D01*
X167861704Y-107423845D01*
X167900836Y-107557029D01*
X167907470Y-107573199D01*
X167993360Y-107699087D01*
X168115193Y-107777824D01*
X168254225Y-107803813D01*
X168391715Y-107771457D01*
G36*
X167722734Y-107795192D02*
X167800611Y-107785610D01*
X167819614Y-107775933D01*
X167812347Y-107729940D01*
X167792926Y-107629915D01*
X167764916Y-107492673D01*
X167731885Y-107335031D01*
X167697398Y-107173803D01*
X167665024Y-107025807D01*
X167638329Y-106907858D01*
X167620879Y-106836772D01*
X167619097Y-106830586D01*
X167595196Y-106803807D01*
X167534864Y-106785831D01*
X167426152Y-106774617D01*
X167257109Y-106768124D01*
X167252957Y-106768026D01*
X166903333Y-106759895D01*
X166780902Y-106882326D01*
X166698874Y-106979813D01*
X166663938Y-107072828D01*
X166659268Y-107144457D01*
X166674035Y-107229361D01*
X167075874Y-107229361D01*
X167116196Y-107172201D01*
X167196800Y-107164119D01*
X167266509Y-107184833D01*
X167291519Y-107240559D01*
X167293471Y-107284157D01*
X167279822Y-107367389D01*
X167230577Y-107401502D01*
X167217724Y-107403837D01*
X167129932Y-107386365D01*
X167076744Y-107320444D01*
X167075874Y-107229361D01*
X166674035Y-107229361D01*
X166693454Y-107341002D01*
X166784902Y-107527598D01*
X166920245Y-107677624D01*
X166931375Y-107686341D01*
X166998105Y-107733423D01*
X167062076Y-107764147D01*
X167141607Y-107782546D01*
X167255014Y-107792654D01*
X167420614Y-107798503D01*
X167443325Y-107799073D01*
X167598617Y-107799989D01*
X167722734Y-107795192D01*
X167722734Y-107795192D01*
G37*
X167722734Y-107795192D02*
X167800611Y-107785610D01*
X167819614Y-107775933D01*
X167812347Y-107729940D01*
X167792926Y-107629915D01*
X167764916Y-107492673D01*
X167731885Y-107335031D01*
X167697398Y-107173803D01*
X167665024Y-107025807D01*
X167638329Y-106907858D01*
X167620879Y-106836772D01*
X167619097Y-106830586D01*
X167595196Y-106803807D01*
X167534864Y-106785831D01*
X167426152Y-106774617D01*
X167257109Y-106768124D01*
X167252957Y-106768026D01*
X166903333Y-106759895D01*
X166780902Y-106882326D01*
X166698874Y-106979813D01*
X166663938Y-107072828D01*
X166659268Y-107144457D01*
X166674035Y-107229361D01*
X167075874Y-107229361D01*
X167116196Y-107172201D01*
X167196800Y-107164119D01*
X167266509Y-107184833D01*
X167291519Y-107240559D01*
X167293471Y-107284157D01*
X167279822Y-107367389D01*
X167230577Y-107401502D01*
X167217724Y-107403837D01*
X167129932Y-107386365D01*
X167076744Y-107320444D01*
X167075874Y-107229361D01*
X166674035Y-107229361D01*
X166693454Y-107341002D01*
X166784902Y-107527598D01*
X166920245Y-107677624D01*
X166931375Y-107686341D01*
X166998105Y-107733423D01*
X167062076Y-107764147D01*
X167141607Y-107782546D01*
X167255014Y-107792654D01*
X167420614Y-107798503D01*
X167443325Y-107799073D01*
X167598617Y-107799989D01*
X167722734Y-107795192D01*
G36*
X169048152Y-107791166D02*
X169151351Y-107747135D01*
X169216247Y-107667336D01*
X169227897Y-107621591D01*
X169226903Y-107556275D01*
X169191429Y-107520873D01*
X169102752Y-107496955D01*
X169100897Y-107496584D01*
X169002519Y-107480613D01*
X168934247Y-107475987D01*
X168926328Y-107476911D01*
X168927151Y-107463580D01*
X168974639Y-107420657D01*
X168992662Y-107406595D01*
X169101773Y-107292892D01*
X169140238Y-107169085D01*
X169111916Y-107034514D01*
X169022761Y-106891140D01*
X168904510Y-106799457D01*
X168771008Y-106764593D01*
X168636104Y-106791677D01*
X168568365Y-106833220D01*
X168512003Y-106898914D01*
X168477462Y-106977805D01*
X168470380Y-107046914D01*
X168496396Y-107083265D01*
X168506680Y-107084586D01*
X168563350Y-107096521D01*
X168581942Y-107102729D01*
X168763042Y-107102729D01*
X168781185Y-107084586D01*
X168799328Y-107102729D01*
X168781185Y-107120872D01*
X168763042Y-107102729D01*
X168581942Y-107102729D01*
X168634331Y-107120221D01*
X168728058Y-107155856D01*
X168650623Y-107233291D01*
X168597526Y-107333161D01*
X168591538Y-107461432D01*
X168630329Y-107593377D01*
X168693300Y-107686311D01*
X168800669Y-107762989D01*
X168925105Y-107797195D01*
X169048152Y-107791166D01*
X169048152Y-107791166D01*
G37*
X169048152Y-107791166D02*
X169151351Y-107747135D01*
X169216247Y-107667336D01*
X169227897Y-107621591D01*
X169226903Y-107556275D01*
X169191429Y-107520873D01*
X169102752Y-107496955D01*
X169100897Y-107496584D01*
X169002519Y-107480613D01*
X168934247Y-107475987D01*
X168926328Y-107476911D01*
X168927151Y-107463580D01*
X168974639Y-107420657D01*
X168992662Y-107406595D01*
X169101773Y-107292892D01*
X169140238Y-107169085D01*
X169111916Y-107034514D01*
X169022761Y-106891140D01*
X168904510Y-106799457D01*
X168771008Y-106764593D01*
X168636104Y-106791677D01*
X168568365Y-106833220D01*
X168512003Y-106898914D01*
X168477462Y-106977805D01*
X168470380Y-107046914D01*
X168496396Y-107083265D01*
X168506680Y-107084586D01*
X168563350Y-107096521D01*
X168581942Y-107102729D01*
X168763042Y-107102729D01*
X168781185Y-107084586D01*
X168799328Y-107102729D01*
X168781185Y-107120872D01*
X168763042Y-107102729D01*
X168581942Y-107102729D01*
X168634331Y-107120221D01*
X168728058Y-107155856D01*
X168650623Y-107233291D01*
X168597526Y-107333161D01*
X168591538Y-107461432D01*
X168630329Y-107593377D01*
X168693300Y-107686311D01*
X168800669Y-107762989D01*
X168925105Y-107797195D01*
X169048152Y-107791166D01*
G36*
X163616149Y-107809223D02*
X163655067Y-107798357D01*
X163674164Y-107766251D01*
X163674805Y-107701452D01*
X163658358Y-107592508D01*
X163626187Y-107427969D01*
X163610764Y-107351652D01*
X163569588Y-107146706D01*
X163539411Y-107002513D01*
X163515596Y-106908959D01*
X163493503Y-106855929D01*
X163468497Y-106833311D01*
X163435940Y-106830989D01*
X163391193Y-106838850D01*
X163376776Y-106841349D01*
X163250497Y-106847136D01*
X163133656Y-106833973D01*
X163010129Y-106823864D01*
X162896111Y-106837345D01*
X162755853Y-106906544D01*
X162668513Y-107023347D01*
X162637611Y-107182196D01*
X162640264Y-107241503D01*
X162657030Y-107311209D01*
X162994904Y-107311209D01*
X163014066Y-107240697D01*
X163049109Y-107206319D01*
X163130922Y-107180976D01*
X163203226Y-107209894D01*
X163240885Y-107278973D01*
X163240744Y-107313827D01*
X163214154Y-107372609D01*
X163143959Y-107392482D01*
X163121111Y-107393015D01*
X163033306Y-107369036D01*
X162994904Y-107311209D01*
X162657030Y-107311209D01*
X162684540Y-107425584D01*
X162784386Y-107577611D01*
X162924379Y-107695604D01*
X163018883Y-107748404D01*
X163116847Y-107768603D01*
X163238543Y-107765190D01*
X163344711Y-107761829D01*
X163413867Y-107769539D01*
X163429043Y-107780101D01*
X163460959Y-107800067D01*
X163539433Y-107810041D01*
X163556043Y-107810300D01*
X163616149Y-107809223D01*
X163616149Y-107809223D01*
G37*
X163616149Y-107809223D02*
X163655067Y-107798357D01*
X163674164Y-107766251D01*
X163674805Y-107701452D01*
X163658358Y-107592508D01*
X163626187Y-107427969D01*
X163610764Y-107351652D01*
X163569588Y-107146706D01*
X163539411Y-107002513D01*
X163515596Y-106908959D01*
X163493503Y-106855929D01*
X163468497Y-106833311D01*
X163435940Y-106830989D01*
X163391193Y-106838850D01*
X163376776Y-106841349D01*
X163250497Y-106847136D01*
X163133656Y-106833973D01*
X163010129Y-106823864D01*
X162896111Y-106837345D01*
X162755853Y-106906544D01*
X162668513Y-107023347D01*
X162637611Y-107182196D01*
X162640264Y-107241503D01*
X162657030Y-107311209D01*
X162994904Y-107311209D01*
X163014066Y-107240697D01*
X163049109Y-107206319D01*
X163130922Y-107180976D01*
X163203226Y-107209894D01*
X163240885Y-107278973D01*
X163240744Y-107313827D01*
X163214154Y-107372609D01*
X163143959Y-107392482D01*
X163121111Y-107393015D01*
X163033306Y-107369036D01*
X162994904Y-107311209D01*
X162657030Y-107311209D01*
X162684540Y-107425584D01*
X162784386Y-107577611D01*
X162924379Y-107695604D01*
X163018883Y-107748404D01*
X163116847Y-107768603D01*
X163238543Y-107765190D01*
X163344711Y-107761829D01*
X163413867Y-107769539D01*
X163429043Y-107780101D01*
X163460959Y-107800067D01*
X163539433Y-107810041D01*
X163556043Y-107810300D01*
X163616149Y-107809223D01*
G36*
X165071149Y-107801923D02*
X165196042Y-107719693D01*
X165219670Y-107691853D01*
X165256980Y-107635573D01*
X165274824Y-107580071D01*
X165274900Y-107504049D01*
X165258911Y-107386207D01*
X165248907Y-107325619D01*
X165221220Y-107172560D01*
X165191912Y-107028846D01*
X165167553Y-106926466D01*
X165141868Y-106847835D01*
X165106566Y-106808882D01*
X165038865Y-106795680D01*
X164951337Y-106794300D01*
X164848274Y-106799244D01*
X164783035Y-106811871D01*
X164771149Y-106821515D01*
X164778666Y-106867914D01*
X164798915Y-106964902D01*
X164827700Y-107092496D01*
X164831165Y-107107357D01*
X164865407Y-107280855D01*
X164871126Y-107393638D01*
X164847331Y-107452136D01*
X164793030Y-107462779D01*
X164776902Y-107459340D01*
X164732802Y-107430318D01*
X164695171Y-107360226D01*
X164657662Y-107235734D01*
X164644346Y-107180942D01*
X164611983Y-107044148D01*
X164584255Y-106929314D01*
X164566872Y-106860069D01*
X164566261Y-106857800D01*
X164538115Y-106817760D01*
X164470425Y-106798527D01*
X164370026Y-106794300D01*
X164267333Y-106800724D01*
X164202594Y-106817126D01*
X164191042Y-106829555D01*
X164198397Y-106879843D01*
X164217858Y-106980864D01*
X164245520Y-107112571D01*
X164251367Y-107139344D01*
X164281718Y-107297291D01*
X164289501Y-107397171D01*
X164275415Y-107449659D01*
X164271949Y-107453622D01*
X164212277Y-107482425D01*
X164157419Y-107442905D01*
X164106218Y-107333572D01*
X164065328Y-107187284D01*
X164032599Y-107049039D01*
X164004524Y-106932749D01*
X163986707Y-106861599D01*
X163985689Y-106857800D01*
X163957544Y-106817760D01*
X163889854Y-106798527D01*
X163789454Y-106794300D01*
X163666215Y-106803182D01*
X163613327Y-106829828D01*
X163611098Y-106839657D01*
X163619357Y-106895181D01*
X163640876Y-107001162D01*
X163671799Y-107141320D01*
X163708272Y-107299374D01*
X163746439Y-107459045D01*
X163782446Y-107604053D01*
X163812437Y-107718116D01*
X163832558Y-107784955D01*
X163837396Y-107795321D01*
X163886268Y-107809863D01*
X163986305Y-107820787D01*
X164116167Y-107827566D01*
X164254513Y-107829674D01*
X164380003Y-107826583D01*
X164471296Y-107817768D01*
X164496117Y-107811576D01*
X164602559Y-107798448D01*
X164729009Y-107816968D01*
X164909606Y-107835844D01*
X165071149Y-107801923D01*
X165071149Y-107801923D01*
G37*
X165071149Y-107801923D02*
X165196042Y-107719693D01*
X165219670Y-107691853D01*
X165256980Y-107635573D01*
X165274824Y-107580071D01*
X165274900Y-107504049D01*
X165258911Y-107386207D01*
X165248907Y-107325619D01*
X165221220Y-107172560D01*
X165191912Y-107028846D01*
X165167553Y-106926466D01*
X165141868Y-106847835D01*
X165106566Y-106808882D01*
X165038865Y-106795680D01*
X164951337Y-106794300D01*
X164848274Y-106799244D01*
X164783035Y-106811871D01*
X164771149Y-106821515D01*
X164778666Y-106867914D01*
X164798915Y-106964902D01*
X164827700Y-107092496D01*
X164831165Y-107107357D01*
X164865407Y-107280855D01*
X164871126Y-107393638D01*
X164847331Y-107452136D01*
X164793030Y-107462779D01*
X164776902Y-107459340D01*
X164732802Y-107430318D01*
X164695171Y-107360226D01*
X164657662Y-107235734D01*
X164644346Y-107180942D01*
X164611983Y-107044148D01*
X164584255Y-106929314D01*
X164566872Y-106860069D01*
X164566261Y-106857800D01*
X164538115Y-106817760D01*
X164470425Y-106798527D01*
X164370026Y-106794300D01*
X164267333Y-106800724D01*
X164202594Y-106817126D01*
X164191042Y-106829555D01*
X164198397Y-106879843D01*
X164217858Y-106980864D01*
X164245520Y-107112571D01*
X164251367Y-107139344D01*
X164281718Y-107297291D01*
X164289501Y-107397171D01*
X164275415Y-107449659D01*
X164271949Y-107453622D01*
X164212277Y-107482425D01*
X164157419Y-107442905D01*
X164106218Y-107333572D01*
X164065328Y-107187284D01*
X164032599Y-107049039D01*
X164004524Y-106932749D01*
X163986707Y-106861599D01*
X163985689Y-106857800D01*
X163957544Y-106817760D01*
X163889854Y-106798527D01*
X163789454Y-106794300D01*
X163666215Y-106803182D01*
X163613327Y-106829828D01*
X163611098Y-106839657D01*
X163619357Y-106895181D01*
X163640876Y-107001162D01*
X163671799Y-107141320D01*
X163708272Y-107299374D01*
X163746439Y-107459045D01*
X163782446Y-107604053D01*
X163812437Y-107718116D01*
X163832558Y-107784955D01*
X163837396Y-107795321D01*
X163886268Y-107809863D01*
X163986305Y-107820787D01*
X164116167Y-107827566D01*
X164254513Y-107829674D01*
X164380003Y-107826583D01*
X164471296Y-107817768D01*
X164496117Y-107811576D01*
X164602559Y-107798448D01*
X164729009Y-107816968D01*
X164909606Y-107835844D01*
X165071149Y-107801923D01*
G36*
X161628828Y-107732780D02*
X161716666Y-107687154D01*
X161776353Y-107618400D01*
X161805054Y-107544130D01*
X161809691Y-107437668D01*
X161789329Y-107288467D01*
X161743033Y-107085978D01*
X161722061Y-107006246D01*
X161692076Y-106916257D01*
X161650003Y-106876726D01*
X161569038Y-106867043D01*
X161540787Y-106866872D01*
X161464960Y-106868685D01*
X161420837Y-106883262D01*
X161404435Y-106924309D01*
X161411773Y-107005533D01*
X161438866Y-107140641D01*
X161448366Y-107184937D01*
X161469365Y-107304542D01*
X161476228Y-107393253D01*
X161468509Y-107429984D01*
X161404315Y-107435375D01*
X161347971Y-107380679D01*
X161311853Y-107278236D01*
X161310926Y-107272846D01*
X161284646Y-107140973D01*
X161251645Y-107006991D01*
X161250512Y-107002943D01*
X161219573Y-106914779D01*
X161176073Y-106876247D01*
X161092833Y-106866998D01*
X161068765Y-106866872D01*
X160967286Y-106877565D01*
X160925569Y-106907562D01*
X160925049Y-106912229D01*
X160931912Y-106964727D01*
X160950698Y-107071477D01*
X160978337Y-107215725D01*
X161004138Y-107343845D01*
X161083507Y-107730105D01*
X161321918Y-107746420D01*
X161502535Y-107751046D01*
X161628828Y-107732780D01*
X161628828Y-107732780D01*
G37*
X161628828Y-107732780D02*
X161716666Y-107687154D01*
X161776353Y-107618400D01*
X161805054Y-107544130D01*
X161809691Y-107437668D01*
X161789329Y-107288467D01*
X161743033Y-107085978D01*
X161722061Y-107006246D01*
X161692076Y-106916257D01*
X161650003Y-106876726D01*
X161569038Y-106867043D01*
X161540787Y-106866872D01*
X161464960Y-106868685D01*
X161420837Y-106883262D01*
X161404435Y-106924309D01*
X161411773Y-107005533D01*
X161438866Y-107140641D01*
X161448366Y-107184937D01*
X161469365Y-107304542D01*
X161476228Y-107393253D01*
X161468509Y-107429984D01*
X161404315Y-107435375D01*
X161347971Y-107380679D01*
X161311853Y-107278236D01*
X161310926Y-107272846D01*
X161284646Y-107140973D01*
X161251645Y-107006991D01*
X161250512Y-107002943D01*
X161219573Y-106914779D01*
X161176073Y-106876247D01*
X161092833Y-106866998D01*
X161068765Y-106866872D01*
X160967286Y-106877565D01*
X160925569Y-106907562D01*
X160925049Y-106912229D01*
X160931912Y-106964727D01*
X160950698Y-107071477D01*
X160978337Y-107215725D01*
X161004138Y-107343845D01*
X161083507Y-107730105D01*
X161321918Y-107746420D01*
X161502535Y-107751046D01*
X161628828Y-107732780D01*
G36*
X167687025Y-105342083D02*
X167699170Y-105277029D01*
X167710635Y-105218724D01*
X167720627Y-105170964D01*
X167728355Y-105137548D01*
X167732879Y-105122539D01*
X167746374Y-105111728D01*
X167776034Y-105095711D01*
X167817227Y-105076371D01*
X167865318Y-105055594D01*
X167915673Y-105035262D01*
X167963659Y-105017259D01*
X168004642Y-105003471D01*
X168033988Y-104995779D01*
X168045928Y-104995265D01*
X168059914Y-105003302D01*
X168088791Y-105021792D01*
X168129307Y-105048588D01*
X168178212Y-105081545D01*
X168225403Y-105113797D01*
X168278879Y-105150334D01*
X168326702Y-105182556D01*
X168365653Y-105208329D01*
X168392512Y-105225519D01*
X168403588Y-105231853D01*
X168415731Y-105226211D01*
X168440006Y-105207265D01*
X168473505Y-105177890D01*
X168513321Y-105140957D01*
X168556548Y-105099340D01*
X168600277Y-105055912D01*
X168641602Y-105013545D01*
X168677615Y-104975114D01*
X168705409Y-104943490D01*
X168722078Y-104921547D01*
X168725574Y-104913656D01*
X168719580Y-104899379D01*
X168702917Y-104870187D01*
X168677562Y-104829270D01*
X168645490Y-104779822D01*
X168609618Y-104726409D01*
X168572955Y-104671982D01*
X168541060Y-104623276D01*
X168515902Y-104583409D01*
X168499447Y-104555496D01*
X168493661Y-104542727D01*
X168497911Y-104527764D01*
X168509347Y-104497312D01*
X168525992Y-104455984D01*
X168545875Y-104408389D01*
X168567019Y-104359139D01*
X168587453Y-104312844D01*
X168605200Y-104274115D01*
X168618288Y-104247562D01*
X168624029Y-104238232D01*
X168636079Y-104234459D01*
X168665759Y-104227435D01*
X168708991Y-104217978D01*
X168761697Y-104206908D01*
X168819797Y-104195044D01*
X168879215Y-104183204D01*
X168935871Y-104172207D01*
X168985688Y-104162872D01*
X169024585Y-104156018D01*
X169048487Y-104152464D01*
X169052801Y-104152148D01*
X169055115Y-104141772D01*
X169056664Y-104113278D01*
X169057510Y-104070622D01*
X169057712Y-104017759D01*
X169057330Y-103958642D01*
X169056423Y-103897227D01*
X169055052Y-103837469D01*
X169053275Y-103783322D01*
X169051153Y-103738741D01*
X169048745Y-103707680D01*
X169046112Y-103694094D01*
X169045880Y-103693871D01*
X169031915Y-103689721D01*
X168999927Y-103682389D01*
X168953622Y-103672656D01*
X168896706Y-103661305D01*
X168840755Y-103650592D01*
X168776276Y-103637787D01*
X168719477Y-103625199D01*
X168674040Y-103613745D01*
X168643644Y-103604341D01*
X168632487Y-103598760D01*
X168623451Y-103583204D01*
X168608718Y-103551734D01*
X168590183Y-103509044D01*
X168569736Y-103459829D01*
X168549272Y-103408787D01*
X168530682Y-103360612D01*
X168515859Y-103319999D01*
X168506696Y-103291646D01*
X168504663Y-103281629D01*
X168510695Y-103268147D01*
X168527401Y-103239838D01*
X168552735Y-103199934D01*
X168584656Y-103151667D01*
X168615139Y-103106917D01*
X168651083Y-103053798D01*
X168682135Y-103005955D01*
X168706240Y-102966715D01*
X168721345Y-102939403D01*
X168725574Y-102928157D01*
X168718129Y-102915760D01*
X168697735Y-102891039D01*
X168667300Y-102856984D01*
X168629736Y-102816589D01*
X168587951Y-102772845D01*
X168544855Y-102728744D01*
X168503359Y-102687278D01*
X168466372Y-102651440D01*
X168436803Y-102624222D01*
X168417563Y-102608615D01*
X168412335Y-102606061D01*
X168400582Y-102612021D01*
X168373889Y-102628524D01*
X168335449Y-102653504D01*
X168288455Y-102684894D01*
X168249693Y-102711280D01*
X168197584Y-102746718D01*
X168150884Y-102777901D01*
X168113021Y-102802584D01*
X168087423Y-102818525D01*
X168078540Y-102823317D01*
X168060345Y-102822059D01*
X168028869Y-102812303D01*
X167990287Y-102796010D01*
X167985661Y-102793800D01*
X167947474Y-102776991D01*
X167915754Y-102766042D01*
X167896599Y-102763007D01*
X167895215Y-102763350D01*
X167888590Y-102774086D01*
X167874748Y-102802396D01*
X167854905Y-102845442D01*
X167830277Y-102900385D01*
X167802078Y-102964384D01*
X167771526Y-103034601D01*
X167739835Y-103108196D01*
X167708221Y-103182331D01*
X167677900Y-103254165D01*
X167650087Y-103320860D01*
X167625998Y-103379576D01*
X167606849Y-103427475D01*
X167593855Y-103461716D01*
X167588231Y-103479461D01*
X167588096Y-103480665D01*
X167596369Y-103489850D01*
X167618460Y-103508567D01*
X167650277Y-103533420D01*
X167664973Y-103544440D01*
X167741937Y-103613565D01*
X167800524Y-103691632D01*
X167840554Y-103776149D01*
X167861847Y-103864625D01*
X167864223Y-103954568D01*
X167847504Y-104043487D01*
X167811508Y-104128891D01*
X167756058Y-104208287D01*
X167715821Y-104249768D01*
X167639660Y-104306414D01*
X167557848Y-104343605D01*
X167472848Y-104362428D01*
X167387126Y-104363971D01*
X167303144Y-104349322D01*
X167223367Y-104319567D01*
X167150259Y-104275794D01*
X167086284Y-104219090D01*
X167033906Y-104150543D01*
X166995589Y-104071239D01*
X166973798Y-103982266D01*
X166969661Y-103920511D01*
X166980101Y-103821588D01*
X167011207Y-103730156D01*
X167062659Y-103646817D01*
X167134137Y-103572176D01*
X167168871Y-103544440D01*
X167203459Y-103518069D01*
X167229976Y-103496462D01*
X167244329Y-103483014D01*
X167245748Y-103480665D01*
X167241546Y-103466047D01*
X167229753Y-103434442D01*
X167211583Y-103388689D01*
X167188255Y-103331628D01*
X167160985Y-103266098D01*
X167130989Y-103194938D01*
X167099485Y-103120988D01*
X167067688Y-103047086D01*
X167036816Y-102976073D01*
X167008085Y-102910788D01*
X166982711Y-102854069D01*
X166961913Y-102808757D01*
X166946905Y-102777691D01*
X166938905Y-102763709D01*
X166938324Y-102763233D01*
X166921577Y-102765038D01*
X166891243Y-102775219D01*
X166853204Y-102791720D01*
X166844020Y-102796175D01*
X166765357Y-102835119D01*
X166597954Y-102720590D01*
X166544277Y-102684203D01*
X166496697Y-102652585D01*
X166458258Y-102627708D01*
X166432009Y-102611546D01*
X166421110Y-102606061D01*
X166410736Y-102613532D01*
X166387411Y-102634346D01*
X166353676Y-102666106D01*
X166312074Y-102706413D01*
X166265147Y-102752870D01*
X166259970Y-102758052D01*
X166212946Y-102806077D01*
X166171853Y-102849784D01*
X166139109Y-102886460D01*
X166117129Y-102913388D01*
X166108332Y-102927855D01*
X166108270Y-102928448D01*
X166114309Y-102943191D01*
X166131058Y-102972640D01*
X166156462Y-103013478D01*
X166188467Y-103062385D01*
X166218705Y-103106917D01*
X166254586Y-103159718D01*
X166285602Y-103206878D01*
X166309709Y-103245165D01*
X166324864Y-103271346D01*
X166329180Y-103281629D01*
X166325082Y-103298662D01*
X166314004Y-103331227D01*
X166297840Y-103374627D01*
X166278482Y-103424167D01*
X166257823Y-103475151D01*
X166237756Y-103522884D01*
X166220173Y-103562670D01*
X166206966Y-103589814D01*
X166201357Y-103598760D01*
X166186197Y-103605774D01*
X166152948Y-103615597D01*
X166105291Y-103627312D01*
X166046907Y-103640002D01*
X165993089Y-103650592D01*
X165929897Y-103662721D01*
X165874055Y-103673921D01*
X165829266Y-103683407D01*
X165799238Y-103690400D01*
X165787964Y-103693871D01*
X165785314Y-103705789D01*
X165782885Y-103735518D01*
X165780737Y-103779104D01*
X165778928Y-103832591D01*
X165777520Y-103892026D01*
X165776571Y-103953454D01*
X165776142Y-104012919D01*
X165776292Y-104066468D01*
X165777081Y-104110146D01*
X165778569Y-104139998D01*
X165780815Y-104152069D01*
X165781042Y-104152148D01*
X165798143Y-104154227D01*
X165831797Y-104159918D01*
X165877927Y-104168403D01*
X165932453Y-104178862D01*
X165991298Y-104190477D01*
X166050383Y-104202428D01*
X166105629Y-104213898D01*
X166152959Y-104224067D01*
X166188294Y-104232117D01*
X166207555Y-104237228D01*
X166209815Y-104238232D01*
X166217836Y-104251930D01*
X166232073Y-104281441D01*
X166250553Y-104322154D01*
X166271301Y-104369458D01*
X166292344Y-104418743D01*
X166311706Y-104465397D01*
X166327415Y-104504811D01*
X166337496Y-104532373D01*
X166340183Y-104542727D01*
X166334208Y-104555841D01*
X166317594Y-104583975D01*
X166292310Y-104624012D01*
X166260321Y-104672837D01*
X166224226Y-104726409D01*
X166187508Y-104781104D01*
X166155576Y-104830382D01*
X166130409Y-104871051D01*
X166113982Y-104899918D01*
X166108270Y-104913656D01*
X166115783Y-104927439D01*
X166136385Y-104952842D01*
X166167169Y-104986992D01*
X166205226Y-105027017D01*
X166247651Y-105070044D01*
X166291536Y-105113198D01*
X166333973Y-105153609D01*
X166372056Y-105188401D01*
X166402877Y-105214703D01*
X166423529Y-105229642D01*
X166430256Y-105231853D01*
X166443809Y-105223980D01*
X166472289Y-105205648D01*
X166512474Y-105178989D01*
X166561145Y-105146137D01*
X166608440Y-105113797D01*
X166662025Y-105077208D01*
X166710068Y-105044897D01*
X166749321Y-105019011D01*
X166776532Y-105001698D01*
X166787916Y-104995265D01*
X166804721Y-104996772D01*
X166836842Y-105005873D01*
X166879646Y-105020684D01*
X166928499Y-105039320D01*
X166978767Y-105059898D01*
X167025816Y-105080533D01*
X167065013Y-105099343D01*
X167091723Y-105114442D01*
X167100965Y-105122539D01*
X167105800Y-105138782D01*
X167113656Y-105172982D01*
X167123738Y-105221342D01*
X167135255Y-105280063D01*
X167146819Y-105342083D01*
X167183488Y-105543626D01*
X167650356Y-105543626D01*
X167687025Y-105342083D01*
X167687025Y-105342083D01*
G37*
X167687025Y-105342083D02*
X167699170Y-105277029D01*
X167710635Y-105218724D01*
X167720627Y-105170964D01*
X167728355Y-105137548D01*
X167732879Y-105122539D01*
X167746374Y-105111728D01*
X167776034Y-105095711D01*
X167817227Y-105076371D01*
X167865318Y-105055594D01*
X167915673Y-105035262D01*
X167963659Y-105017259D01*
X168004642Y-105003471D01*
X168033988Y-104995779D01*
X168045928Y-104995265D01*
X168059914Y-105003302D01*
X168088791Y-105021792D01*
X168129307Y-105048588D01*
X168178212Y-105081545D01*
X168225403Y-105113797D01*
X168278879Y-105150334D01*
X168326702Y-105182556D01*
X168365653Y-105208329D01*
X168392512Y-105225519D01*
X168403588Y-105231853D01*
X168415731Y-105226211D01*
X168440006Y-105207265D01*
X168473505Y-105177890D01*
X168513321Y-105140957D01*
X168556548Y-105099340D01*
X168600277Y-105055912D01*
X168641602Y-105013545D01*
X168677615Y-104975114D01*
X168705409Y-104943490D01*
X168722078Y-104921547D01*
X168725574Y-104913656D01*
X168719580Y-104899379D01*
X168702917Y-104870187D01*
X168677562Y-104829270D01*
X168645490Y-104779822D01*
X168609618Y-104726409D01*
X168572955Y-104671982D01*
X168541060Y-104623276D01*
X168515902Y-104583409D01*
X168499447Y-104555496D01*
X168493661Y-104542727D01*
X168497911Y-104527764D01*
X168509347Y-104497312D01*
X168525992Y-104455984D01*
X168545875Y-104408389D01*
X168567019Y-104359139D01*
X168587453Y-104312844D01*
X168605200Y-104274115D01*
X168618288Y-104247562D01*
X168624029Y-104238232D01*
X168636079Y-104234459D01*
X168665759Y-104227435D01*
X168708991Y-104217978D01*
X168761697Y-104206908D01*
X168819797Y-104195044D01*
X168879215Y-104183204D01*
X168935871Y-104172207D01*
X168985688Y-104162872D01*
X169024585Y-104156018D01*
X169048487Y-104152464D01*
X169052801Y-104152148D01*
X169055115Y-104141772D01*
X169056664Y-104113278D01*
X169057510Y-104070622D01*
X169057712Y-104017759D01*
X169057330Y-103958642D01*
X169056423Y-103897227D01*
X169055052Y-103837469D01*
X169053275Y-103783322D01*
X169051153Y-103738741D01*
X169048745Y-103707680D01*
X169046112Y-103694094D01*
X169045880Y-103693871D01*
X169031915Y-103689721D01*
X168999927Y-103682389D01*
X168953622Y-103672656D01*
X168896706Y-103661305D01*
X168840755Y-103650592D01*
X168776276Y-103637787D01*
X168719477Y-103625199D01*
X168674040Y-103613745D01*
X168643644Y-103604341D01*
X168632487Y-103598760D01*
X168623451Y-103583204D01*
X168608718Y-103551734D01*
X168590183Y-103509044D01*
X168569736Y-103459829D01*
X168549272Y-103408787D01*
X168530682Y-103360612D01*
X168515859Y-103319999D01*
X168506696Y-103291646D01*
X168504663Y-103281629D01*
X168510695Y-103268147D01*
X168527401Y-103239838D01*
X168552735Y-103199934D01*
X168584656Y-103151667D01*
X168615139Y-103106917D01*
X168651083Y-103053798D01*
X168682135Y-103005955D01*
X168706240Y-102966715D01*
X168721345Y-102939403D01*
X168725574Y-102928157D01*
X168718129Y-102915760D01*
X168697735Y-102891039D01*
X168667300Y-102856984D01*
X168629736Y-102816589D01*
X168587951Y-102772845D01*
X168544855Y-102728744D01*
X168503359Y-102687278D01*
X168466372Y-102651440D01*
X168436803Y-102624222D01*
X168417563Y-102608615D01*
X168412335Y-102606061D01*
X168400582Y-102612021D01*
X168373889Y-102628524D01*
X168335449Y-102653504D01*
X168288455Y-102684894D01*
X168249693Y-102711280D01*
X168197584Y-102746718D01*
X168150884Y-102777901D01*
X168113021Y-102802584D01*
X168087423Y-102818525D01*
X168078540Y-102823317D01*
X168060345Y-102822059D01*
X168028869Y-102812303D01*
X167990287Y-102796010D01*
X167985661Y-102793800D01*
X167947474Y-102776991D01*
X167915754Y-102766042D01*
X167896599Y-102763007D01*
X167895215Y-102763350D01*
X167888590Y-102774086D01*
X167874748Y-102802396D01*
X167854905Y-102845442D01*
X167830277Y-102900385D01*
X167802078Y-102964384D01*
X167771526Y-103034601D01*
X167739835Y-103108196D01*
X167708221Y-103182331D01*
X167677900Y-103254165D01*
X167650087Y-103320860D01*
X167625998Y-103379576D01*
X167606849Y-103427475D01*
X167593855Y-103461716D01*
X167588231Y-103479461D01*
X167588096Y-103480665D01*
X167596369Y-103489850D01*
X167618460Y-103508567D01*
X167650277Y-103533420D01*
X167664973Y-103544440D01*
X167741937Y-103613565D01*
X167800524Y-103691632D01*
X167840554Y-103776149D01*
X167861847Y-103864625D01*
X167864223Y-103954568D01*
X167847504Y-104043487D01*
X167811508Y-104128891D01*
X167756058Y-104208287D01*
X167715821Y-104249768D01*
X167639660Y-104306414D01*
X167557848Y-104343605D01*
X167472848Y-104362428D01*
X167387126Y-104363971D01*
X167303144Y-104349322D01*
X167223367Y-104319567D01*
X167150259Y-104275794D01*
X167086284Y-104219090D01*
X167033906Y-104150543D01*
X166995589Y-104071239D01*
X166973798Y-103982266D01*
X166969661Y-103920511D01*
X166980101Y-103821588D01*
X167011207Y-103730156D01*
X167062659Y-103646817D01*
X167134137Y-103572176D01*
X167168871Y-103544440D01*
X167203459Y-103518069D01*
X167229976Y-103496462D01*
X167244329Y-103483014D01*
X167245748Y-103480665D01*
X167241546Y-103466047D01*
X167229753Y-103434442D01*
X167211583Y-103388689D01*
X167188255Y-103331628D01*
X167160985Y-103266098D01*
X167130989Y-103194938D01*
X167099485Y-103120988D01*
X167067688Y-103047086D01*
X167036816Y-102976073D01*
X167008085Y-102910788D01*
X166982711Y-102854069D01*
X166961913Y-102808757D01*
X166946905Y-102777691D01*
X166938905Y-102763709D01*
X166938324Y-102763233D01*
X166921577Y-102765038D01*
X166891243Y-102775219D01*
X166853204Y-102791720D01*
X166844020Y-102796175D01*
X166765357Y-102835119D01*
X166597954Y-102720590D01*
X166544277Y-102684203D01*
X166496697Y-102652585D01*
X166458258Y-102627708D01*
X166432009Y-102611546D01*
X166421110Y-102606061D01*
X166410736Y-102613532D01*
X166387411Y-102634346D01*
X166353676Y-102666106D01*
X166312074Y-102706413D01*
X166265147Y-102752870D01*
X166259970Y-102758052D01*
X166212946Y-102806077D01*
X166171853Y-102849784D01*
X166139109Y-102886460D01*
X166117129Y-102913388D01*
X166108332Y-102927855D01*
X166108270Y-102928448D01*
X166114309Y-102943191D01*
X166131058Y-102972640D01*
X166156462Y-103013478D01*
X166188467Y-103062385D01*
X166218705Y-103106917D01*
X166254586Y-103159718D01*
X166285602Y-103206878D01*
X166309709Y-103245165D01*
X166324864Y-103271346D01*
X166329180Y-103281629D01*
X166325082Y-103298662D01*
X166314004Y-103331227D01*
X166297840Y-103374627D01*
X166278482Y-103424167D01*
X166257823Y-103475151D01*
X166237756Y-103522884D01*
X166220173Y-103562670D01*
X166206966Y-103589814D01*
X166201357Y-103598760D01*
X166186197Y-103605774D01*
X166152948Y-103615597D01*
X166105291Y-103627312D01*
X166046907Y-103640002D01*
X165993089Y-103650592D01*
X165929897Y-103662721D01*
X165874055Y-103673921D01*
X165829266Y-103683407D01*
X165799238Y-103690400D01*
X165787964Y-103693871D01*
X165785314Y-103705789D01*
X165782885Y-103735518D01*
X165780737Y-103779104D01*
X165778928Y-103832591D01*
X165777520Y-103892026D01*
X165776571Y-103953454D01*
X165776142Y-104012919D01*
X165776292Y-104066468D01*
X165777081Y-104110146D01*
X165778569Y-104139998D01*
X165780815Y-104152069D01*
X165781042Y-104152148D01*
X165798143Y-104154227D01*
X165831797Y-104159918D01*
X165877927Y-104168403D01*
X165932453Y-104178862D01*
X165991298Y-104190477D01*
X166050383Y-104202428D01*
X166105629Y-104213898D01*
X166152959Y-104224067D01*
X166188294Y-104232117D01*
X166207555Y-104237228D01*
X166209815Y-104238232D01*
X166217836Y-104251930D01*
X166232073Y-104281441D01*
X166250553Y-104322154D01*
X166271301Y-104369458D01*
X166292344Y-104418743D01*
X166311706Y-104465397D01*
X166327415Y-104504811D01*
X166337496Y-104532373D01*
X166340183Y-104542727D01*
X166334208Y-104555841D01*
X166317594Y-104583975D01*
X166292310Y-104624012D01*
X166260321Y-104672837D01*
X166224226Y-104726409D01*
X166187508Y-104781104D01*
X166155576Y-104830382D01*
X166130409Y-104871051D01*
X166113982Y-104899918D01*
X166108270Y-104913656D01*
X166115783Y-104927439D01*
X166136385Y-104952842D01*
X166167169Y-104986992D01*
X166205226Y-105027017D01*
X166247651Y-105070044D01*
X166291536Y-105113198D01*
X166333973Y-105153609D01*
X166372056Y-105188401D01*
X166402877Y-105214703D01*
X166423529Y-105229642D01*
X166430256Y-105231853D01*
X166443809Y-105223980D01*
X166472289Y-105205648D01*
X166512474Y-105178989D01*
X166561145Y-105146137D01*
X166608440Y-105113797D01*
X166662025Y-105077208D01*
X166710068Y-105044897D01*
X166749321Y-105019011D01*
X166776532Y-105001698D01*
X166787916Y-104995265D01*
X166804721Y-104996772D01*
X166836842Y-105005873D01*
X166879646Y-105020684D01*
X166928499Y-105039320D01*
X166978767Y-105059898D01*
X167025816Y-105080533D01*
X167065013Y-105099343D01*
X167091723Y-105114442D01*
X167100965Y-105122539D01*
X167105800Y-105138782D01*
X167113656Y-105172982D01*
X167123738Y-105221342D01*
X167135255Y-105280063D01*
X167146819Y-105342083D01*
X167183488Y-105543626D01*
X167650356Y-105543626D01*
X167687025Y-105342083D01*
%LPC*%
D16*
X154000000Y-99500000D03*
D17*
X145293400Y-98475800D03*
X168193400Y-98475800D03*
D18*
X145313400Y-111429800D03*
D19*
X147853400Y-111429800D03*
X150393400Y-111429800D03*
X152933400Y-111429800D03*
X155473400Y-111429800D03*
X158013400Y-111429800D03*
X160553400Y-111429800D03*
X163093400Y-111429800D03*
X165633400Y-111429800D03*
X168173400Y-111429800D03*
M02*
