G04 #@! TF.FileFunction,Profile,NP*
%FSLAX46Y46*%
G04 Gerber Fmt 4.6, Leading zero omitted, Abs format (unit mm)*
G04 Created by KiCad (PCBNEW 4.0.2+dfsg1-stable) date 2017年01月10日 18時20分23秒*
%MOMM*%
G01*
G04 APERTURE LIST*
%ADD10C,0.100000*%
%ADD11C,0.150000*%
G04 APERTURE END LIST*
D10*
D11*
X173126400Y-91973400D02*
G75*
G03X174142400Y-90957400I0J1016000D01*
G01*
X144043400Y-90957400D02*
G75*
G03X145059400Y-91973400I1016000J0D01*
G01*
X174142400Y-72923400D02*
G75*
G03X173126400Y-71907400I-1016000J0D01*
G01*
X145059400Y-71907400D02*
G75*
G03X144043400Y-72923400I0J-1016000D01*
G01*
X174142400Y-72986900D02*
X174142400Y-91020900D01*
X144043400Y-72986900D02*
X144043400Y-91020900D01*
X146348173Y-90385900D02*
G75*
G03X146348173Y-90385900I-653773J0D01*
G01*
X173209820Y-73431400D02*
G75*
G03X173209820Y-73431400I-718420J0D01*
G01*
X145059400Y-71907400D02*
X172999400Y-71907400D01*
X173253400Y-91973400D02*
X145059400Y-91973400D01*
X173253400Y-112953800D02*
X145059400Y-112953800D01*
X145059400Y-92887800D02*
X172999400Y-92887800D01*
X173209820Y-94411800D02*
G75*
G03X173209820Y-94411800I-718420J0D01*
G01*
X146348173Y-111366300D02*
G75*
G03X146348173Y-111366300I-653773J0D01*
G01*
X144043400Y-93967300D02*
X144043400Y-112001300D01*
X174142400Y-93967300D02*
X174142400Y-112001300D01*
X145059400Y-92887800D02*
G75*
G03X144043400Y-93903800I0J-1016000D01*
G01*
X174142400Y-93903800D02*
G75*
G03X173126400Y-92887800I-1016000J0D01*
G01*
X144043400Y-111937800D02*
G75*
G03X145059400Y-112953800I1016000J0D01*
G01*
X173126400Y-112953800D02*
G75*
G03X174142400Y-111937800I0J1016000D01*
G01*
M02*
